M48
; DRILL file {KiCad (7.0.0-0)} date Saturday, 25 February 2023 at 23:33:46
; FORMAT={-:-/ absolute / inch / decimal}
; #@! TF.CreationDate,2023-02-25T23:33:46+02:00
; #@! TF.GenerationSoftware,Kicad,Pcbnew,(7.0.0-0)
; #@! TF.FileFunction,Plated,1,2,PTH
FMAT,2
INCH
; #@! TA.AperFunction,Plated,PTH,ComponentDrill
T1C0.0197
; #@! TA.AperFunction,Plated,PTH,ComponentDrill
T2C0.0236
; #@! TA.AperFunction,Plated,PTH,ComponentDrill
T3C0.0276
; #@! TA.AperFunction,Plated,PTH,ComponentDrill
T4C0.0295
; #@! TA.AperFunction,Plated,PTH,ComponentDrill
T5C0.0315
; #@! TA.AperFunction,Plated,PTH,ComponentDrill
T6C0.0354
; #@! TA.AperFunction,Plated,PTH,ComponentDrill
T7C0.0433
%
G90
G05
T1
X1.425Y-2.05
X1.425Y-2.0894
X1.45Y-1.2106
X1.45Y-1.25
T2
X3.6367Y-3.075
X3.7154Y-3.075
T3
X1.6Y-1.95
X1.6Y-2.25
X2.05Y-2.525
X2.05Y-2.825
X2.28Y-2.52
X2.28Y-2.82
X2.38Y-2.52
X2.38Y-2.82
X2.48Y-2.52
X2.48Y-2.82
X2.64Y-2.52
X2.64Y-2.82
X2.73Y-2.52
X2.73Y-2.82
X2.84Y-2.52
X2.84Y-2.82
X3.85Y-2.95
X3.88Y-1.85
X3.88Y-2.15
X3.97Y-1.85
X3.97Y-2.15
X4.06Y-1.85
X4.06Y-2.15
X4.15Y-1.85
X4.15Y-2.15
X4.15Y-2.95
X4.24Y-1.85
X4.24Y-2.15
X4.33Y-1.85
X4.33Y-2.15
X4.42Y-1.85
X4.42Y-2.15
X4.51Y-1.85
X4.51Y-2.15
X4.6Y-1.85
X4.6Y-2.15
T4
X1.5Y-1.4642
X1.55Y-1.4642
X1.6Y-1.4642
X1.875Y-3.05
X1.925Y-3.05
X1.975Y-3.05
X2.12Y-1.92
X2.12Y-1.97
X2.12Y-2.02
X2.42Y-1.91
X2.42Y-1.96
X2.42Y-2.01
X2.7201Y-1.9
X2.7201Y-1.95
X2.7201Y-2.0
X3.0201Y-1.9
X3.0201Y-1.95
X3.0201Y-2.0
X3.3242Y-1.9
X3.3242Y-1.95
X3.3242Y-2.0
X3.5842Y-1.88
X3.5842Y-1.93
X3.5842Y-1.98
T5
X1.675Y-1.6758
X1.675Y-1.7742
X1.825Y-1.925
X1.825Y-2.0234
X1.925Y-1.6766
X1.925Y-1.775
X2.1Y-1.1205
X2.1Y-1.5205
X2.2Y-1.1205
X2.2Y-1.5205
X2.3Y-1.1205
X2.3Y-1.5205
X2.4Y-1.1205
X2.4Y-1.5205
X2.5Y-1.1205
X2.5Y-1.5205
X3.1Y-1.1205
X3.1Y-1.5205
X3.2Y-1.1205
X3.2Y-1.5205
X3.3Y-1.1205
X3.3Y-1.5205
X3.4Y-1.1205
X3.4Y-1.5205
X3.5Y-1.1205
X3.5Y-1.5205
X3.6Y-2.5
X3.6Y-2.8
X3.7Y-2.5
X3.7Y-2.8
X3.8Y-2.5
X3.8Y-2.8
X3.9Y-2.5
X3.9Y-2.8
X3.925Y-3.1
X3.925Y-3.1984
X4.0Y-2.5
X4.0Y-2.8
X4.05Y-1.1105
X4.05Y-1.5105
X4.1Y-2.5
X4.1Y-2.8
X4.1321Y-3.2
X4.15Y-1.1105
X4.15Y-1.5105
X4.2Y-2.5
X4.2Y-2.8
X4.25Y-1.1105
X4.25Y-1.5105
X4.3Y-2.5
X4.3Y-2.8
X4.325Y-3.2
X4.35Y-1.1105
X4.35Y-1.5105
X4.4Y-2.5
X4.4Y-2.8
X4.45Y-1.1105
X4.45Y-1.5105
X4.5Y-2.5
X4.5Y-2.8
X4.55Y-3.1008
X4.55Y-3.1992
T6
X1.5258Y-2.625
X1.825Y-2.625
X2.81Y-1.16
X2.81Y-1.26
X2.81Y-1.46
X2.81Y-1.56
X3.8Y-1.15
X3.8Y-1.25
X3.8Y-1.4502
X3.8Y-1.5502
T7
X2.3191Y-3.0
X2.3191Y-3.1772
X2.575Y-3.0
X2.575Y-3.1772
X2.772Y-3.0
X2.772Y-3.1772
X3.028Y-3.0
X3.028Y-3.1772
X3.222Y-3.0
X3.222Y-3.1772
X3.478Y-3.0
X3.478Y-3.1772
T0
M30
