%TF.GenerationSoftware,KiCad,Pcbnew,(7.0.0-0)*%
%TF.CreationDate,2023-02-25T23:33:50+02:00*%
%TF.ProjectId,ceas_8051,63656173-5f38-4303-9531-2e6b69636164,rev?*%
%TF.SameCoordinates,Original*%
%TF.FileFunction,Copper,L2,Bot*%
%TF.FilePolarity,Positive*%
%FSLAX46Y46*%
G04 Gerber Fmt 4.6, Leading zero omitted, Abs format (unit mm)*
G04 Created by KiCad (PCBNEW (7.0.0-0)) date 2023-02-25 23:33:50*
%MOMM*%
%LPD*%
G01*
G04 APERTURE LIST*
G04 Aperture macros list*
%AMRoundRect*
0 Rectangle with rounded corners*
0 $1 Rounding radius*
0 $2 $3 $4 $5 $6 $7 $8 $9 X,Y pos of 4 corners*
0 Add a 4 corners polygon primitive as box body*
4,1,4,$2,$3,$4,$5,$6,$7,$8,$9,$2,$3,0*
0 Add four circle primitives for the rounded corners*
1,1,$1+$1,$2,$3*
1,1,$1+$1,$4,$5*
1,1,$1+$1,$6,$7*
1,1,$1+$1,$8,$9*
0 Add four rect primitives between the rounded corners*
20,1,$1+$1,$2,$3,$4,$5,0*
20,1,$1+$1,$4,$5,$6,$7,0*
20,1,$1+$1,$6,$7,$8,$9,0*
20,1,$1+$1,$8,$9,$2,$3,0*%
G04 Aperture macros list end*
%TA.AperFunction,NonConductor*%
%ADD10C,0.200000*%
%TD*%
%TA.AperFunction,ComponentPad*%
%ADD11C,1.500000*%
%TD*%
%TA.AperFunction,ComponentPad*%
%ADD12R,1.500000X1.500000*%
%TD*%
%TA.AperFunction,ComponentPad*%
%ADD13O,1.400000X1.400000*%
%TD*%
%TA.AperFunction,ComponentPad*%
%ADD14C,1.400000*%
%TD*%
%TA.AperFunction,ComponentPad*%
%ADD15C,1.800000*%
%TD*%
%TA.AperFunction,ComponentPad*%
%ADD16R,1.800000X1.800000*%
%TD*%
%TA.AperFunction,ComponentPad*%
%ADD17O,1.500000X1.050000*%
%TD*%
%TA.AperFunction,ComponentPad*%
%ADD18R,1.500000X1.050000*%
%TD*%
%TA.AperFunction,ComponentPad*%
%ADD19C,1.200000*%
%TD*%
%TA.AperFunction,ComponentPad*%
%ADD20R,1.200000X1.200000*%
%TD*%
%TA.AperFunction,ComponentPad*%
%ADD21C,1.600000*%
%TD*%
%TA.AperFunction,ComponentPad*%
%ADD22RoundRect,0.249900X-0.600100X-0.600100X0.600100X-0.600100X0.600100X0.600100X-0.600100X0.600100X0*%
%TD*%
%TA.AperFunction,ComponentPad*%
%ADD23C,1.700000*%
%TD*%
%TA.AperFunction,ComponentPad*%
%ADD24R,0.850000X0.850000*%
%TD*%
%TA.AperFunction,ComponentPad*%
%ADD25O,0.850000X0.850000*%
%TD*%
%TA.AperFunction,ComponentPad*%
%ADD26O,1.050000X1.500000*%
%TD*%
%TA.AperFunction,ComponentPad*%
%ADD27R,1.050000X1.500000*%
%TD*%
%TA.AperFunction,ComponentPad*%
%ADD28R,1.600000X1.600000*%
%TD*%
%TA.AperFunction,ComponentPad*%
%ADD29O,1.600000X1.600000*%
%TD*%
%TA.AperFunction,ComponentPad*%
%ADD30C,2.000000*%
%TD*%
%TA.AperFunction,Conductor*%
%ADD31C,0.250000*%
%TD*%
G04 APERTURE END LIST*
D10*
X30226000Y-22860000D02*
X122682000Y-22860000D01*
X122682000Y-22860000D02*
X122682000Y-86106000D01*
X122682000Y-86106000D02*
X30226000Y-86106000D01*
X30226000Y-86106000D02*
X30226000Y-22860000D01*
D11*
%TO.P,DS2,10*%
%TO.N,Net-(Q4-C)*%
X78740000Y-28459500D03*
%TO.P,DS2,9*%
%TO.N,Net-(DS1-Pad9)*%
X81280000Y-28459500D03*
%TO.P,DS2,8*%
%TO.N,Net-(DS1-Pad8)*%
X83820000Y-28459500D03*
%TO.P,DS2,7*%
%TO.N,Net-(DS1-Pad7)*%
X86360000Y-28459500D03*
%TO.P,DS2,6*%
%TO.N,Net-(DS1-Pad6)*%
X88900000Y-28459500D03*
%TO.P,DS2,5*%
%TO.N,Net-(Q3-C)*%
X88900000Y-38619500D03*
%TO.P,DS2,4*%
%TO.N,Net-(DS1-Pad4)*%
X86360000Y-38619500D03*
%TO.P,DS2,3*%
%TO.N,Net-(DS1-Pad3)*%
X83820000Y-38619500D03*
%TO.P,DS2,2*%
%TO.N,unconnected-(DS2-Pad2)*%
X81280000Y-38619500D03*
D12*
%TO.P,DS2,1*%
%TO.N,Net-(DS1-Pad1)*%
X78739999Y-38619499D03*
%TD*%
D11*
%TO.P,DS3,10*%
%TO.N,Net-(Q6-C)*%
X102870000Y-28205500D03*
%TO.P,DS3,9*%
%TO.N,Net-(DS1-Pad9)*%
X105410000Y-28205500D03*
%TO.P,DS3,8*%
%TO.N,Net-(DS1-Pad8)*%
X107950000Y-28205500D03*
%TO.P,DS3,7*%
%TO.N,Net-(DS1-Pad7)*%
X110490000Y-28205500D03*
%TO.P,DS3,6*%
%TO.N,Net-(DS1-Pad6)*%
X113030000Y-28205500D03*
%TO.P,DS3,5*%
%TO.N,Net-(Q5-C)*%
X113030000Y-38365500D03*
%TO.P,DS3,4*%
%TO.N,Net-(DS1-Pad4)*%
X110490000Y-38365500D03*
%TO.P,DS3,3*%
%TO.N,Net-(DS1-Pad3)*%
X107950000Y-38365500D03*
%TO.P,DS3,2*%
%TO.N,unconnected-(DS3-Pad2)*%
X105410000Y-38365500D03*
D12*
%TO.P,DS3,1*%
%TO.N,Net-(DS1-Pad1)*%
X102869999Y-38365499D03*
%TD*%
D13*
%TO.P,R14,2*%
%TO.N,Net-(U1-P1.5)*%
X105409999Y-54609999D03*
D14*
%TO.P,R14,1*%
%TO.N,Net-(DS1-Pad3)*%
X105410000Y-46990000D03*
%TD*%
D15*
%TO.P,D3,2,A*%
%TO.N,Net-(D3-A)*%
X96520000Y-36835000D03*
D16*
%TO.P,D3,1,K*%
%TO.N,Net-(D3-K)*%
X96519999Y-39374999D03*
%TD*%
%TO.P,D2,1,K*%
%TO.N,Net-(D1-A)*%
X71373999Y-32003999D03*
D15*
%TO.P,D2,2,A*%
%TO.N,+5V*%
X71374000Y-29464000D03*
%TD*%
%TO.P,D1,2,A*%
%TO.N,Net-(D1-A)*%
X71374000Y-37084000D03*
D16*
%TO.P,D1,1,K*%
%TO.N,Net-(D1-K)*%
X71373999Y-39623999D03*
%TD*%
D12*
%TO.P,DS1,1*%
%TO.N,Net-(DS1-Pad1)*%
X53339999Y-38619499D03*
D11*
%TO.P,DS1,2*%
%TO.N,unconnected-(DS1-Pad2)*%
X55880000Y-38619500D03*
%TO.P,DS1,3*%
%TO.N,Net-(DS1-Pad3)*%
X58420000Y-38619500D03*
%TO.P,DS1,4*%
%TO.N,Net-(DS1-Pad4)*%
X60960000Y-38619500D03*
%TO.P,DS1,5*%
%TO.N,Net-(Q1-C)*%
X63500000Y-38619500D03*
%TO.P,DS1,6*%
%TO.N,Net-(DS1-Pad6)*%
X63500000Y-28459500D03*
%TO.P,DS1,7*%
%TO.N,Net-(DS1-Pad7)*%
X60960000Y-28459500D03*
%TO.P,DS1,8*%
%TO.N,Net-(DS1-Pad8)*%
X58420000Y-28459500D03*
%TO.P,DS1,9*%
%TO.N,Net-(DS1-Pad9)*%
X55880000Y-28459500D03*
%TO.P,DS1,10*%
%TO.N,Net-(Q2-C)*%
X53340000Y-28459500D03*
%TD*%
D17*
%TO.P,Q6,3,C*%
%TO.N,Net-(Q6-C)*%
X84433999Y-48259999D03*
%TO.P,Q6,2,B*%
%TO.N,Net-(Q6-B)*%
X84433999Y-49529999D03*
D18*
%TO.P,Q6,1,E*%
%TO.N,+5V*%
X84433999Y-50799999D03*
%TD*%
D19*
%TO.P,C1,2*%
%TO.N,Net-(U1-RST{slash}VPP)*%
X94372401Y-78105000D03*
D20*
%TO.P,C1,1*%
%TO.N,+5V*%
X92372400Y-78104999D03*
%TD*%
D17*
%TO.P,Q3,3,C*%
%TO.N,Net-(Q3-C)*%
X69089999Y-48259999D03*
%TO.P,Q3,2,B*%
%TO.N,Net-(Q3-B)*%
X69089999Y-49529999D03*
D18*
%TO.P,Q3,1,E*%
%TO.N,+5V*%
X69089999Y-50799999D03*
%TD*%
D14*
%TO.P,R10,1*%
%TO.N,Net-(DS1-Pad8)*%
X114554000Y-46990000D03*
D13*
%TO.P,R10,2*%
%TO.N,Net-(U1-P1.1)*%
X114553999Y-54609999D03*
%TD*%
%TO.P,R15,2*%
%TO.N,Net-(U1-P1.6)*%
X107695999Y-54609999D03*
D14*
%TO.P,R15,1*%
%TO.N,Net-(DS1-Pad1)*%
X107696000Y-46990000D03*
%TD*%
%TO.P,R6,1*%
%TO.N,D5*%
X69342000Y-71628000D03*
D13*
%TO.P,R6,2*%
%TO.N,Net-(Q5-B)*%
X69341999Y-64007999D03*
%TD*%
D21*
%TO.P,C5,2*%
%TO.N,GND*%
X42545000Y-45065000D03*
%TO.P,C5,1*%
%TO.N,+5V*%
X42545000Y-42565000D03*
%TD*%
D18*
%TO.P,Q2,1,E*%
%TO.N,+5V*%
X61467999Y-51053999D03*
D17*
%TO.P,Q2,2,B*%
%TO.N,Net-(Q2-B)*%
X61467999Y-49783999D03*
%TO.P,Q2,3,C*%
%TO.N,Net-(Q2-C)*%
X61467999Y-48513999D03*
%TD*%
D21*
%TO.P,C3,2*%
%TO.N,GND*%
X115570000Y-78760000D03*
%TO.P,C3,1*%
%TO.N,Net-(U1-XTAL2)*%
X115570000Y-81260000D03*
%TD*%
D14*
%TO.P,R5,1*%
%TO.N,D3*%
X67056000Y-71628000D03*
D13*
%TO.P,R5,2*%
%TO.N,Net-(Q4-B)*%
X67055999Y-64007999D03*
%TD*%
D15*
%TO.P,D4,2,A*%
%TO.N,+5V*%
X96520000Y-29210000D03*
D16*
%TO.P,D4,1,K*%
%TO.N,Net-(D3-A)*%
X96519999Y-31749999D03*
%TD*%
D22*
%TO.P,BZ1,1,-*%
%TO.N,Net-(BZ1--)*%
X38755000Y-66675000D03*
D23*
%TO.P,BZ1,2,+*%
%TO.N,GND*%
X46355000Y-66675000D03*
%TD*%
D21*
%TO.P,C4,2*%
%TO.N,GND*%
X48895000Y-42585000D03*
%TO.P,C4,1*%
%TO.N,Net-(J2-Pin_1)*%
X48895000Y-45085000D03*
%TD*%
D17*
%TO.P,Q5,3,C*%
%TO.N,Net-(Q5-C)*%
X91037999Y-47751999D03*
%TO.P,Q5,2,B*%
%TO.N,Net-(Q5-B)*%
X91037999Y-49021999D03*
D18*
%TO.P,Q5,1,E*%
%TO.N,+5V*%
X91037999Y-50291999D03*
%TD*%
D24*
%TO.P,J2,1,Pin_1*%
%TO.N,Net-(J2-Pin_1)*%
X36829999Y-31749999D03*
D25*
%TO.P,J2,2,Pin_2*%
%TO.N,GND*%
X36829999Y-30749999D03*
%TD*%
D26*
%TO.P,Q7,3,C*%
%TO.N,+5V*%
X47624999Y-77469999D03*
%TO.P,Q7,2,B*%
%TO.N,Net-(Q7-B)*%
X48894999Y-77469999D03*
D27*
%TO.P,Q7,1,E*%
%TO.N,Net-(BZ1--)*%
X50164999Y-77469999D03*
%TD*%
D17*
%TO.P,Q1,3,C*%
%TO.N,Net-(Q1-C)*%
X53847999Y-48767999D03*
%TO.P,Q1,2,B*%
%TO.N,Net-(Q1-B)*%
X53847999Y-50037999D03*
D18*
%TO.P,Q1,1,E*%
%TO.N,+5V*%
X53847999Y-51307999D03*
%TD*%
D13*
%TO.P,R11,2*%
%TO.N,Net-(U1-P1.2)*%
X112267999Y-54609999D03*
D14*
%TO.P,R11,1*%
%TO.N,Net-(DS1-Pad7)*%
X112268000Y-46990000D03*
%TD*%
D25*
%TO.P,J1,2,Pin_2*%
%TO.N,GND*%
X36194999Y-52069999D03*
D24*
%TO.P,J1,1,Pin_1*%
%TO.N,Net-(BZ1--)*%
X36194999Y-53069999D03*
%TD*%
D13*
%TO.P,R1,2*%
%TO.N,Net-(U1-RST{slash}VPP)*%
X97789999Y-74929999D03*
D14*
%TO.P,R1,1*%
%TO.N,GND*%
X105410000Y-74930000D03*
%TD*%
D28*
%TO.P,U1,1,RST/VPP*%
%TO.N,Net-(U1-RST{slash}VPP)*%
X91439999Y-71119999D03*
D29*
%TO.P,U1,2,P3.0*%
%TO.N,D6*%
X93979999Y-71119999D03*
%TO.P,U1,3,P3.1*%
%TO.N,D5*%
X96519999Y-71119999D03*
%TO.P,U1,4,XTAL2*%
%TO.N,Net-(U1-XTAL2)*%
X99059999Y-71119999D03*
%TO.P,U1,5,XTAL1*%
%TO.N,Net-(U1-XTAL1)*%
X101599999Y-71119999D03*
%TO.P,U1,6,P3.2*%
%TO.N,D3*%
X104139999Y-71119999D03*
%TO.P,U1,7,P3.3*%
%TO.N,D4*%
X106679999Y-71119999D03*
%TO.P,U1,8,P3.4*%
%TO.N,D2*%
X109219999Y-71119999D03*
%TO.P,U1,9,P3.5*%
%TO.N,D1*%
X111759999Y-71119999D03*
%TO.P,U1,10,GND*%
%TO.N,GND*%
X114299999Y-71119999D03*
%TO.P,U1,11,P3.7*%
%TO.N,A8*%
X114299999Y-63499999D03*
%TO.P,U1,12,P1.0*%
%TO.N,Net-(U1-P1.0)*%
X111759999Y-63499999D03*
%TO.P,U1,13,P1.1*%
%TO.N,Net-(U1-P1.1)*%
X109219999Y-63499999D03*
%TO.P,U1,14,P1.2*%
%TO.N,Net-(U1-P1.2)*%
X106679999Y-63499999D03*
%TO.P,U1,15,P1.3*%
%TO.N,Net-(U1-P1.3)*%
X104139999Y-63499999D03*
%TO.P,U1,16,P1.4*%
%TO.N,Net-(U1-P1.4)*%
X101599999Y-63499999D03*
%TO.P,U1,17,P1.5*%
%TO.N,Net-(U1-P1.5)*%
X99059999Y-63499999D03*
%TO.P,U1,18,P1.6*%
%TO.N,Net-(U1-P1.6)*%
X96519999Y-63499999D03*
%TO.P,U1,19,P1.7*%
%TO.N,Net-(U1-P1.7)*%
X93979999Y-63499999D03*
%TO.P,U1,20,VCC*%
%TO.N,+5V*%
X91439999Y-63499999D03*
%TD*%
D17*
%TO.P,Q4,3,C*%
%TO.N,Net-(Q4-C)*%
X76709999Y-48259999D03*
%TO.P,Q4,2,B*%
%TO.N,Net-(Q4-B)*%
X76709999Y-49529999D03*
D18*
%TO.P,Q4,1,E*%
%TO.N,+5V*%
X76709999Y-50799999D03*
%TD*%
D14*
%TO.P,R7,1*%
%TO.N,D4*%
X72136000Y-71628000D03*
D13*
%TO.P,R7,2*%
%TO.N,Net-(Q6-B)*%
X72135999Y-64007999D03*
%TD*%
%TO.P,R4,2*%
%TO.N,Net-(Q3-B)*%
X62991999Y-64007999D03*
D14*
%TO.P,R4,1*%
%TO.N,D1*%
X62992000Y-71628000D03*
%TD*%
D13*
%TO.P,R3,2*%
%TO.N,Net-(Q2-B)*%
X60451999Y-64007999D03*
D14*
%TO.P,R3,1*%
%TO.N,D6*%
X60452000Y-71628000D03*
%TD*%
D13*
%TO.P,R13,2*%
%TO.N,Net-(U1-P1.4)*%
X103123999Y-54609999D03*
D14*
%TO.P,R13,1*%
%TO.N,Net-(DS1-Pad4)*%
X103124000Y-46990000D03*
%TD*%
D21*
%TO.P,C2,2*%
%TO.N,GND*%
X99695000Y-78740000D03*
%TO.P,C2,1*%
%TO.N,Net-(U1-XTAL1)*%
X99695000Y-81240000D03*
%TD*%
%TO.P,C6,2*%
%TO.N,GND*%
X46355000Y-51395000D03*
D28*
%TO.P,C6,1*%
%TO.N,+5V*%
X46354999Y-48894999D03*
%TD*%
D13*
%TO.P,R16,2*%
%TO.N,Net-(U1-P1.7)*%
X100837999Y-54609999D03*
D14*
%TO.P,R16,1*%
%TO.N,Net-(D1-K)*%
X100838000Y-46990000D03*
%TD*%
%TO.P,R17,1*%
%TO.N,Net-(D3-K)*%
X98552000Y-46990000D03*
D13*
%TO.P,R17,2*%
%TO.N,Net-(U1-P1.7)*%
X98551999Y-54609999D03*
%TD*%
D14*
%TO.P,R18,1*%
%TO.N,Net-(BZ1--)*%
X40640000Y-57150000D03*
D13*
%TO.P,R18,2*%
%TO.N,GND*%
X40639999Y-49529999D03*
%TD*%
%TO.P,R9,2*%
%TO.N,Net-(U1-P1.0)*%
X116839999Y-54609999D03*
D14*
%TO.P,R9,1*%
%TO.N,Net-(DS1-Pad9)*%
X116840000Y-46990000D03*
%TD*%
D26*
%TO.P,U2,3,VI*%
%TO.N,Net-(J2-Pin_1)*%
X40639999Y-37189999D03*
%TO.P,U2,2,GND*%
%TO.N,GND*%
X39369999Y-37189999D03*
D27*
%TO.P,U2,1,VO*%
%TO.N,+5V*%
X38099999Y-37189999D03*
%TD*%
D11*
%TO.P,Y1,2,2*%
%TO.N,Net-(U1-XTAL2)*%
X109855000Y-81280000D03*
%TO.P,Y1,1,1*%
%TO.N,Net-(U1-XTAL1)*%
X104955000Y-81280000D03*
%TD*%
D14*
%TO.P,R8,1*%
%TO.N,A8*%
X52070000Y-64135000D03*
D13*
%TO.P,R8,2*%
%TO.N,Net-(Q7-B)*%
X52069999Y-71754999D03*
%TD*%
%TO.P,R12,2*%
%TO.N,Net-(U1-P1.3)*%
X109981999Y-54609999D03*
D14*
%TO.P,R12,1*%
%TO.N,Net-(DS1-Pad6)*%
X109982000Y-46990000D03*
%TD*%
D13*
%TO.P,R2,2*%
%TO.N,Net-(Q1-B)*%
X57911999Y-64007999D03*
D14*
%TO.P,R2,1*%
%TO.N,D2*%
X57912000Y-71628000D03*
%TD*%
D30*
%TO.P,S1,1,1*%
%TO.N,GND*%
X81840000Y-76200000D03*
%TO.P,S1,2,2*%
%TO.N,D3*%
X88340000Y-76200000D03*
%TO.P,S1,3,3*%
%TO.N,unconnected-(S1-Pad3)*%
X81840000Y-80700000D03*
%TO.P,S1,4,4*%
%TO.N,unconnected-(S1-Pad4)*%
X88340000Y-80700000D03*
%TD*%
%TO.P,S2,1,1*%
%TO.N,GND*%
X70410000Y-76200000D03*
%TO.P,S2,2,2*%
%TO.N,D2*%
X76910000Y-76200000D03*
%TO.P,S2,3,3*%
%TO.N,unconnected-(S2-Pad3)*%
X70410000Y-80700000D03*
%TO.P,S2,4,4*%
%TO.N,unconnected-(S2-Pad4)*%
X76910000Y-80700000D03*
%TD*%
%TO.P,S3,1,1*%
%TO.N,GND*%
X58905000Y-76200000D03*
%TO.P,S3,2,2*%
%TO.N,D1*%
X65405000Y-76200000D03*
%TO.P,S3,3,3*%
%TO.N,unconnected-(S3-Pad3)*%
X58905000Y-80700000D03*
%TO.P,S3,4,4*%
%TO.N,unconnected-(S3-Pad4)*%
X65405000Y-80700000D03*
%TD*%
D31*
%TO.N,Net-(DS1-Pad1)*%
X79815000Y-37544500D02*
X78740000Y-38619500D01*
%TO.N,Net-(Q6-C)*%
X84434000Y-48260000D02*
X77216000Y-41042000D01*
X77933000Y-30525000D02*
X100550500Y-30525000D01*
X77216000Y-41042000D02*
X77216000Y-31242000D01*
X77216000Y-31242000D02*
X77933000Y-30525000D01*
X100550500Y-30525000D02*
X102870000Y-28205500D01*
%TO.N,Net-(DS1-Pad1)*%
X102649500Y-38145000D02*
X90170000Y-38145000D01*
X89569500Y-37544500D02*
X79815000Y-37544500D01*
X90170000Y-38145000D02*
X89569500Y-37544500D01*
%TO.N,Net-(Q6-C)*%
X84895000Y-47799000D02*
X84434000Y-48260000D01*
%TO.N,Net-(U1-P1.7)*%
X98552000Y-54610000D02*
X98552000Y-58928000D01*
X98552000Y-58928000D02*
X93980000Y-63500000D01*
X100838000Y-54610000D02*
X98552000Y-54610000D01*
%TO.N,Net-(U1-P1.5)*%
X105410000Y-54610000D02*
X105410000Y-57150000D01*
X105410000Y-57150000D02*
X99060000Y-63500000D01*
%TO.N,Net-(U1-P1.6)*%
X102099000Y-57921000D02*
X96520000Y-63500000D01*
%TO.N,Net-(U1-P1.4)*%
X103124000Y-54610000D02*
X104149000Y-53585000D01*
X104149000Y-53585000D02*
X105834569Y-53585000D01*
%TO.N,Net-(U1-P1.6)*%
X106221499Y-53135499D02*
X103148932Y-53135499D01*
X107696000Y-54610000D02*
X106221499Y-53135499D01*
X102099000Y-54185431D02*
X102099000Y-57921000D01*
X103148932Y-53135499D02*
X102099000Y-54185431D01*
%TO.N,Net-(U1-P1.4)*%
X105834569Y-53585000D02*
X106435000Y-54185431D01*
X106435000Y-54185431D02*
X106435000Y-58665000D01*
X106435000Y-58665000D02*
X101600000Y-63500000D01*
%TO.N,Net-(U1-P1.3)*%
X109982000Y-54610000D02*
X109982000Y-57658000D01*
X109982000Y-57658000D02*
X104140000Y-63500000D01*
%TO.N,Net-(U1-P1.2)*%
X112268000Y-54610000D02*
X112268000Y-57912000D01*
X112268000Y-57912000D02*
X106680000Y-63500000D01*
%TO.N,Net-(U1-P1.1)*%
X114554000Y-54610000D02*
X114554000Y-58166000D01*
X114554000Y-58166000D02*
X109220000Y-63500000D01*
%TO.N,Net-(U1-P1.0)*%
X116840000Y-54610000D02*
X116840000Y-58420000D01*
X116840000Y-58420000D02*
X111760000Y-63500000D01*
%TO.N,D1*%
X65269000Y-73905000D02*
X77978000Y-73905000D01*
X77978000Y-73905000D02*
X108975000Y-73905000D01*
X65405000Y-76200000D02*
X66730000Y-77525000D01*
X66730000Y-77525000D02*
X77458833Y-77525000D01*
X77458833Y-77525000D02*
X78486000Y-76497833D01*
X78486000Y-76497833D02*
X78486000Y-74413000D01*
X78486000Y-74413000D02*
X77978000Y-73905000D01*
X108975000Y-73905000D02*
X111760000Y-71120000D01*
X62992000Y-71628000D02*
X65269000Y-73905000D01*
%TO.N,Net-(U1-RST{slash}VPP)*%
X94615000Y-78105000D02*
X94372401Y-78105000D01*
X97790000Y-74930000D02*
X94615000Y-78105000D01*
%TO.N,D2*%
X76910000Y-76200000D02*
X75585000Y-74875000D01*
X75585000Y-74875000D02*
X61159000Y-74875000D01*
X61159000Y-74875000D02*
X57912000Y-71628000D01*
%TO.N,Net-(U1-XTAL2)*%
X99060000Y-71120000D02*
X100635000Y-69545000D01*
X100635000Y-69545000D02*
X106985991Y-69545000D01*
X110635000Y-70654009D02*
X111294009Y-69995000D01*
X106985991Y-69545000D02*
X107805000Y-70364009D01*
X107805000Y-71585991D02*
X108464009Y-72245000D01*
X107805000Y-70364009D02*
X107805000Y-71585991D01*
X111294009Y-69995000D02*
X112515991Y-69995000D01*
X108464009Y-72245000D02*
X109975991Y-72245000D01*
X109975991Y-72245000D02*
X110635000Y-71585991D01*
X110635000Y-71585991D02*
X110635000Y-70654009D01*
X113030000Y-70509009D02*
X113030000Y-78105000D01*
X112515991Y-69995000D02*
X113030000Y-70509009D01*
X113030000Y-78105000D02*
X109855000Y-81280000D01*
%TO.N,Net-(J2-Pin_1)*%
X40640000Y-37190000D02*
X41000000Y-37190000D01*
X41000000Y-37190000D02*
X48895000Y-45085000D01*
X40640000Y-37190000D02*
X40640000Y-35560000D01*
X40640000Y-35560000D02*
X36830000Y-31750000D01*
%TO.N,Net-(U1-XTAL2)*%
X109855000Y-81280000D02*
X115550000Y-81280000D01*
X115550000Y-81280000D02*
X115570000Y-81260000D01*
%TO.N,Net-(U1-XTAL1)*%
X99695000Y-81240000D02*
X104915000Y-81240000D01*
X104915000Y-81240000D02*
X104955000Y-81280000D01*
%TO.N,+5V*%
X92372401Y-78105000D02*
X56885000Y-78105000D01*
X53095000Y-74315000D02*
X53095000Y-71330431D01*
X56885000Y-78105000D02*
X53095000Y-74315000D01*
X52494569Y-70730000D02*
X51645431Y-70730000D01*
X53095000Y-71330431D02*
X52494569Y-70730000D01*
X51645431Y-70730000D02*
X47625000Y-74750431D01*
X47625000Y-74750431D02*
X47625000Y-77470000D01*
%TO.N,D3*%
X101804501Y-73455499D02*
X104140000Y-71120000D01*
X68883499Y-73455499D02*
X101804501Y-73455499D01*
X67056000Y-71628000D02*
X68883499Y-73455499D01*
%TO.N,D5*%
X88324189Y-69908499D02*
X89857501Y-71441811D01*
X89857501Y-71678501D02*
X90424000Y-72245000D01*
%TO.N,D4*%
X101906490Y-72694501D02*
X103015000Y-71585991D01*
X103015000Y-70654009D02*
X103674009Y-69995000D01*
%TO.N,D5*%
X95395000Y-72245000D02*
X96520000Y-71120000D01*
%TO.N,D2*%
X107109497Y-69009497D02*
X109220000Y-71120000D01*
%TO.N,D6*%
X92318998Y-69458998D02*
X93980000Y-71120000D01*
%TO.N,D4*%
X103674009Y-69995000D02*
X105555000Y-69995000D01*
%TO.N,D6*%
X60452000Y-71628000D02*
X62621002Y-69458998D01*
%TO.N,D4*%
X72136000Y-71628000D02*
X73202501Y-72694501D01*
%TO.N,D2*%
X60530503Y-69009497D02*
X107109497Y-69009497D01*
%TO.N,D5*%
X69342000Y-71628000D02*
X71061501Y-69908499D01*
%TO.N,D2*%
X57912000Y-71628000D02*
X60530503Y-69009497D01*
%TO.N,D6*%
X62621002Y-69458998D02*
X92318998Y-69458998D01*
%TO.N,D5*%
X71061501Y-69908499D02*
X88324189Y-69908499D01*
X90424000Y-72245000D02*
X95395000Y-72245000D01*
X89857501Y-71441811D02*
X89857501Y-71678501D01*
%TO.N,D4*%
X73202501Y-72694501D02*
X101906490Y-72694501D01*
X103015000Y-71585991D02*
X103015000Y-70654009D01*
X105555000Y-69995000D02*
X106680000Y-71120000D01*
%TO.N,A8*%
X52070000Y-64135000D02*
X53418000Y-65483000D01*
X53418000Y-65483000D02*
X112317000Y-65483000D01*
X112317000Y-65483000D02*
X114300000Y-63500000D01*
%TO.N,Net-(BZ1--)*%
X50165000Y-77470000D02*
X50165000Y-77695000D01*
X47244000Y-78740000D02*
X38755000Y-70251000D01*
X38755000Y-70251000D02*
X38755000Y-66675000D01*
X50165000Y-77695000D02*
X49120000Y-78740000D01*
X49120000Y-78740000D02*
X47244000Y-78740000D01*
%TO.N,Net-(Q7-B)*%
X48895000Y-77470000D02*
X48895000Y-74930000D01*
X48895000Y-74930000D02*
X52070000Y-71755000D01*
%TO.N,+5V*%
X48768000Y-51308000D02*
X49022000Y-51308000D01*
X49022000Y-51308000D02*
X53848000Y-51308000D01*
X47625000Y-77470000D02*
X47625000Y-52705000D01*
X47625000Y-52705000D02*
X49022000Y-51308000D01*
%TO.N,Net-(BZ1--)*%
X36195000Y-53070000D02*
X36560000Y-53070000D01*
X36560000Y-53070000D02*
X40640000Y-57150000D01*
X38755000Y-66675000D02*
X38755000Y-59035000D01*
X38755000Y-59035000D02*
X40640000Y-57150000D01*
X40640000Y-57150000D02*
X39116000Y-58674000D01*
%TO.N,+5V*%
X46355000Y-48895000D02*
X48768000Y-51308000D01*
X42545000Y-42565000D02*
X38100000Y-38120000D01*
X38100000Y-38120000D02*
X38100000Y-37190000D01*
X46355000Y-48895000D02*
X46355000Y-46375000D01*
X46355000Y-46375000D02*
X42545000Y-42565000D01*
%TO.N,Net-(Q5-B)*%
X69342000Y-64008000D02*
X70367000Y-65033000D01*
X70367000Y-65033000D02*
X74027000Y-65033000D01*
X74027000Y-65033000D02*
X90038000Y-49022000D01*
X90038000Y-49022000D02*
X91038000Y-49022000D01*
%TO.N,Net-(Q6-B)*%
X83434000Y-49530000D02*
X84434000Y-49530000D01*
X72136000Y-60828000D02*
X83434000Y-49530000D01*
X72136000Y-64008000D02*
X72136000Y-60828000D01*
%TO.N,Net-(Q4-B)*%
X67056000Y-64008000D02*
X77785000Y-53279000D01*
X77785000Y-53279000D02*
X77785000Y-49605000D01*
X77785000Y-49605000D02*
X77710000Y-49530000D01*
X77710000Y-49530000D02*
X76710000Y-49530000D01*
%TO.N,Net-(Q3-B)*%
X62992000Y-64008000D02*
X68015000Y-58985000D01*
X68015000Y-58985000D02*
X68015000Y-49950000D01*
X68015000Y-49950000D02*
X68435000Y-49530000D01*
X68435000Y-49530000D02*
X69090000Y-49530000D01*
%TO.N,Net-(Q1-B)*%
X57912000Y-64008000D02*
X57912000Y-53447000D01*
X57912000Y-53447000D02*
X54503000Y-50038000D01*
X54503000Y-50038000D02*
X53848000Y-50038000D01*
%TO.N,Net-(Q2-B)*%
X61468000Y-49784000D02*
X62123000Y-49784000D01*
X62123000Y-49784000D02*
X62738000Y-50399000D01*
X62738000Y-50399000D02*
X62738000Y-61722000D01*
X62738000Y-61722000D02*
X60452000Y-64008000D01*
%TO.N,Net-(Q2-C)*%
X53340000Y-28459500D02*
X56955000Y-32074500D01*
X56955000Y-32074500D02*
X56955000Y-44001000D01*
X56955000Y-44001000D02*
X61468000Y-48514000D01*
%TO.N,Net-(Q4-C)*%
X78740000Y-28459500D02*
X76710000Y-30489500D01*
X76710000Y-30489500D02*
X76710000Y-48260000D01*
%TO.N,Net-(DS1-Pad7)*%
X86360000Y-28459500D02*
X84385998Y-26485498D01*
%TO.N,Net-(DS1-Pad8)*%
X83820000Y-28459500D02*
X82295499Y-26934999D01*
%TO.N,Net-(DS1-Pad7)*%
X62035000Y-29534500D02*
X60960000Y-28459500D01*
X63945280Y-29534500D02*
X62035000Y-29534500D01*
%TO.N,Net-(DS1-Pad6)*%
X65923503Y-26035997D02*
X86476497Y-26035997D01*
X63500000Y-28459500D02*
X65923503Y-26035997D01*
X86476497Y-26035997D02*
X88900000Y-28459500D01*
%TO.N,Net-(DS1-Pad8)*%
X64131676Y-29984500D02*
X59945000Y-29984500D01*
%TO.N,Net-(DS1-Pad9)*%
X67368072Y-27384500D02*
X64318072Y-30434500D01*
%TO.N,Net-(DS1-Pad8)*%
X67181177Y-26934999D02*
X64131676Y-29984500D01*
%TO.N,Net-(DS1-Pad9)*%
X57855000Y-30434500D02*
X55880000Y-28459500D01*
%TO.N,Net-(DS1-Pad8)*%
X82295499Y-26934999D02*
X67181177Y-26934999D01*
X59945000Y-29984500D02*
X58420000Y-28459500D01*
%TO.N,Net-(DS1-Pad7)*%
X84385998Y-26485498D02*
X66994282Y-26485498D01*
X66994282Y-26485498D02*
X63945280Y-29534500D01*
%TO.N,Net-(DS1-Pad9)*%
X81280000Y-28459500D02*
X80205000Y-27384500D01*
X64318072Y-30434500D02*
X57855000Y-30434500D01*
X80205000Y-27384500D02*
X67368072Y-27384500D01*
%TO.N,Net-(D1-A)*%
X71374000Y-32004000D02*
X71374000Y-37084000D01*
%TO.N,Net-(D3-A)*%
X96520000Y-31750000D02*
X96520000Y-36835000D01*
%TO.N,Net-(DS1-Pad1)*%
X102870000Y-38365500D02*
X102649500Y-38145000D01*
X78740000Y-38619500D02*
X78524500Y-38404000D01*
X107696000Y-46990000D02*
X102870000Y-42164000D01*
X102870000Y-42164000D02*
X102870000Y-38365500D01*
%TO.N,Net-(DS1-Pad9)*%
X116840000Y-46990000D02*
X116840000Y-32256620D01*
X111955000Y-28150220D02*
X110485779Y-26680999D01*
%TO.N,Net-(DS1-Pad6)*%
X111055499Y-26230999D02*
X91128501Y-26230999D01*
%TO.N,Net-(DS1-Pad9)*%
X110485779Y-26680999D02*
X106934501Y-26680999D01*
X113910378Y-29326998D02*
X112386378Y-29326998D01*
X111955000Y-28895620D02*
X111955000Y-28150220D01*
%TO.N,Net-(DS1-Pad6)*%
X91128501Y-26230999D02*
X88900000Y-28459500D01*
%TO.N,Net-(DS1-Pad9)*%
X106934501Y-26680999D02*
X105410000Y-28205500D01*
%TO.N,Net-(DS1-Pad6)*%
X109982000Y-46990000D02*
X104335000Y-41343000D01*
%TO.N,Net-(DS1-Pad9)*%
X116840000Y-32256620D02*
X113910378Y-29326998D01*
%TO.N,Net-(DS1-Pad8)*%
X113724189Y-29776499D02*
X109520999Y-29776499D01*
X114554000Y-30606310D02*
X113724189Y-29776499D01*
X114554000Y-46990000D02*
X114554000Y-30606310D01*
%TO.N,Net-(DS1-Pad6)*%
X104335000Y-27760220D02*
X105864221Y-26230999D01*
X105864221Y-26230999D02*
X111055499Y-26230999D01*
%TO.N,Net-(DS1-Pad8)*%
X109520999Y-29776499D02*
X107950000Y-28205500D01*
%TO.N,Net-(DS1-Pad9)*%
X112386378Y-29326998D02*
X111955000Y-28895620D01*
%TO.N,Net-(DS1-Pad6)*%
X104335000Y-41343000D02*
X104335000Y-27760220D01*
X113030000Y-28205500D02*
X111055499Y-26230999D01*
%TO.N,Net-(DS1-Pad7)*%
X106875000Y-27760220D02*
X107504720Y-27130500D01*
X112268000Y-46990000D02*
X106875000Y-41597000D01*
X106875000Y-41597000D02*
X106875000Y-27760220D01*
X107504720Y-27130500D02*
X109415000Y-27130500D01*
X109415000Y-27130500D02*
X110490000Y-28205500D01*
%TD*%
%TA.AperFunction,Conductor*%
%TO.N,GND*%
G36*
X81406436Y-74549584D02*
G01*
X81452187Y-74600962D01*
X81463510Y-74668820D01*
X81436921Y-74732270D01*
X81380603Y-74771781D01*
X81240239Y-74819967D01*
X81230885Y-74824070D01*
X81021276Y-74937504D01*
X81012717Y-74943096D01*
X80983854Y-74965560D01*
X80975748Y-74976749D01*
X80982408Y-74988855D01*
X81828457Y-75834904D01*
X81840000Y-75841568D01*
X81851542Y-75834904D01*
X82697590Y-74988855D01*
X82704250Y-74976749D01*
X82696143Y-74965559D01*
X82667286Y-74943099D01*
X82658719Y-74937503D01*
X82449114Y-74824070D01*
X82439760Y-74819967D01*
X82299397Y-74771781D01*
X82243079Y-74732270D01*
X82216490Y-74668820D01*
X82227813Y-74600962D01*
X82273564Y-74549584D01*
X82339660Y-74530500D01*
X87838798Y-74530500D01*
X87904894Y-74549584D01*
X87950645Y-74600962D01*
X87961968Y-74668820D01*
X87935379Y-74732270D01*
X87879061Y-74771781D01*
X87740037Y-74819507D01*
X87740026Y-74819511D01*
X87735190Y-74821172D01*
X87730693Y-74823605D01*
X87730683Y-74823610D01*
X87521002Y-74937084D01*
X87520995Y-74937088D01*
X87516491Y-74939526D01*
X87512448Y-74942672D01*
X87512440Y-74942678D01*
X87389500Y-75038367D01*
X87320256Y-75092262D01*
X87316793Y-75096023D01*
X87316784Y-75096032D01*
X87155311Y-75271439D01*
X87155305Y-75271446D01*
X87151836Y-75275215D01*
X87149031Y-75279506D01*
X87149028Y-75279512D01*
X87018631Y-75479099D01*
X87018624Y-75479111D01*
X87015827Y-75483393D01*
X87013772Y-75488077D01*
X87013766Y-75488089D01*
X86917997Y-75706422D01*
X86915937Y-75711119D01*
X86914679Y-75716084D01*
X86914678Y-75716089D01*
X86856151Y-75947204D01*
X86856149Y-75947213D01*
X86854892Y-75952179D01*
X86854468Y-75957288D01*
X86854467Y-75957298D01*
X86835313Y-76188457D01*
X86834357Y-76200000D01*
X86834781Y-76205117D01*
X86854467Y-76442701D01*
X86854468Y-76442709D01*
X86854892Y-76447821D01*
X86856149Y-76452788D01*
X86856151Y-76452795D01*
X86911790Y-76672506D01*
X86915937Y-76688881D01*
X86925430Y-76710522D01*
X87013766Y-76911910D01*
X87013769Y-76911916D01*
X87015827Y-76916607D01*
X87018627Y-76920893D01*
X87018631Y-76920900D01*
X87119365Y-77075085D01*
X87151836Y-77124785D01*
X87155310Y-77128559D01*
X87155311Y-77128560D01*
X87286912Y-77271517D01*
X87314815Y-77321102D01*
X87317637Y-77377929D01*
X87294781Y-77430034D01*
X87251061Y-77466446D01*
X87195682Y-77479500D01*
X82808505Y-77479500D01*
X82745400Y-77462242D01*
X82699861Y-77415270D01*
X82697591Y-77411144D01*
X81851542Y-76565095D01*
X81839999Y-76558431D01*
X81828457Y-76565095D01*
X80982409Y-77411142D01*
X80980141Y-77415266D01*
X80934602Y-77462240D01*
X80871495Y-77479500D01*
X78688285Y-77479500D01*
X78631990Y-77465985D01*
X78587967Y-77428386D01*
X78565812Y-77374898D01*
X78570354Y-77317182D01*
X78600602Y-77267820D01*
X78873316Y-76995105D01*
X78881481Y-76987676D01*
X78887877Y-76983619D01*
X78933933Y-76934573D01*
X78936550Y-76931871D01*
X78956120Y-76912303D01*
X78958565Y-76909149D01*
X78966155Y-76900261D01*
X78996062Y-76868415D01*
X79005709Y-76850865D01*
X79016393Y-76834599D01*
X79028674Y-76818769D01*
X79046018Y-76778684D01*
X79051160Y-76768189D01*
X79072197Y-76729925D01*
X79077179Y-76710522D01*
X79083480Y-76692116D01*
X79091438Y-76673728D01*
X79098269Y-76630589D01*
X79100639Y-76619148D01*
X79109560Y-76584407D01*
X79109559Y-76584407D01*
X79111500Y-76576852D01*
X79111500Y-76556816D01*
X79113025Y-76537430D01*
X79116160Y-76517637D01*
X79112050Y-76474157D01*
X79111500Y-76462488D01*
X79111500Y-76205117D01*
X80335283Y-76205117D01*
X80354962Y-76442618D01*
X80356646Y-76452712D01*
X80415153Y-76683747D01*
X80418472Y-76693414D01*
X80514208Y-76911673D01*
X80519070Y-76920656D01*
X80608999Y-77058304D01*
X80616963Y-77066024D01*
X80626345Y-77060100D01*
X81474904Y-76211542D01*
X81481568Y-76200000D01*
X82198431Y-76200000D01*
X82205095Y-76211542D01*
X83053653Y-77060100D01*
X83063034Y-77066024D01*
X83071002Y-77058299D01*
X83160924Y-76920664D01*
X83165792Y-76911669D01*
X83261527Y-76693414D01*
X83264846Y-76683747D01*
X83323353Y-76452712D01*
X83325037Y-76442618D01*
X83344717Y-76205117D01*
X83344717Y-76194883D01*
X83325037Y-75957381D01*
X83323353Y-75947287D01*
X83264846Y-75716252D01*
X83261527Y-75706585D01*
X83165792Y-75488330D01*
X83160924Y-75479335D01*
X83071002Y-75341699D01*
X83063034Y-75333974D01*
X83053653Y-75339898D01*
X82205095Y-76188457D01*
X82198431Y-76200000D01*
X81481568Y-76200000D01*
X81474904Y-76188457D01*
X80626345Y-75339898D01*
X80616964Y-75333974D01*
X80608997Y-75341699D01*
X80519072Y-75479338D01*
X80514207Y-75488328D01*
X80418472Y-75706585D01*
X80415153Y-75716252D01*
X80356646Y-75947287D01*
X80354962Y-75957381D01*
X80335283Y-76194883D01*
X80335283Y-76205117D01*
X79111500Y-76205117D01*
X79111500Y-74654500D01*
X79128113Y-74592500D01*
X79173500Y-74547113D01*
X79235500Y-74530500D01*
X81340340Y-74530500D01*
X81406436Y-74549584D01*
G37*
%TD.AperFunction*%
%TA.AperFunction,Conductor*%
G36*
X122019500Y-23477113D02*
G01*
X122064887Y-23522500D01*
X122081500Y-23584500D01*
X122081500Y-85381500D01*
X122064887Y-85443500D01*
X122019500Y-85488887D01*
X121957500Y-85505500D01*
X30950500Y-85505500D01*
X30888500Y-85488887D01*
X30843113Y-85443500D01*
X30826500Y-85381500D01*
X30826500Y-83312000D01*
X31664341Y-83312000D01*
X31684937Y-83547408D01*
X31686336Y-83552630D01*
X31686337Y-83552634D01*
X31744694Y-83770430D01*
X31744697Y-83770438D01*
X31746097Y-83775663D01*
X31845965Y-83989829D01*
X31981505Y-84183401D01*
X32148599Y-84350495D01*
X32342171Y-84486035D01*
X32556337Y-84585903D01*
X32784592Y-84647063D01*
X32961034Y-84662500D01*
X33076258Y-84662500D01*
X33078966Y-84662500D01*
X33255408Y-84647063D01*
X33483663Y-84585903D01*
X33697829Y-84486035D01*
X33891401Y-84350495D01*
X34058495Y-84183401D01*
X34194035Y-83989830D01*
X34293903Y-83775663D01*
X34355063Y-83547408D01*
X34375659Y-83312000D01*
X118532341Y-83312000D01*
X118552937Y-83547408D01*
X118554336Y-83552630D01*
X118554337Y-83552634D01*
X118612694Y-83770430D01*
X118612697Y-83770438D01*
X118614097Y-83775663D01*
X118713965Y-83989829D01*
X118849505Y-84183401D01*
X119016599Y-84350495D01*
X119210171Y-84486035D01*
X119424337Y-84585903D01*
X119652592Y-84647063D01*
X119829034Y-84662500D01*
X119944258Y-84662500D01*
X119946966Y-84662500D01*
X120123408Y-84647063D01*
X120351663Y-84585903D01*
X120565829Y-84486035D01*
X120759401Y-84350495D01*
X120926495Y-84183401D01*
X121062035Y-83989830D01*
X121161903Y-83775663D01*
X121223063Y-83547408D01*
X121243659Y-83312000D01*
X121223063Y-83076592D01*
X121161903Y-82848337D01*
X121062035Y-82634171D01*
X120926495Y-82440599D01*
X120759401Y-82273505D01*
X120596686Y-82159571D01*
X120570268Y-82141073D01*
X120570266Y-82141072D01*
X120565829Y-82137965D01*
X120456271Y-82086877D01*
X120356572Y-82040386D01*
X120356570Y-82040385D01*
X120351663Y-82038097D01*
X120346438Y-82036697D01*
X120346430Y-82036694D01*
X120128634Y-81978337D01*
X120128630Y-81978336D01*
X120123408Y-81976937D01*
X120118020Y-81976465D01*
X120118017Y-81976465D01*
X119949664Y-81961736D01*
X119949662Y-81961735D01*
X119946966Y-81961500D01*
X119829034Y-81961500D01*
X119826338Y-81961735D01*
X119826335Y-81961736D01*
X119657982Y-81976465D01*
X119657977Y-81976465D01*
X119652592Y-81976937D01*
X119647371Y-81978335D01*
X119647365Y-81978337D01*
X119429569Y-82036694D01*
X119429557Y-82036698D01*
X119424337Y-82038097D01*
X119419432Y-82040383D01*
X119419427Y-82040386D01*
X119215081Y-82135675D01*
X119215077Y-82135677D01*
X119210171Y-82137965D01*
X119205738Y-82141068D01*
X119205731Y-82141073D01*
X119021034Y-82270399D01*
X119021029Y-82270402D01*
X119016599Y-82273505D01*
X119012775Y-82277328D01*
X119012769Y-82277334D01*
X118853336Y-82436767D01*
X118853330Y-82436773D01*
X118849505Y-82440599D01*
X118846406Y-82445023D01*
X118846399Y-82445033D01*
X118717066Y-82629740D01*
X118717061Y-82629747D01*
X118713965Y-82634170D01*
X118711683Y-82639061D01*
X118711678Y-82639072D01*
X118616386Y-82843427D01*
X118616383Y-82843432D01*
X118614097Y-82848337D01*
X118612698Y-82853557D01*
X118612694Y-82853569D01*
X118554337Y-83071365D01*
X118554335Y-83071371D01*
X118552937Y-83076592D01*
X118532341Y-83312000D01*
X34375659Y-83312000D01*
X34355063Y-83076592D01*
X34293903Y-82848337D01*
X34194035Y-82634171D01*
X34058495Y-82440599D01*
X33891401Y-82273505D01*
X33728686Y-82159571D01*
X33702268Y-82141073D01*
X33702266Y-82141072D01*
X33697829Y-82137965D01*
X33588271Y-82086877D01*
X33488572Y-82040386D01*
X33488570Y-82040385D01*
X33483663Y-82038097D01*
X33478438Y-82036697D01*
X33478430Y-82036694D01*
X33260634Y-81978337D01*
X33260630Y-81978336D01*
X33255408Y-81976937D01*
X33250020Y-81976465D01*
X33250017Y-81976465D01*
X33081664Y-81961736D01*
X33081662Y-81961735D01*
X33078966Y-81961500D01*
X32961034Y-81961500D01*
X32958338Y-81961735D01*
X32958335Y-81961736D01*
X32789982Y-81976465D01*
X32789977Y-81976465D01*
X32784592Y-81976937D01*
X32779371Y-81978335D01*
X32779365Y-81978337D01*
X32561569Y-82036694D01*
X32561557Y-82036698D01*
X32556337Y-82038097D01*
X32551432Y-82040383D01*
X32551427Y-82040386D01*
X32347081Y-82135675D01*
X32347077Y-82135677D01*
X32342171Y-82137965D01*
X32337738Y-82141068D01*
X32337731Y-82141073D01*
X32153034Y-82270399D01*
X32153029Y-82270402D01*
X32148599Y-82273505D01*
X32144775Y-82277328D01*
X32144769Y-82277334D01*
X31985336Y-82436767D01*
X31985330Y-82436773D01*
X31981505Y-82440599D01*
X31978406Y-82445023D01*
X31978399Y-82445033D01*
X31849066Y-82629740D01*
X31849061Y-82629747D01*
X31845965Y-82634170D01*
X31843683Y-82639061D01*
X31843678Y-82639072D01*
X31748386Y-82843427D01*
X31748383Y-82843432D01*
X31746097Y-82848337D01*
X31744698Y-82853557D01*
X31744694Y-82853569D01*
X31686337Y-83071365D01*
X31686335Y-83071371D01*
X31684937Y-83076592D01*
X31664341Y-83312000D01*
X30826500Y-83312000D01*
X30826500Y-80700000D01*
X57399357Y-80700000D01*
X57399781Y-80705117D01*
X57419467Y-80942701D01*
X57419468Y-80942709D01*
X57419892Y-80947821D01*
X57421149Y-80952788D01*
X57421151Y-80952795D01*
X57448812Y-81062023D01*
X57480937Y-81188881D01*
X57482997Y-81193577D01*
X57578766Y-81411910D01*
X57578769Y-81411916D01*
X57580827Y-81416607D01*
X57583627Y-81420893D01*
X57583631Y-81420900D01*
X57711675Y-81616885D01*
X57716836Y-81624785D01*
X57720310Y-81628559D01*
X57720311Y-81628560D01*
X57881784Y-81803967D01*
X57881787Y-81803970D01*
X57885256Y-81807738D01*
X58081491Y-81960474D01*
X58300190Y-82078828D01*
X58535386Y-82159571D01*
X58780665Y-82200500D01*
X59024201Y-82200500D01*
X59029335Y-82200500D01*
X59274614Y-82159571D01*
X59509810Y-82078828D01*
X59728509Y-81960474D01*
X59924744Y-81807738D01*
X60093164Y-81624785D01*
X60229173Y-81416607D01*
X60329063Y-81188881D01*
X60390108Y-80947821D01*
X60410643Y-80700000D01*
X63899357Y-80700000D01*
X63899781Y-80705117D01*
X63919467Y-80942701D01*
X63919468Y-80942709D01*
X63919892Y-80947821D01*
X63921149Y-80952788D01*
X63921151Y-80952795D01*
X63948812Y-81062023D01*
X63980937Y-81188881D01*
X63982997Y-81193577D01*
X64078766Y-81411910D01*
X64078769Y-81411916D01*
X64080827Y-81416607D01*
X64083627Y-81420893D01*
X64083631Y-81420900D01*
X64211675Y-81616885D01*
X64216836Y-81624785D01*
X64220310Y-81628559D01*
X64220311Y-81628560D01*
X64381784Y-81803967D01*
X64381787Y-81803970D01*
X64385256Y-81807738D01*
X64581491Y-81960474D01*
X64800190Y-82078828D01*
X65035386Y-82159571D01*
X65280665Y-82200500D01*
X65524201Y-82200500D01*
X65529335Y-82200500D01*
X65774614Y-82159571D01*
X66009810Y-82078828D01*
X66228509Y-81960474D01*
X66424744Y-81807738D01*
X66593164Y-81624785D01*
X66729173Y-81416607D01*
X66829063Y-81188881D01*
X66890108Y-80947821D01*
X66910643Y-80700000D01*
X68904357Y-80700000D01*
X68904781Y-80705117D01*
X68924467Y-80942701D01*
X68924468Y-80942709D01*
X68924892Y-80947821D01*
X68926149Y-80952788D01*
X68926151Y-80952795D01*
X68953812Y-81062023D01*
X68985937Y-81188881D01*
X68987997Y-81193577D01*
X69083766Y-81411910D01*
X69083769Y-81411916D01*
X69085827Y-81416607D01*
X69088627Y-81420893D01*
X69088631Y-81420900D01*
X69216675Y-81616885D01*
X69221836Y-81624785D01*
X69225310Y-81628559D01*
X69225311Y-81628560D01*
X69386784Y-81803967D01*
X69386787Y-81803970D01*
X69390256Y-81807738D01*
X69586491Y-81960474D01*
X69805190Y-82078828D01*
X70040386Y-82159571D01*
X70285665Y-82200500D01*
X70529201Y-82200500D01*
X70534335Y-82200500D01*
X70779614Y-82159571D01*
X71014810Y-82078828D01*
X71233509Y-81960474D01*
X71429744Y-81807738D01*
X71598164Y-81624785D01*
X71734173Y-81416607D01*
X71834063Y-81188881D01*
X71895108Y-80947821D01*
X71915643Y-80700000D01*
X75404357Y-80700000D01*
X75404781Y-80705117D01*
X75424467Y-80942701D01*
X75424468Y-80942709D01*
X75424892Y-80947821D01*
X75426149Y-80952788D01*
X75426151Y-80952795D01*
X75453812Y-81062023D01*
X75485937Y-81188881D01*
X75487997Y-81193577D01*
X75583766Y-81411910D01*
X75583769Y-81411916D01*
X75585827Y-81416607D01*
X75588627Y-81420893D01*
X75588631Y-81420900D01*
X75716675Y-81616885D01*
X75721836Y-81624785D01*
X75725310Y-81628559D01*
X75725311Y-81628560D01*
X75886784Y-81803967D01*
X75886787Y-81803970D01*
X75890256Y-81807738D01*
X76086491Y-81960474D01*
X76305190Y-82078828D01*
X76540386Y-82159571D01*
X76785665Y-82200500D01*
X77029201Y-82200500D01*
X77034335Y-82200500D01*
X77279614Y-82159571D01*
X77514810Y-82078828D01*
X77733509Y-81960474D01*
X77929744Y-81807738D01*
X78098164Y-81624785D01*
X78234173Y-81416607D01*
X78334063Y-81188881D01*
X78395108Y-80947821D01*
X78415643Y-80700000D01*
X80334357Y-80700000D01*
X80334781Y-80705117D01*
X80354467Y-80942701D01*
X80354468Y-80942709D01*
X80354892Y-80947821D01*
X80356149Y-80952788D01*
X80356151Y-80952795D01*
X80383812Y-81062023D01*
X80415937Y-81188881D01*
X80417997Y-81193577D01*
X80513766Y-81411910D01*
X80513769Y-81411916D01*
X80515827Y-81416607D01*
X80518627Y-81420893D01*
X80518631Y-81420900D01*
X80646675Y-81616885D01*
X80651836Y-81624785D01*
X80655310Y-81628559D01*
X80655311Y-81628560D01*
X80816784Y-81803967D01*
X80816787Y-81803970D01*
X80820256Y-81807738D01*
X81016491Y-81960474D01*
X81235190Y-82078828D01*
X81470386Y-82159571D01*
X81715665Y-82200500D01*
X81959201Y-82200500D01*
X81964335Y-82200500D01*
X82209614Y-82159571D01*
X82444810Y-82078828D01*
X82663509Y-81960474D01*
X82859744Y-81807738D01*
X83028164Y-81624785D01*
X83164173Y-81416607D01*
X83264063Y-81188881D01*
X83325108Y-80947821D01*
X83345643Y-80700000D01*
X86834357Y-80700000D01*
X86834781Y-80705117D01*
X86854467Y-80942701D01*
X86854468Y-80942709D01*
X86854892Y-80947821D01*
X86856149Y-80952788D01*
X86856151Y-80952795D01*
X86883812Y-81062023D01*
X86915937Y-81188881D01*
X86917997Y-81193577D01*
X87013766Y-81411910D01*
X87013769Y-81411916D01*
X87015827Y-81416607D01*
X87018627Y-81420893D01*
X87018631Y-81420900D01*
X87146675Y-81616885D01*
X87151836Y-81624785D01*
X87155310Y-81628559D01*
X87155311Y-81628560D01*
X87316784Y-81803967D01*
X87316787Y-81803970D01*
X87320256Y-81807738D01*
X87516491Y-81960474D01*
X87735190Y-82078828D01*
X87970386Y-82159571D01*
X88215665Y-82200500D01*
X88459201Y-82200500D01*
X88464335Y-82200500D01*
X88709614Y-82159571D01*
X88944810Y-82078828D01*
X89163509Y-81960474D01*
X89359744Y-81807738D01*
X89528164Y-81624785D01*
X89664173Y-81416607D01*
X89741640Y-81240000D01*
X98389532Y-81240000D01*
X98390004Y-81245395D01*
X98405358Y-81420900D01*
X98409365Y-81466692D01*
X98410762Y-81471907D01*
X98410764Y-81471916D01*
X98466858Y-81681263D01*
X98466861Y-81681271D01*
X98468261Y-81686496D01*
X98564432Y-81892734D01*
X98567539Y-81897171D01*
X98567540Y-81897173D01*
X98623391Y-81976937D01*
X98694953Y-82079139D01*
X98855861Y-82240047D01*
X99042266Y-82370568D01*
X99248504Y-82466739D01*
X99253734Y-82468140D01*
X99253736Y-82468141D01*
X99463083Y-82524235D01*
X99468308Y-82525635D01*
X99695000Y-82545468D01*
X99921692Y-82525635D01*
X100141496Y-82466739D01*
X100347734Y-82370568D01*
X100534139Y-82240047D01*
X100695047Y-82079139D01*
X100807612Y-81918377D01*
X100851931Y-81879511D01*
X100909188Y-81865500D01*
X103773841Y-81865500D01*
X103831098Y-81879511D01*
X103875416Y-81918376D01*
X103990296Y-82082442D01*
X103990299Y-82082446D01*
X103993402Y-82086877D01*
X104148123Y-82241598D01*
X104327361Y-82367102D01*
X104332261Y-82369387D01*
X104332263Y-82369388D01*
X104494486Y-82445034D01*
X104525670Y-82459575D01*
X104632280Y-82488141D01*
X104731790Y-82514805D01*
X104731791Y-82514805D01*
X104737023Y-82516207D01*
X104955000Y-82535277D01*
X105172977Y-82516207D01*
X105384330Y-82459575D01*
X105582639Y-82367102D01*
X105761877Y-82241598D01*
X105916598Y-82086877D01*
X106042102Y-81907639D01*
X106134575Y-81709330D01*
X106191207Y-81497977D01*
X106210277Y-81280000D01*
X106191207Y-81062023D01*
X106134575Y-80850670D01*
X106042102Y-80652362D01*
X105916598Y-80473123D01*
X105761877Y-80318402D01*
X105757446Y-80315299D01*
X105757442Y-80315296D01*
X105587068Y-80195999D01*
X105587066Y-80195997D01*
X105582639Y-80192898D01*
X105577742Y-80190614D01*
X105577736Y-80190611D01*
X105389236Y-80102712D01*
X105389229Y-80102709D01*
X105384330Y-80100425D01*
X105379103Y-80099024D01*
X105379102Y-80099024D01*
X105178209Y-80045194D01*
X105178199Y-80045192D01*
X105172977Y-80043793D01*
X105167585Y-80043321D01*
X105167578Y-80043320D01*
X104960395Y-80025195D01*
X104955000Y-80024723D01*
X104949605Y-80025195D01*
X104742421Y-80043320D01*
X104742412Y-80043321D01*
X104737023Y-80043793D01*
X104731802Y-80045191D01*
X104731790Y-80045194D01*
X104530897Y-80099024D01*
X104530892Y-80099025D01*
X104525670Y-80100425D01*
X104520774Y-80102707D01*
X104520763Y-80102712D01*
X104332272Y-80190608D01*
X104332268Y-80190610D01*
X104327362Y-80192898D01*
X104322929Y-80196001D01*
X104322922Y-80196006D01*
X104152558Y-80315296D01*
X104152553Y-80315299D01*
X104148123Y-80318402D01*
X104144299Y-80322225D01*
X104144293Y-80322231D01*
X103997231Y-80469293D01*
X103997225Y-80469299D01*
X103993402Y-80473123D01*
X103990299Y-80477553D01*
X103990296Y-80477558D01*
X103931434Y-80561623D01*
X103887116Y-80600489D01*
X103829859Y-80614500D01*
X100909188Y-80614500D01*
X100851931Y-80600489D01*
X100807613Y-80561623D01*
X100698152Y-80405296D01*
X100695047Y-80400861D01*
X100534139Y-80239953D01*
X100347734Y-80109432D01*
X100342827Y-80107143D01*
X100342817Y-80107138D01*
X100332023Y-80102105D01*
X100279847Y-80056347D01*
X100260429Y-79989721D01*
X100279850Y-79923096D01*
X100332028Y-79877340D01*
X100342578Y-79872420D01*
X100351920Y-79867026D01*
X100409348Y-79826814D01*
X100416780Y-79818703D01*
X100410867Y-79809421D01*
X99706542Y-79105095D01*
X99695000Y-79098431D01*
X99683457Y-79105095D01*
X98979128Y-79809424D01*
X98973217Y-79818703D01*
X98980650Y-79826814D01*
X99038077Y-79867025D01*
X99047422Y-79872420D01*
X99057974Y-79877341D01*
X99110149Y-79923097D01*
X99129570Y-79989721D01*
X99110153Y-80056346D01*
X99057979Y-80102104D01*
X99047180Y-80107140D01*
X99047175Y-80107142D01*
X99042266Y-80109432D01*
X99037833Y-80112535D01*
X99037826Y-80112540D01*
X98860296Y-80236847D01*
X98860291Y-80236850D01*
X98855861Y-80239953D01*
X98852037Y-80243776D01*
X98852031Y-80243782D01*
X98698782Y-80397031D01*
X98698776Y-80397037D01*
X98694953Y-80400861D01*
X98691850Y-80405291D01*
X98691847Y-80405296D01*
X98567540Y-80582826D01*
X98567535Y-80582833D01*
X98564432Y-80587266D01*
X98562144Y-80592172D01*
X98562142Y-80592176D01*
X98470550Y-80788594D01*
X98470547Y-80788599D01*
X98468261Y-80793504D01*
X98466862Y-80798724D01*
X98466858Y-80798736D01*
X98410764Y-81008083D01*
X98410762Y-81008094D01*
X98409365Y-81013308D01*
X98408893Y-81018693D01*
X98408893Y-81018698D01*
X98394439Y-81183910D01*
X98389532Y-81240000D01*
X89741640Y-81240000D01*
X89764063Y-81188881D01*
X89825108Y-80947821D01*
X89845643Y-80700000D01*
X89825108Y-80452179D01*
X89764063Y-80211119D01*
X89664173Y-79983393D01*
X89645317Y-79954532D01*
X89530971Y-79779512D01*
X89528164Y-79775215D01*
X89359744Y-79592262D01*
X89184504Y-79455867D01*
X89167559Y-79442678D01*
X89167557Y-79442676D01*
X89163509Y-79439526D01*
X89158997Y-79437084D01*
X88949316Y-79323610D01*
X88949310Y-79323607D01*
X88944810Y-79321172D01*
X88939969Y-79319510D01*
X88939962Y-79319507D01*
X88714465Y-79242094D01*
X88714461Y-79242093D01*
X88709614Y-79240429D01*
X88696076Y-79238170D01*
X88469398Y-79200344D01*
X88469387Y-79200343D01*
X88464335Y-79199500D01*
X88215665Y-79199500D01*
X88210613Y-79200343D01*
X88210601Y-79200344D01*
X87975443Y-79239585D01*
X87975441Y-79239585D01*
X87970386Y-79240429D01*
X87965541Y-79242092D01*
X87965534Y-79242094D01*
X87740037Y-79319507D01*
X87740026Y-79319511D01*
X87735190Y-79321172D01*
X87730693Y-79323605D01*
X87730683Y-79323610D01*
X87521002Y-79437084D01*
X87520995Y-79437088D01*
X87516491Y-79439526D01*
X87512448Y-79442672D01*
X87512440Y-79442678D01*
X87324304Y-79589111D01*
X87320256Y-79592262D01*
X87316793Y-79596023D01*
X87316784Y-79596032D01*
X87155311Y-79771439D01*
X87155305Y-79771446D01*
X87151836Y-79775215D01*
X87149031Y-79779506D01*
X87149028Y-79779512D01*
X87018631Y-79979099D01*
X87018624Y-79979111D01*
X87015827Y-79983393D01*
X87013772Y-79988077D01*
X87013766Y-79988089D01*
X86923929Y-80192898D01*
X86915937Y-80211119D01*
X86914679Y-80216084D01*
X86914678Y-80216089D01*
X86856151Y-80447204D01*
X86856149Y-80447213D01*
X86854892Y-80452179D01*
X86854468Y-80457288D01*
X86854467Y-80457298D01*
X86834781Y-80694883D01*
X86834357Y-80700000D01*
X83345643Y-80700000D01*
X83325108Y-80452179D01*
X83264063Y-80211119D01*
X83164173Y-79983393D01*
X83145317Y-79954532D01*
X83030971Y-79779512D01*
X83028164Y-79775215D01*
X82859744Y-79592262D01*
X82684504Y-79455867D01*
X82667559Y-79442678D01*
X82667557Y-79442676D01*
X82663509Y-79439526D01*
X82658997Y-79437084D01*
X82449316Y-79323610D01*
X82449310Y-79323607D01*
X82444810Y-79321172D01*
X82439969Y-79319510D01*
X82439962Y-79319507D01*
X82214465Y-79242094D01*
X82214461Y-79242093D01*
X82209614Y-79240429D01*
X82196076Y-79238170D01*
X81969398Y-79200344D01*
X81969387Y-79200343D01*
X81964335Y-79199500D01*
X81715665Y-79199500D01*
X81710613Y-79200343D01*
X81710601Y-79200344D01*
X81475443Y-79239585D01*
X81475441Y-79239585D01*
X81470386Y-79240429D01*
X81465541Y-79242092D01*
X81465534Y-79242094D01*
X81240037Y-79319507D01*
X81240026Y-79319511D01*
X81235190Y-79321172D01*
X81230693Y-79323605D01*
X81230683Y-79323610D01*
X81021002Y-79437084D01*
X81020995Y-79437088D01*
X81016491Y-79439526D01*
X81012448Y-79442672D01*
X81012440Y-79442678D01*
X80824304Y-79589111D01*
X80820256Y-79592262D01*
X80816793Y-79596023D01*
X80816784Y-79596032D01*
X80655311Y-79771439D01*
X80655305Y-79771446D01*
X80651836Y-79775215D01*
X80649031Y-79779506D01*
X80649028Y-79779512D01*
X80518631Y-79979099D01*
X80518624Y-79979111D01*
X80515827Y-79983393D01*
X80513772Y-79988077D01*
X80513766Y-79988089D01*
X80423929Y-80192898D01*
X80415937Y-80211119D01*
X80414679Y-80216084D01*
X80414678Y-80216089D01*
X80356151Y-80447204D01*
X80356149Y-80447213D01*
X80354892Y-80452179D01*
X80354468Y-80457288D01*
X80354467Y-80457298D01*
X80334781Y-80694883D01*
X80334357Y-80700000D01*
X78415643Y-80700000D01*
X78395108Y-80452179D01*
X78334063Y-80211119D01*
X78234173Y-79983393D01*
X78215317Y-79954532D01*
X78100971Y-79779512D01*
X78098164Y-79775215D01*
X77929744Y-79592262D01*
X77754504Y-79455867D01*
X77737559Y-79442678D01*
X77737557Y-79442676D01*
X77733509Y-79439526D01*
X77728997Y-79437084D01*
X77519316Y-79323610D01*
X77519310Y-79323607D01*
X77514810Y-79321172D01*
X77509969Y-79319510D01*
X77509962Y-79319507D01*
X77284465Y-79242094D01*
X77284461Y-79242093D01*
X77279614Y-79240429D01*
X77266076Y-79238170D01*
X77039398Y-79200344D01*
X77039387Y-79200343D01*
X77034335Y-79199500D01*
X76785665Y-79199500D01*
X76780613Y-79200343D01*
X76780601Y-79200344D01*
X76545443Y-79239585D01*
X76545441Y-79239585D01*
X76540386Y-79240429D01*
X76535541Y-79242092D01*
X76535534Y-79242094D01*
X76310037Y-79319507D01*
X76310026Y-79319511D01*
X76305190Y-79321172D01*
X76300693Y-79323605D01*
X76300683Y-79323610D01*
X76091002Y-79437084D01*
X76090995Y-79437088D01*
X76086491Y-79439526D01*
X76082448Y-79442672D01*
X76082440Y-79442678D01*
X75894304Y-79589111D01*
X75890256Y-79592262D01*
X75886793Y-79596023D01*
X75886784Y-79596032D01*
X75725311Y-79771439D01*
X75725305Y-79771446D01*
X75721836Y-79775215D01*
X75719031Y-79779506D01*
X75719028Y-79779512D01*
X75588631Y-79979099D01*
X75588624Y-79979111D01*
X75585827Y-79983393D01*
X75583772Y-79988077D01*
X75583766Y-79988089D01*
X75493929Y-80192898D01*
X75485937Y-80211119D01*
X75484679Y-80216084D01*
X75484678Y-80216089D01*
X75426151Y-80447204D01*
X75426149Y-80447213D01*
X75424892Y-80452179D01*
X75424468Y-80457288D01*
X75424467Y-80457298D01*
X75404781Y-80694883D01*
X75404357Y-80700000D01*
X71915643Y-80700000D01*
X71895108Y-80452179D01*
X71834063Y-80211119D01*
X71734173Y-79983393D01*
X71715317Y-79954532D01*
X71600971Y-79779512D01*
X71598164Y-79775215D01*
X71429744Y-79592262D01*
X71254504Y-79455867D01*
X71237559Y-79442678D01*
X71237557Y-79442676D01*
X71233509Y-79439526D01*
X71228997Y-79437084D01*
X71019316Y-79323610D01*
X71019310Y-79323607D01*
X71014810Y-79321172D01*
X71009969Y-79319510D01*
X71009962Y-79319507D01*
X70784465Y-79242094D01*
X70784461Y-79242093D01*
X70779614Y-79240429D01*
X70766076Y-79238170D01*
X70539398Y-79200344D01*
X70539387Y-79200343D01*
X70534335Y-79199500D01*
X70285665Y-79199500D01*
X70280613Y-79200343D01*
X70280601Y-79200344D01*
X70045443Y-79239585D01*
X70045441Y-79239585D01*
X70040386Y-79240429D01*
X70035541Y-79242092D01*
X70035534Y-79242094D01*
X69810037Y-79319507D01*
X69810026Y-79319511D01*
X69805190Y-79321172D01*
X69800693Y-79323605D01*
X69800683Y-79323610D01*
X69591002Y-79437084D01*
X69590995Y-79437088D01*
X69586491Y-79439526D01*
X69582448Y-79442672D01*
X69582440Y-79442678D01*
X69394304Y-79589111D01*
X69390256Y-79592262D01*
X69386793Y-79596023D01*
X69386784Y-79596032D01*
X69225311Y-79771439D01*
X69225305Y-79771446D01*
X69221836Y-79775215D01*
X69219031Y-79779506D01*
X69219028Y-79779512D01*
X69088631Y-79979099D01*
X69088624Y-79979111D01*
X69085827Y-79983393D01*
X69083772Y-79988077D01*
X69083766Y-79988089D01*
X68993929Y-80192898D01*
X68985937Y-80211119D01*
X68984679Y-80216084D01*
X68984678Y-80216089D01*
X68926151Y-80447204D01*
X68926149Y-80447213D01*
X68924892Y-80452179D01*
X68924468Y-80457288D01*
X68924467Y-80457298D01*
X68904781Y-80694883D01*
X68904357Y-80700000D01*
X66910643Y-80700000D01*
X66890108Y-80452179D01*
X66829063Y-80211119D01*
X66729173Y-79983393D01*
X66710317Y-79954532D01*
X66595971Y-79779512D01*
X66593164Y-79775215D01*
X66424744Y-79592262D01*
X66249504Y-79455867D01*
X66232559Y-79442678D01*
X66232557Y-79442676D01*
X66228509Y-79439526D01*
X66223997Y-79437084D01*
X66014316Y-79323610D01*
X66014310Y-79323607D01*
X66009810Y-79321172D01*
X66004969Y-79319510D01*
X66004962Y-79319507D01*
X65779465Y-79242094D01*
X65779461Y-79242093D01*
X65774614Y-79240429D01*
X65761076Y-79238170D01*
X65534398Y-79200344D01*
X65534387Y-79200343D01*
X65529335Y-79199500D01*
X65280665Y-79199500D01*
X65275613Y-79200343D01*
X65275601Y-79200344D01*
X65040443Y-79239585D01*
X65040441Y-79239585D01*
X65035386Y-79240429D01*
X65030541Y-79242092D01*
X65030534Y-79242094D01*
X64805037Y-79319507D01*
X64805026Y-79319511D01*
X64800190Y-79321172D01*
X64795693Y-79323605D01*
X64795683Y-79323610D01*
X64586002Y-79437084D01*
X64585995Y-79437088D01*
X64581491Y-79439526D01*
X64577448Y-79442672D01*
X64577440Y-79442678D01*
X64389304Y-79589111D01*
X64385256Y-79592262D01*
X64381793Y-79596023D01*
X64381784Y-79596032D01*
X64220311Y-79771439D01*
X64220305Y-79771446D01*
X64216836Y-79775215D01*
X64214031Y-79779506D01*
X64214028Y-79779512D01*
X64083631Y-79979099D01*
X64083624Y-79979111D01*
X64080827Y-79983393D01*
X64078772Y-79988077D01*
X64078766Y-79988089D01*
X63988929Y-80192898D01*
X63980937Y-80211119D01*
X63979679Y-80216084D01*
X63979678Y-80216089D01*
X63921151Y-80447204D01*
X63921149Y-80447213D01*
X63919892Y-80452179D01*
X63919468Y-80457288D01*
X63919467Y-80457298D01*
X63899781Y-80694883D01*
X63899357Y-80700000D01*
X60410643Y-80700000D01*
X60390108Y-80452179D01*
X60329063Y-80211119D01*
X60229173Y-79983393D01*
X60210317Y-79954532D01*
X60095971Y-79779512D01*
X60093164Y-79775215D01*
X59924744Y-79592262D01*
X59749504Y-79455867D01*
X59732559Y-79442678D01*
X59732557Y-79442676D01*
X59728509Y-79439526D01*
X59723997Y-79437084D01*
X59514316Y-79323610D01*
X59514310Y-79323607D01*
X59509810Y-79321172D01*
X59504969Y-79319510D01*
X59504962Y-79319507D01*
X59279465Y-79242094D01*
X59279461Y-79242093D01*
X59274614Y-79240429D01*
X59261076Y-79238170D01*
X59034398Y-79200344D01*
X59034387Y-79200343D01*
X59029335Y-79199500D01*
X58780665Y-79199500D01*
X58775613Y-79200343D01*
X58775601Y-79200344D01*
X58540443Y-79239585D01*
X58540441Y-79239585D01*
X58535386Y-79240429D01*
X58530541Y-79242092D01*
X58530534Y-79242094D01*
X58305037Y-79319507D01*
X58305026Y-79319511D01*
X58300190Y-79321172D01*
X58295693Y-79323605D01*
X58295683Y-79323610D01*
X58086002Y-79437084D01*
X58085995Y-79437088D01*
X58081491Y-79439526D01*
X58077448Y-79442672D01*
X58077440Y-79442678D01*
X57889304Y-79589111D01*
X57885256Y-79592262D01*
X57881793Y-79596023D01*
X57881784Y-79596032D01*
X57720311Y-79771439D01*
X57720305Y-79771446D01*
X57716836Y-79775215D01*
X57714031Y-79779506D01*
X57714028Y-79779512D01*
X57583631Y-79979099D01*
X57583624Y-79979111D01*
X57580827Y-79983393D01*
X57578772Y-79988077D01*
X57578766Y-79988089D01*
X57488929Y-80192898D01*
X57480937Y-80211119D01*
X57479679Y-80216084D01*
X57479678Y-80216089D01*
X57421151Y-80447204D01*
X57421149Y-80447213D01*
X57419892Y-80452179D01*
X57419468Y-80457288D01*
X57419467Y-80457298D01*
X57399781Y-80694883D01*
X57399357Y-80700000D01*
X30826500Y-80700000D01*
X30826500Y-53539578D01*
X35269500Y-53539578D01*
X35269501Y-53542872D01*
X35269853Y-53546150D01*
X35269854Y-53546161D01*
X35275079Y-53594768D01*
X35275080Y-53594773D01*
X35275909Y-53602483D01*
X35278619Y-53609749D01*
X35278620Y-53609753D01*
X35296421Y-53657479D01*
X35326204Y-53737331D01*
X35331518Y-53744430D01*
X35331519Y-53744431D01*
X35374870Y-53802341D01*
X35412454Y-53852546D01*
X35527669Y-53938796D01*
X35662517Y-53989091D01*
X35722127Y-53995500D01*
X36549546Y-53995499D01*
X36596999Y-54004938D01*
X36637227Y-54031818D01*
X38031511Y-55426102D01*
X39421560Y-56816150D01*
X39452328Y-56867147D01*
X39455708Y-56925568D01*
X39454885Y-56928464D01*
X39454357Y-56934157D01*
X39454356Y-56934165D01*
X39434886Y-57144291D01*
X39434357Y-57150000D01*
X39434886Y-57155709D01*
X39454356Y-57365833D01*
X39454357Y-57365838D01*
X39454885Y-57371536D01*
X39455707Y-57374427D01*
X39452329Y-57432848D01*
X39421560Y-57483847D01*
X39260859Y-57644550D01*
X38367696Y-58537711D01*
X38359511Y-58545159D01*
X38353123Y-58549214D01*
X38347788Y-58554894D01*
X38347783Y-58554899D01*
X38307096Y-58598225D01*
X38304392Y-58601016D01*
X38287628Y-58617780D01*
X38287621Y-58617787D01*
X38284880Y-58620529D01*
X38282500Y-58623596D01*
X38282489Y-58623609D01*
X38282400Y-58623725D01*
X38274842Y-58632570D01*
X38250280Y-58658727D01*
X38250273Y-58658736D01*
X38244938Y-58664418D01*
X38241182Y-58671249D01*
X38241179Y-58671254D01*
X38235285Y-58681975D01*
X38224609Y-58698227D01*
X38217109Y-58707896D01*
X38217101Y-58707907D01*
X38212327Y-58714064D01*
X38209234Y-58721208D01*
X38209229Y-58721219D01*
X38194974Y-58754160D01*
X38189838Y-58764643D01*
X38175579Y-58790582D01*
X38168803Y-58802908D01*
X38166864Y-58810456D01*
X38166863Y-58810461D01*
X38163822Y-58822307D01*
X38157521Y-58840711D01*
X38152658Y-58851948D01*
X38152656Y-58851952D01*
X38149562Y-58859104D01*
X38148342Y-58866803D01*
X38148342Y-58866805D01*
X38142729Y-58902241D01*
X38140361Y-58913676D01*
X38131438Y-58948428D01*
X38131436Y-58948436D01*
X38129500Y-58955981D01*
X38129500Y-58963777D01*
X38129500Y-58976017D01*
X38127974Y-58995402D01*
X38124840Y-59015196D01*
X38125574Y-59022961D01*
X38125574Y-59022964D01*
X38128950Y-59058676D01*
X38129500Y-59070345D01*
X38129500Y-65210010D01*
X38114929Y-65268331D01*
X38074639Y-65312946D01*
X38018100Y-65333367D01*
X38017439Y-65333435D01*
X38008859Y-65334311D01*
X38008850Y-65334312D01*
X38002123Y-65335000D01*
X37995701Y-65337127D01*
X37995696Y-65337129D01*
X37842464Y-65387905D01*
X37842460Y-65387906D01*
X37835609Y-65390177D01*
X37829465Y-65393966D01*
X37829460Y-65393969D01*
X37692458Y-65478473D01*
X37692452Y-65478477D01*
X37686307Y-65482268D01*
X37681200Y-65487374D01*
X37681196Y-65487378D01*
X37567378Y-65601196D01*
X37567374Y-65601200D01*
X37562268Y-65606307D01*
X37558477Y-65612452D01*
X37558473Y-65612458D01*
X37473969Y-65749460D01*
X37473966Y-65749465D01*
X37470177Y-65755609D01*
X37467906Y-65762460D01*
X37467905Y-65762464D01*
X37417130Y-65915694D01*
X37415000Y-65922123D01*
X37414312Y-65928853D01*
X37414311Y-65928860D01*
X37404819Y-66021769D01*
X37404818Y-66021787D01*
X37404500Y-66024901D01*
X37404500Y-66028048D01*
X37404500Y-66028049D01*
X37404500Y-67321949D01*
X37404500Y-67321968D01*
X37404501Y-67325098D01*
X37404820Y-67328230D01*
X37404821Y-67328231D01*
X37414311Y-67421141D01*
X37414312Y-67421149D01*
X37415000Y-67427877D01*
X37470177Y-67594391D01*
X37562268Y-67743693D01*
X37686307Y-67867732D01*
X37835609Y-67959823D01*
X38002123Y-68015000D01*
X38018099Y-68016632D01*
X38074638Y-68037054D01*
X38114928Y-68081668D01*
X38129500Y-68139990D01*
X38129500Y-70173225D01*
X38128978Y-70184280D01*
X38127327Y-70191667D01*
X38127571Y-70199453D01*
X38127571Y-70199461D01*
X38129439Y-70258873D01*
X38129500Y-70262768D01*
X38129500Y-70290350D01*
X38129988Y-70294219D01*
X38129989Y-70294225D01*
X38130004Y-70294343D01*
X38130918Y-70305966D01*
X38132045Y-70341830D01*
X38132046Y-70341837D01*
X38132291Y-70349627D01*
X38134467Y-70357119D01*
X38134468Y-70357121D01*
X38137879Y-70368862D01*
X38141825Y-70387915D01*
X38144336Y-70407792D01*
X38147206Y-70415042D01*
X38147208Y-70415048D01*
X38160414Y-70448404D01*
X38164197Y-70459451D01*
X38176382Y-70501390D01*
X38180353Y-70508105D01*
X38180354Y-70508107D01*
X38186581Y-70518637D01*
X38195136Y-70536099D01*
X38199642Y-70547480D01*
X38199643Y-70547483D01*
X38202514Y-70554732D01*
X38219461Y-70578058D01*
X38228181Y-70590060D01*
X38234593Y-70599822D01*
X38252856Y-70630702D01*
X38252859Y-70630707D01*
X38256830Y-70637420D01*
X38262345Y-70642935D01*
X38270990Y-70651580D01*
X38283626Y-70666374D01*
X38290819Y-70676275D01*
X38290823Y-70676279D01*
X38295406Y-70682587D01*
X38301415Y-70687558D01*
X38301416Y-70687559D01*
X38329058Y-70710426D01*
X38337699Y-70718289D01*
X46746707Y-79127298D01*
X46754159Y-79135487D01*
X46758214Y-79141877D01*
X46787179Y-79169077D01*
X46807223Y-79187900D01*
X46810020Y-79190611D01*
X46829529Y-79210120D01*
X46832709Y-79212587D01*
X46841571Y-79220155D01*
X46854880Y-79232654D01*
X46867732Y-79244723D01*
X46867734Y-79244724D01*
X46873418Y-79250062D01*
X46880251Y-79253818D01*
X46880252Y-79253819D01*
X46890973Y-79259713D01*
X46907234Y-79270394D01*
X46923064Y-79282673D01*
X46963154Y-79300021D01*
X46973631Y-79305154D01*
X47011908Y-79326197D01*
X47028957Y-79330574D01*
X47031305Y-79331177D01*
X47049719Y-79337481D01*
X47068104Y-79345438D01*
X47111265Y-79352273D01*
X47122664Y-79354634D01*
X47164981Y-79365500D01*
X47185017Y-79365500D01*
X47204402Y-79367025D01*
X47224196Y-79370160D01*
X47262276Y-79366560D01*
X47267676Y-79366050D01*
X47279345Y-79365500D01*
X49042225Y-79365500D01*
X49053280Y-79366021D01*
X49060667Y-79367673D01*
X49127872Y-79365561D01*
X49131768Y-79365500D01*
X49155448Y-79365500D01*
X49159350Y-79365500D01*
X49163313Y-79364999D01*
X49174963Y-79364080D01*
X49218627Y-79362709D01*
X49237861Y-79357119D01*
X49256917Y-79353174D01*
X49276792Y-79350664D01*
X49317395Y-79334587D01*
X49328450Y-79330802D01*
X49370390Y-79318618D01*
X49387629Y-79308422D01*
X49405103Y-79299862D01*
X49416474Y-79295360D01*
X49416476Y-79295358D01*
X49423732Y-79292486D01*
X49459069Y-79266811D01*
X49468824Y-79260403D01*
X49506420Y-79238170D01*
X49520584Y-79224005D01*
X49535379Y-79211368D01*
X49551587Y-79199594D01*
X49579428Y-79165938D01*
X49587279Y-79157309D01*
X49987771Y-78756817D01*
X50027999Y-78729938D01*
X50075452Y-78720499D01*
X50734561Y-78720499D01*
X50737872Y-78720499D01*
X50797483Y-78714091D01*
X50932331Y-78663796D01*
X51047546Y-78577546D01*
X51133796Y-78462331D01*
X51184091Y-78327483D01*
X51190500Y-78267873D01*
X51190499Y-76672128D01*
X51184091Y-76612517D01*
X51133796Y-76477669D01*
X51047546Y-76362454D01*
X50932331Y-76276204D01*
X50797483Y-76225909D01*
X50789770Y-76225079D01*
X50789767Y-76225079D01*
X50741180Y-76219855D01*
X50741169Y-76219854D01*
X50737873Y-76219500D01*
X50734550Y-76219500D01*
X50669512Y-76219500D01*
X49644499Y-76219500D01*
X49582500Y-76202888D01*
X49537113Y-76157501D01*
X49520500Y-76095501D01*
X49520500Y-75240452D01*
X49529939Y-75192999D01*
X49556819Y-75152771D01*
X50622408Y-74087182D01*
X51740107Y-72969482D01*
X51791106Y-72938714D01*
X51850570Y-72935276D01*
X51958757Y-72955500D01*
X52175514Y-72955500D01*
X52181243Y-72955500D01*
X52322715Y-72929054D01*
X52376670Y-72930925D01*
X52424717Y-72955546D01*
X52457747Y-72998250D01*
X52469500Y-73050943D01*
X52469500Y-74237225D01*
X52468978Y-74248280D01*
X52467327Y-74255667D01*
X52467571Y-74263453D01*
X52467571Y-74263461D01*
X52469439Y-74322873D01*
X52469500Y-74326768D01*
X52469500Y-74354350D01*
X52469988Y-74358219D01*
X52469989Y-74358225D01*
X52470004Y-74358343D01*
X52470918Y-74369966D01*
X52472045Y-74405830D01*
X52472046Y-74405837D01*
X52472291Y-74413627D01*
X52474467Y-74421119D01*
X52474468Y-74421121D01*
X52477879Y-74432862D01*
X52481825Y-74451915D01*
X52484336Y-74471792D01*
X52487206Y-74479042D01*
X52487208Y-74479048D01*
X52500414Y-74512404D01*
X52504197Y-74523451D01*
X52516382Y-74565390D01*
X52520353Y-74572105D01*
X52520354Y-74572107D01*
X52526581Y-74582637D01*
X52535136Y-74600099D01*
X52539642Y-74611480D01*
X52539643Y-74611483D01*
X52542514Y-74618732D01*
X52551946Y-74631714D01*
X52568181Y-74654060D01*
X52574593Y-74663822D01*
X52592856Y-74694702D01*
X52592859Y-74694707D01*
X52596830Y-74701420D01*
X52602345Y-74706935D01*
X52610990Y-74715580D01*
X52623626Y-74730374D01*
X52630819Y-74740275D01*
X52630823Y-74740279D01*
X52635406Y-74746587D01*
X52641415Y-74751558D01*
X52641416Y-74751559D01*
X52669058Y-74774426D01*
X52677699Y-74782289D01*
X56387707Y-78492298D01*
X56395159Y-78500487D01*
X56399214Y-78506877D01*
X56448223Y-78552900D01*
X56451020Y-78555611D01*
X56470529Y-78575120D01*
X56473709Y-78577587D01*
X56482571Y-78585155D01*
X56488567Y-78590786D01*
X56508732Y-78609723D01*
X56508734Y-78609724D01*
X56514418Y-78615062D01*
X56521251Y-78618818D01*
X56521252Y-78618819D01*
X56531973Y-78624713D01*
X56548234Y-78635394D01*
X56564064Y-78647673D01*
X56604155Y-78665021D01*
X56614635Y-78670155D01*
X56652908Y-78691197D01*
X56672316Y-78696180D01*
X56690719Y-78702481D01*
X56701944Y-78707339D01*
X56701946Y-78707339D01*
X56709104Y-78710437D01*
X56752258Y-78717271D01*
X56763644Y-78719629D01*
X56805981Y-78730500D01*
X56826017Y-78730500D01*
X56845415Y-78732027D01*
X56857486Y-78733939D01*
X56857487Y-78733939D01*
X56865196Y-78735160D01*
X56903276Y-78731560D01*
X56908676Y-78731050D01*
X56920345Y-78730500D01*
X91161817Y-78730500D01*
X91215333Y-78742643D01*
X91258368Y-78776693D01*
X91276260Y-78813247D01*
X91278310Y-78812483D01*
X91328605Y-78947331D01*
X91414855Y-79062546D01*
X91530070Y-79148796D01*
X91664918Y-79199091D01*
X91724528Y-79205500D01*
X93020273Y-79205499D01*
X93079884Y-79199091D01*
X93214732Y-79148796D01*
X93329947Y-79062546D01*
X93416197Y-78947331D01*
X93419297Y-78939019D01*
X93421539Y-78934914D01*
X93458479Y-78893307D01*
X93509894Y-78872042D01*
X93565431Y-78875398D01*
X93613910Y-78902702D01*
X93706360Y-78986981D01*
X93879764Y-79094348D01*
X94069945Y-79168024D01*
X94270425Y-79205500D01*
X94468648Y-79205500D01*
X94474377Y-79205500D01*
X94674857Y-79168024D01*
X94865038Y-79094348D01*
X95038442Y-78986981D01*
X95189165Y-78849579D01*
X95267841Y-78745395D01*
X98390506Y-78745395D01*
X98409386Y-78961206D01*
X98411260Y-78971837D01*
X98467332Y-79181097D01*
X98471020Y-79191231D01*
X98562576Y-79387572D01*
X98567974Y-79396922D01*
X98608184Y-79454348D01*
X98616295Y-79461781D01*
X98625574Y-79455870D01*
X99329903Y-78751541D01*
X99336566Y-78739999D01*
X100053431Y-78739999D01*
X100060095Y-78751541D01*
X100764421Y-79455867D01*
X100773703Y-79461780D01*
X100781814Y-79454348D01*
X100822026Y-79396920D01*
X100827422Y-79387575D01*
X100918979Y-79191231D01*
X100922667Y-79181097D01*
X100978739Y-78971837D01*
X100980613Y-78961206D01*
X100999494Y-78745395D01*
X100999494Y-78734605D01*
X100980613Y-78518793D01*
X100978739Y-78508162D01*
X100922667Y-78298902D01*
X100918979Y-78288768D01*
X100827423Y-78092427D01*
X100822025Y-78083077D01*
X100781814Y-78025650D01*
X100773703Y-78018217D01*
X100764424Y-78024128D01*
X100060095Y-78728456D01*
X100053431Y-78739999D01*
X99336566Y-78739999D01*
X99336567Y-78739998D01*
X99329903Y-78728456D01*
X98625574Y-78024128D01*
X98616296Y-78018217D01*
X98608183Y-78025651D01*
X98567971Y-78083081D01*
X98562577Y-78092425D01*
X98471020Y-78288768D01*
X98467332Y-78298902D01*
X98411260Y-78508162D01*
X98409386Y-78518793D01*
X98390506Y-78734605D01*
X98390506Y-78745395D01*
X95267841Y-78745395D01*
X95312074Y-78686821D01*
X95402983Y-78504250D01*
X95458798Y-78308083D01*
X95471240Y-78173797D01*
X95482463Y-78132547D01*
X95507027Y-78097561D01*
X95943292Y-77661296D01*
X98973217Y-77661296D01*
X98979128Y-77670574D01*
X99683457Y-78374903D01*
X99695000Y-78381567D01*
X99706542Y-78374903D01*
X100410870Y-77670574D01*
X100416781Y-77661295D01*
X100409348Y-77653184D01*
X100351922Y-77612974D01*
X100342572Y-77607576D01*
X100146231Y-77516020D01*
X100136097Y-77512332D01*
X99926837Y-77456260D01*
X99916206Y-77454386D01*
X99700395Y-77435506D01*
X99689605Y-77435506D01*
X99473793Y-77454386D01*
X99463162Y-77456260D01*
X99253902Y-77512332D01*
X99243768Y-77516020D01*
X99047425Y-77607577D01*
X99038081Y-77612971D01*
X98980651Y-77653183D01*
X98973217Y-77661296D01*
X95943292Y-77661296D01*
X97460107Y-76144482D01*
X97511106Y-76113714D01*
X97570570Y-76110276D01*
X97678757Y-76130500D01*
X97895514Y-76130500D01*
X97901243Y-76130500D01*
X98119940Y-76089618D01*
X98327401Y-76009247D01*
X98445026Y-75936417D01*
X104760658Y-75936417D01*
X104768595Y-75944263D01*
X104867951Y-76005782D01*
X104878163Y-76010867D01*
X105074851Y-76087064D01*
X105085834Y-76090189D01*
X105293173Y-76128947D01*
X105304533Y-76130000D01*
X105515467Y-76130000D01*
X105526826Y-76128947D01*
X105734165Y-76090189D01*
X105745148Y-76087064D01*
X105941830Y-76010869D01*
X105952055Y-76005777D01*
X106051402Y-75944263D01*
X106059340Y-75936417D01*
X106053410Y-75926963D01*
X105421542Y-75295095D01*
X105410000Y-75288431D01*
X105398457Y-75295095D01*
X104766588Y-75926963D01*
X104760658Y-75936417D01*
X98445026Y-75936417D01*
X98516562Y-75892124D01*
X98680981Y-75742236D01*
X98815058Y-75564689D01*
X98914229Y-75365528D01*
X98975115Y-75151536D01*
X98995643Y-74930000D01*
X98975115Y-74708464D01*
X98969416Y-74688433D01*
X98966793Y-74631715D01*
X98989728Y-74579773D01*
X99033410Y-74543500D01*
X99088682Y-74530500D01*
X104111838Y-74530500D01*
X104167109Y-74543500D01*
X104210792Y-74579773D01*
X104233727Y-74631714D01*
X104231105Y-74688433D01*
X104226946Y-74703048D01*
X104224850Y-74714263D01*
X104205388Y-74924291D01*
X104205388Y-74935709D01*
X104224850Y-75145736D01*
X104226948Y-75156958D01*
X104284670Y-75359832D01*
X104288793Y-75370477D01*
X104382813Y-75559295D01*
X104388822Y-75569000D01*
X104390419Y-75571113D01*
X104401549Y-75579385D01*
X104413713Y-75572732D01*
X105322318Y-74664127D01*
X105377905Y-74632033D01*
X105442093Y-74632033D01*
X105497680Y-74664127D01*
X106406285Y-75572732D01*
X106418450Y-75579386D01*
X106429578Y-75571116D01*
X106431177Y-75568999D01*
X106437186Y-75559295D01*
X106531206Y-75370477D01*
X106535329Y-75359832D01*
X106593051Y-75156958D01*
X106595149Y-75145736D01*
X106614612Y-74935709D01*
X106614612Y-74924291D01*
X106595149Y-74714263D01*
X106593053Y-74703048D01*
X106588895Y-74688433D01*
X106586273Y-74631714D01*
X106609208Y-74579773D01*
X106652891Y-74543500D01*
X106708162Y-74530500D01*
X108897225Y-74530500D01*
X108908280Y-74531021D01*
X108915667Y-74532673D01*
X108982872Y-74530561D01*
X108986768Y-74530500D01*
X109010448Y-74530500D01*
X109014350Y-74530500D01*
X109018313Y-74529999D01*
X109029963Y-74529080D01*
X109073627Y-74527709D01*
X109092861Y-74522119D01*
X109111917Y-74518174D01*
X109131792Y-74515664D01*
X109172395Y-74499587D01*
X109183450Y-74495802D01*
X109225390Y-74483618D01*
X109242629Y-74473422D01*
X109260103Y-74464862D01*
X109271474Y-74460360D01*
X109271476Y-74460358D01*
X109278732Y-74457486D01*
X109314069Y-74431811D01*
X109323824Y-74425403D01*
X109361420Y-74403170D01*
X109375584Y-74389005D01*
X109390379Y-74376368D01*
X109406587Y-74364594D01*
X109434428Y-74330938D01*
X109442279Y-74322309D01*
X111345178Y-72419410D01*
X111400764Y-72387318D01*
X111464947Y-72387318D01*
X111533308Y-72405635D01*
X111760000Y-72425468D01*
X111986692Y-72405635D01*
X112206496Y-72346739D01*
X112228096Y-72336666D01*
X112288609Y-72325314D01*
X112347125Y-72344468D01*
X112389214Y-72389406D01*
X112404500Y-72449049D01*
X112404500Y-77794548D01*
X112395061Y-77842001D01*
X112368181Y-77882229D01*
X110228997Y-80021410D01*
X110173411Y-80053503D01*
X110109225Y-80053504D01*
X110078219Y-80045196D01*
X110078201Y-80045192D01*
X110072977Y-80043793D01*
X110067585Y-80043321D01*
X110067578Y-80043320D01*
X109860395Y-80025195D01*
X109855000Y-80024723D01*
X109849605Y-80025195D01*
X109642421Y-80043320D01*
X109642412Y-80043321D01*
X109637023Y-80043793D01*
X109631802Y-80045191D01*
X109631790Y-80045194D01*
X109430897Y-80099024D01*
X109430892Y-80099025D01*
X109425670Y-80100425D01*
X109420774Y-80102707D01*
X109420763Y-80102712D01*
X109232272Y-80190608D01*
X109232268Y-80190610D01*
X109227362Y-80192898D01*
X109222929Y-80196001D01*
X109222922Y-80196006D01*
X109052558Y-80315296D01*
X109052553Y-80315299D01*
X109048123Y-80318402D01*
X109044299Y-80322225D01*
X109044293Y-80322231D01*
X108897231Y-80469293D01*
X108897225Y-80469299D01*
X108893402Y-80473123D01*
X108890299Y-80477553D01*
X108890296Y-80477558D01*
X108771006Y-80647922D01*
X108771001Y-80647929D01*
X108767898Y-80652362D01*
X108765610Y-80657268D01*
X108765608Y-80657272D01*
X108677712Y-80845763D01*
X108677707Y-80845774D01*
X108675425Y-80850670D01*
X108674025Y-80855892D01*
X108674024Y-80855897D01*
X108620194Y-81056790D01*
X108620191Y-81056802D01*
X108618793Y-81062023D01*
X108618321Y-81067412D01*
X108618320Y-81067421D01*
X108607284Y-81193577D01*
X108599723Y-81280000D01*
X108600195Y-81285395D01*
X108618320Y-81492578D01*
X108618321Y-81492585D01*
X108618793Y-81497977D01*
X108620192Y-81503199D01*
X108620194Y-81503209D01*
X108670622Y-81691405D01*
X108675425Y-81709330D01*
X108677709Y-81714229D01*
X108677712Y-81714236D01*
X108765611Y-81902736D01*
X108765614Y-81902742D01*
X108767898Y-81907639D01*
X108770997Y-81912066D01*
X108770999Y-81912068D01*
X108890296Y-82082442D01*
X108890299Y-82082446D01*
X108893402Y-82086877D01*
X109048123Y-82241598D01*
X109227361Y-82367102D01*
X109232261Y-82369387D01*
X109232263Y-82369388D01*
X109394486Y-82445034D01*
X109425670Y-82459575D01*
X109532280Y-82488141D01*
X109631790Y-82514805D01*
X109631791Y-82514805D01*
X109637023Y-82516207D01*
X109855000Y-82535277D01*
X110072977Y-82516207D01*
X110284330Y-82459575D01*
X110482639Y-82367102D01*
X110661877Y-82241598D01*
X110816598Y-82086877D01*
X110893579Y-81976937D01*
X110906576Y-81958376D01*
X110950894Y-81919511D01*
X111008151Y-81905500D01*
X114369816Y-81905500D01*
X114427073Y-81919511D01*
X114471391Y-81958377D01*
X114484387Y-81976937D01*
X114569953Y-82099139D01*
X114730861Y-82260047D01*
X114917266Y-82390568D01*
X115123504Y-82486739D01*
X115128734Y-82488140D01*
X115128736Y-82488141D01*
X115270424Y-82526106D01*
X115343308Y-82545635D01*
X115570000Y-82565468D01*
X115796692Y-82545635D01*
X116016496Y-82486739D01*
X116222734Y-82390568D01*
X116409139Y-82260047D01*
X116570047Y-82099139D01*
X116700568Y-81912734D01*
X116796739Y-81706496D01*
X116855635Y-81486692D01*
X116875468Y-81260000D01*
X116855635Y-81033308D01*
X116796739Y-80813504D01*
X116700568Y-80607266D01*
X116570047Y-80420861D01*
X116409139Y-80259953D01*
X116313374Y-80192898D01*
X116227173Y-80132540D01*
X116227171Y-80132539D01*
X116222734Y-80129432D01*
X116217827Y-80127143D01*
X116217817Y-80127138D01*
X116207023Y-80122105D01*
X116154847Y-80076347D01*
X116135429Y-80009721D01*
X116154850Y-79943096D01*
X116207028Y-79897340D01*
X116217578Y-79892420D01*
X116226920Y-79887026D01*
X116284348Y-79846814D01*
X116291780Y-79838703D01*
X116285867Y-79829421D01*
X115581542Y-79125095D01*
X115570000Y-79118431D01*
X115558457Y-79125095D01*
X114854128Y-79829424D01*
X114848217Y-79838703D01*
X114855650Y-79846814D01*
X114913077Y-79887025D01*
X114922422Y-79892420D01*
X114932974Y-79897341D01*
X114985149Y-79943097D01*
X115004570Y-80009721D01*
X114985153Y-80076346D01*
X114932979Y-80122104D01*
X114922180Y-80127140D01*
X114922175Y-80127142D01*
X114917266Y-80129432D01*
X114912833Y-80132535D01*
X114912826Y-80132540D01*
X114735296Y-80256847D01*
X114735291Y-80256850D01*
X114730861Y-80259953D01*
X114727037Y-80263776D01*
X114727031Y-80263782D01*
X114573782Y-80417031D01*
X114573776Y-80417037D01*
X114569953Y-80420861D01*
X114566850Y-80425291D01*
X114566847Y-80425296D01*
X114443383Y-80601623D01*
X114399065Y-80640489D01*
X114341808Y-80654500D01*
X111664452Y-80654500D01*
X111608157Y-80640985D01*
X111564134Y-80603385D01*
X111541979Y-80549898D01*
X111546521Y-80492182D01*
X111576771Y-80442819D01*
X112430479Y-79589111D01*
X113254194Y-78765395D01*
X114265506Y-78765395D01*
X114284386Y-78981206D01*
X114286260Y-78991837D01*
X114342332Y-79201097D01*
X114346020Y-79211231D01*
X114437576Y-79407572D01*
X114442974Y-79416922D01*
X114483184Y-79474348D01*
X114491295Y-79481781D01*
X114500574Y-79475870D01*
X115204903Y-78771542D01*
X115211567Y-78760000D01*
X115928431Y-78760000D01*
X115935095Y-78771542D01*
X116639421Y-79475867D01*
X116648703Y-79481780D01*
X116656814Y-79474348D01*
X116697026Y-79416920D01*
X116702422Y-79407575D01*
X116793979Y-79211231D01*
X116797667Y-79201097D01*
X116853739Y-78991837D01*
X116855613Y-78981206D01*
X116874494Y-78765395D01*
X116874494Y-78754605D01*
X116855613Y-78538793D01*
X116853739Y-78528162D01*
X116797667Y-78318902D01*
X116793979Y-78308768D01*
X116702423Y-78112427D01*
X116697025Y-78103077D01*
X116656814Y-78045650D01*
X116648703Y-78038217D01*
X116639424Y-78044128D01*
X115935095Y-78748457D01*
X115928431Y-78760000D01*
X115211567Y-78760000D01*
X115204903Y-78748457D01*
X114500574Y-78044128D01*
X114491296Y-78038217D01*
X114483183Y-78045651D01*
X114442971Y-78103081D01*
X114437577Y-78112425D01*
X114346020Y-78308768D01*
X114342332Y-78318902D01*
X114286260Y-78528162D01*
X114284386Y-78538793D01*
X114265506Y-78754605D01*
X114265506Y-78765395D01*
X113254194Y-78765395D01*
X113417311Y-78602278D01*
X113425481Y-78594844D01*
X113431877Y-78590786D01*
X113477918Y-78541756D01*
X113480535Y-78539054D01*
X113500120Y-78519471D01*
X113502585Y-78516292D01*
X113510167Y-78507416D01*
X113513140Y-78504250D01*
X113540062Y-78475582D01*
X113549713Y-78458023D01*
X113560390Y-78441770D01*
X113572673Y-78425936D01*
X113590026Y-78385832D01*
X113595158Y-78375361D01*
X113612435Y-78343935D01*
X113612435Y-78343934D01*
X113616197Y-78337092D01*
X113621177Y-78317691D01*
X113627481Y-78299281D01*
X113627645Y-78298902D01*
X113635438Y-78280896D01*
X113642272Y-78237741D01*
X113644638Y-78226321D01*
X113653560Y-78191574D01*
X113655500Y-78184019D01*
X113655500Y-78163983D01*
X113657025Y-78144597D01*
X113660160Y-78124804D01*
X113656050Y-78081324D01*
X113655500Y-78069655D01*
X113655500Y-77681296D01*
X114848217Y-77681296D01*
X114854128Y-77690574D01*
X115558457Y-78394903D01*
X115570000Y-78401567D01*
X115581542Y-78394903D01*
X116285870Y-77690574D01*
X116291781Y-77681295D01*
X116284348Y-77673184D01*
X116226922Y-77632974D01*
X116217572Y-77627576D01*
X116021231Y-77536020D01*
X116011097Y-77532332D01*
X115801837Y-77476260D01*
X115791206Y-77474386D01*
X115575395Y-77455506D01*
X115564605Y-77455506D01*
X115348793Y-77474386D01*
X115338162Y-77476260D01*
X115128902Y-77532332D01*
X115118768Y-77536020D01*
X114922425Y-77627577D01*
X114913081Y-77632971D01*
X114855651Y-77673183D01*
X114848217Y-77681296D01*
X113655500Y-77681296D01*
X113655500Y-72448497D01*
X113670786Y-72388854D01*
X113712875Y-72343916D01*
X113771390Y-72324762D01*
X113831905Y-72336115D01*
X113848769Y-72343979D01*
X113858905Y-72347668D01*
X114036219Y-72395179D01*
X114047448Y-72395547D01*
X114050000Y-72384605D01*
X114550000Y-72384605D01*
X114552551Y-72395547D01*
X114563780Y-72395179D01*
X114741092Y-72347669D01*
X114751234Y-72343977D01*
X114947580Y-72252420D01*
X114956912Y-72247032D01*
X115134381Y-72122767D01*
X115142647Y-72115830D01*
X115295830Y-71962647D01*
X115302767Y-71954381D01*
X115427032Y-71776912D01*
X115432420Y-71767580D01*
X115523977Y-71571234D01*
X115527669Y-71561092D01*
X115575179Y-71383780D01*
X115575547Y-71372551D01*
X115564605Y-71370000D01*
X114566326Y-71370000D01*
X114553450Y-71373450D01*
X114550000Y-71386326D01*
X114550000Y-72384605D01*
X114050000Y-72384605D01*
X114050000Y-70853674D01*
X114550000Y-70853674D01*
X114553450Y-70866549D01*
X114566326Y-70870000D01*
X115564605Y-70870000D01*
X115575547Y-70867448D01*
X115575179Y-70856219D01*
X115527669Y-70678907D01*
X115523977Y-70668765D01*
X115432420Y-70472419D01*
X115427032Y-70463087D01*
X115302767Y-70285618D01*
X115295830Y-70277352D01*
X115142647Y-70124169D01*
X115134381Y-70117232D01*
X114956912Y-69992967D01*
X114947580Y-69987579D01*
X114751234Y-69896022D01*
X114741092Y-69892330D01*
X114563780Y-69844820D01*
X114552551Y-69844452D01*
X114550000Y-69855395D01*
X114550000Y-70853674D01*
X114050000Y-70853674D01*
X114050000Y-69855395D01*
X114047448Y-69844452D01*
X114036219Y-69844820D01*
X113858907Y-69892330D01*
X113848765Y-69896022D01*
X113652427Y-69987576D01*
X113643079Y-69992973D01*
X113584488Y-70033998D01*
X113531336Y-70055113D01*
X113474362Y-70050128D01*
X113425685Y-70020103D01*
X113013277Y-69607695D01*
X113005833Y-69599514D01*
X113001777Y-69593123D01*
X112952766Y-69547098D01*
X112949969Y-69544387D01*
X112933218Y-69527636D01*
X112930462Y-69524880D01*
X112927281Y-69522412D01*
X112918405Y-69514830D01*
X112892260Y-69490278D01*
X112892258Y-69490276D01*
X112886573Y-69484938D01*
X112879740Y-69481182D01*
X112879734Y-69481177D01*
X112869016Y-69475285D01*
X112852757Y-69464606D01*
X112843086Y-69457104D01*
X112843083Y-69457102D01*
X112836927Y-69452327D01*
X112829770Y-69449229D01*
X112829767Y-69449228D01*
X112796840Y-69434978D01*
X112786354Y-69429841D01*
X112754923Y-69412562D01*
X112754914Y-69412558D01*
X112748083Y-69408803D01*
X112740526Y-69406862D01*
X112740522Y-69406861D01*
X112728679Y-69403820D01*
X112710275Y-69397519D01*
X112699048Y-69392660D01*
X112699041Y-69392658D01*
X112691887Y-69389562D01*
X112684183Y-69388341D01*
X112684181Y-69388341D01*
X112648750Y-69382729D01*
X112637315Y-69380361D01*
X112602562Y-69371438D01*
X112602554Y-69371437D01*
X112595010Y-69369500D01*
X112587214Y-69369500D01*
X112574974Y-69369500D01*
X112555588Y-69367974D01*
X112535795Y-69364840D01*
X112528029Y-69365574D01*
X112528026Y-69365574D01*
X112492315Y-69368950D01*
X112480646Y-69369500D01*
X111371780Y-69369500D01*
X111360727Y-69368979D01*
X111353341Y-69367328D01*
X111345543Y-69367573D01*
X111286153Y-69369439D01*
X111282259Y-69369500D01*
X111254659Y-69369500D01*
X111250808Y-69369986D01*
X111250777Y-69369988D01*
X111250649Y-69370005D01*
X111239038Y-69370918D01*
X111203180Y-69372045D01*
X111203173Y-69372046D01*
X111195381Y-69372291D01*
X111187897Y-69374465D01*
X111187886Y-69374467D01*
X111176137Y-69377881D01*
X111157092Y-69381825D01*
X111144956Y-69383358D01*
X111144953Y-69383358D01*
X111137217Y-69384336D01*
X111129969Y-69387205D01*
X111129959Y-69387208D01*
X111096601Y-69400415D01*
X111085559Y-69404196D01*
X111051106Y-69414207D01*
X111051101Y-69414208D01*
X111043619Y-69416383D01*
X111036911Y-69420349D01*
X111036906Y-69420352D01*
X111026373Y-69426581D01*
X111008909Y-69435136D01*
X110997533Y-69439640D01*
X110997526Y-69439643D01*
X110990277Y-69442514D01*
X110983971Y-69447094D01*
X110983966Y-69447098D01*
X110954936Y-69468189D01*
X110945178Y-69474598D01*
X110914307Y-69492856D01*
X110907588Y-69496830D01*
X110902072Y-69502344D01*
X110902065Y-69502351D01*
X110893416Y-69511000D01*
X110878633Y-69523626D01*
X110868736Y-69530817D01*
X110868729Y-69530823D01*
X110862422Y-69535406D01*
X110857455Y-69541408D01*
X110857444Y-69541420D01*
X110834579Y-69569059D01*
X110826719Y-69577697D01*
X110259482Y-70144934D01*
X110203895Y-70177028D01*
X110139707Y-70177028D01*
X110084120Y-70144934D01*
X110062968Y-70123782D01*
X110059139Y-70119953D01*
X109953322Y-70045860D01*
X109877173Y-69992540D01*
X109877171Y-69992539D01*
X109872734Y-69989432D01*
X109808145Y-69959313D01*
X109671405Y-69895550D01*
X109671403Y-69895549D01*
X109666496Y-69893261D01*
X109661271Y-69891861D01*
X109661263Y-69891858D01*
X109451916Y-69835764D01*
X109451907Y-69835762D01*
X109446692Y-69834365D01*
X109441304Y-69833893D01*
X109441301Y-69833893D01*
X109225395Y-69815004D01*
X109220000Y-69814532D01*
X109214605Y-69815004D01*
X108998698Y-69833893D01*
X108998693Y-69833893D01*
X108993308Y-69834365D01*
X108988090Y-69835762D01*
X108988079Y-69835765D01*
X108924950Y-69852680D01*
X108860763Y-69852680D01*
X108805177Y-69820586D01*
X107606783Y-68622192D01*
X107599339Y-68614011D01*
X107595283Y-68607620D01*
X107546272Y-68561595D01*
X107543475Y-68558884D01*
X107526724Y-68542133D01*
X107523968Y-68539377D01*
X107520787Y-68536909D01*
X107511911Y-68529327D01*
X107485766Y-68504775D01*
X107485764Y-68504773D01*
X107480079Y-68499435D01*
X107473246Y-68495679D01*
X107473240Y-68495674D01*
X107462522Y-68489782D01*
X107446263Y-68479103D01*
X107436592Y-68471601D01*
X107436589Y-68471599D01*
X107430433Y-68466824D01*
X107423276Y-68463726D01*
X107423273Y-68463725D01*
X107390346Y-68449475D01*
X107379860Y-68444338D01*
X107348429Y-68427059D01*
X107348420Y-68427055D01*
X107341589Y-68423300D01*
X107334032Y-68421359D01*
X107334028Y-68421358D01*
X107322185Y-68418317D01*
X107303781Y-68412016D01*
X107292554Y-68407157D01*
X107292547Y-68407155D01*
X107285393Y-68404059D01*
X107277689Y-68402838D01*
X107277687Y-68402838D01*
X107242256Y-68397226D01*
X107230821Y-68394858D01*
X107196068Y-68385935D01*
X107196060Y-68385934D01*
X107188516Y-68383997D01*
X107180720Y-68383997D01*
X107168480Y-68383997D01*
X107149094Y-68382471D01*
X107129301Y-68379337D01*
X107121535Y-68380071D01*
X107121532Y-68380071D01*
X107085821Y-68383447D01*
X107074152Y-68383997D01*
X60608274Y-68383997D01*
X60597221Y-68383476D01*
X60589835Y-68381825D01*
X60582037Y-68382070D01*
X60522647Y-68383936D01*
X60518753Y-68383997D01*
X60491153Y-68383997D01*
X60487302Y-68384483D01*
X60487271Y-68384485D01*
X60487143Y-68384502D01*
X60475532Y-68385415D01*
X60439674Y-68386542D01*
X60439667Y-68386543D01*
X60431875Y-68386788D01*
X60424391Y-68388962D01*
X60424380Y-68388964D01*
X60412631Y-68392378D01*
X60393586Y-68396322D01*
X60381450Y-68397855D01*
X60381447Y-68397855D01*
X60373711Y-68398833D01*
X60366463Y-68401702D01*
X60366453Y-68401705D01*
X60333095Y-68414912D01*
X60322053Y-68418693D01*
X60287600Y-68428704D01*
X60287595Y-68428705D01*
X60280113Y-68430880D01*
X60273405Y-68434846D01*
X60273400Y-68434849D01*
X60262867Y-68441078D01*
X60245403Y-68449633D01*
X60234027Y-68454137D01*
X60234020Y-68454140D01*
X60226771Y-68457011D01*
X60220465Y-68461591D01*
X60220460Y-68461595D01*
X60191430Y-68482686D01*
X60181672Y-68489095D01*
X60150801Y-68507353D01*
X60144082Y-68511327D01*
X60138566Y-68516841D01*
X60138559Y-68516848D01*
X60129910Y-68525497D01*
X60115127Y-68538123D01*
X60105230Y-68545314D01*
X60105223Y-68545320D01*
X60098916Y-68549903D01*
X60093949Y-68555905D01*
X60093938Y-68555917D01*
X60071073Y-68583556D01*
X60063213Y-68592194D01*
X58241892Y-70413515D01*
X58190891Y-70444285D01*
X58131426Y-70447722D01*
X58088403Y-70439680D01*
X58028872Y-70428552D01*
X58028869Y-70428551D01*
X58023243Y-70427500D01*
X57800757Y-70427500D01*
X57795131Y-70428551D01*
X57795127Y-70428552D01*
X57587697Y-70467328D01*
X57587694Y-70467328D01*
X57582060Y-70468382D01*
X57576717Y-70470451D01*
X57576713Y-70470453D01*
X57379941Y-70546683D01*
X57379936Y-70546685D01*
X57374599Y-70548753D01*
X57369727Y-70551769D01*
X57369724Y-70551771D01*
X57190309Y-70662859D01*
X57190301Y-70662864D01*
X57185438Y-70665876D01*
X57181207Y-70669732D01*
X57181203Y-70669736D01*
X57025259Y-70811897D01*
X57025249Y-70811907D01*
X57021019Y-70815764D01*
X57017570Y-70820330D01*
X57017561Y-70820341D01*
X56890394Y-70988738D01*
X56890387Y-70988748D01*
X56886942Y-70993311D01*
X56884392Y-70998431D01*
X56884387Y-70998440D01*
X56790325Y-71187341D01*
X56790321Y-71187349D01*
X56787771Y-71192472D01*
X56786205Y-71197975D01*
X56786201Y-71197986D01*
X56728871Y-71399485D01*
X56726885Y-71406464D01*
X56726356Y-71412169D01*
X56726356Y-71412171D01*
X56712557Y-71561092D01*
X56706357Y-71628000D01*
X56706886Y-71633709D01*
X56726237Y-71842549D01*
X56726885Y-71849536D01*
X56728454Y-71855050D01*
X56786201Y-72058013D01*
X56786204Y-72058021D01*
X56787771Y-72063528D01*
X56790323Y-72068653D01*
X56790325Y-72068658D01*
X56884387Y-72257559D01*
X56884389Y-72257563D01*
X56886942Y-72262689D01*
X56890391Y-72267256D01*
X56890394Y-72267261D01*
X57017561Y-72435658D01*
X57017566Y-72435663D01*
X57021019Y-72440236D01*
X57025255Y-72444097D01*
X57025259Y-72444102D01*
X57030686Y-72449049D01*
X57185438Y-72590124D01*
X57374599Y-72707247D01*
X57582060Y-72787618D01*
X57800757Y-72828500D01*
X58017514Y-72828500D01*
X58023243Y-72828500D01*
X58131428Y-72808276D01*
X58190893Y-72811714D01*
X58241893Y-72842483D01*
X59455318Y-74055909D01*
X60661707Y-75262298D01*
X60669159Y-75270487D01*
X60673214Y-75276877D01*
X60685518Y-75288431D01*
X60722223Y-75322900D01*
X60725020Y-75325611D01*
X60744529Y-75345120D01*
X60747709Y-75347587D01*
X60756571Y-75355155D01*
X60767616Y-75365528D01*
X60782732Y-75379723D01*
X60782734Y-75379724D01*
X60788418Y-75385062D01*
X60795251Y-75388818D01*
X60795252Y-75388819D01*
X60805973Y-75394713D01*
X60822234Y-75405394D01*
X60838064Y-75417673D01*
X60878155Y-75435021D01*
X60888635Y-75440155D01*
X60926908Y-75461197D01*
X60946316Y-75466180D01*
X60964719Y-75472481D01*
X60975944Y-75477339D01*
X60975946Y-75477339D01*
X60983104Y-75480437D01*
X61026258Y-75487271D01*
X61037644Y-75489629D01*
X61079981Y-75500500D01*
X61100017Y-75500500D01*
X61119415Y-75502027D01*
X61131486Y-75503939D01*
X61131487Y-75503939D01*
X61139196Y-75505160D01*
X61177276Y-75501560D01*
X61182676Y-75501050D01*
X61194345Y-75500500D01*
X63883527Y-75500500D01*
X63942545Y-75515445D01*
X63987336Y-75556679D01*
X64007103Y-75614260D01*
X63997083Y-75674309D01*
X63980937Y-75711119D01*
X63979679Y-75716084D01*
X63979678Y-75716089D01*
X63921151Y-75947204D01*
X63921149Y-75947213D01*
X63919892Y-75952179D01*
X63919468Y-75957288D01*
X63919467Y-75957298D01*
X63900313Y-76188457D01*
X63899357Y-76200000D01*
X63899781Y-76205117D01*
X63919467Y-76442701D01*
X63919468Y-76442709D01*
X63919892Y-76447821D01*
X63921149Y-76452788D01*
X63921151Y-76452795D01*
X63976790Y-76672506D01*
X63980937Y-76688881D01*
X63990430Y-76710522D01*
X64078766Y-76911910D01*
X64078769Y-76911916D01*
X64080827Y-76916607D01*
X64083627Y-76920893D01*
X64083631Y-76920900D01*
X64184365Y-77075085D01*
X64216836Y-77124785D01*
X64220310Y-77128559D01*
X64220311Y-77128560D01*
X64351912Y-77271517D01*
X64379815Y-77321102D01*
X64382637Y-77377929D01*
X64359781Y-77430034D01*
X64316061Y-77466446D01*
X64260682Y-77479500D01*
X59873505Y-77479500D01*
X59810400Y-77462242D01*
X59764861Y-77415270D01*
X59762591Y-77411144D01*
X58916542Y-76565095D01*
X58904999Y-76558431D01*
X58893457Y-76565095D01*
X58047409Y-77411142D01*
X58045141Y-77415266D01*
X57999602Y-77462240D01*
X57936495Y-77479500D01*
X57195453Y-77479500D01*
X57148000Y-77470061D01*
X57107772Y-77443181D01*
X55869708Y-76205117D01*
X57400283Y-76205117D01*
X57419962Y-76442618D01*
X57421646Y-76452712D01*
X57480153Y-76683747D01*
X57483472Y-76693414D01*
X57579208Y-76911673D01*
X57584070Y-76920656D01*
X57673999Y-77058304D01*
X57681963Y-77066024D01*
X57691345Y-77060100D01*
X58539904Y-76211542D01*
X58546568Y-76200000D01*
X59263431Y-76200000D01*
X59270095Y-76211542D01*
X60118653Y-77060100D01*
X60128034Y-77066024D01*
X60136002Y-77058299D01*
X60225924Y-76920664D01*
X60230792Y-76911669D01*
X60326527Y-76693414D01*
X60329846Y-76683747D01*
X60388353Y-76452712D01*
X60390037Y-76442618D01*
X60409717Y-76205117D01*
X60409717Y-76194883D01*
X60390037Y-75957381D01*
X60388353Y-75947287D01*
X60329846Y-75716252D01*
X60326527Y-75706585D01*
X60230792Y-75488330D01*
X60225924Y-75479335D01*
X60136002Y-75341699D01*
X60128034Y-75333974D01*
X60118653Y-75339898D01*
X59270095Y-76188457D01*
X59263431Y-76200000D01*
X58546568Y-76200000D01*
X58539904Y-76188457D01*
X57691345Y-75339898D01*
X57681964Y-75333974D01*
X57673997Y-75341699D01*
X57584072Y-75479338D01*
X57579207Y-75488328D01*
X57483472Y-75706585D01*
X57480153Y-75716252D01*
X57421646Y-75947287D01*
X57419962Y-75957381D01*
X57400283Y-76194883D01*
X57400283Y-76205117D01*
X55869708Y-76205117D01*
X54641340Y-74976749D01*
X58040748Y-74976749D01*
X58047408Y-74988855D01*
X58893457Y-75834904D01*
X58905000Y-75841568D01*
X58916542Y-75834904D01*
X59762590Y-74988855D01*
X59769250Y-74976749D01*
X59761143Y-74965559D01*
X59732286Y-74943099D01*
X59723719Y-74937503D01*
X59514114Y-74824070D01*
X59504760Y-74819967D01*
X59279343Y-74742582D01*
X59269431Y-74740071D01*
X59034356Y-74700844D01*
X59024161Y-74700000D01*
X58785839Y-74700000D01*
X58775643Y-74700844D01*
X58540568Y-74740071D01*
X58530656Y-74742582D01*
X58305239Y-74819967D01*
X58295885Y-74824070D01*
X58086276Y-74937504D01*
X58077717Y-74943096D01*
X58048854Y-74965560D01*
X58040748Y-74976749D01*
X54641340Y-74976749D01*
X53756819Y-74092228D01*
X53729939Y-74052000D01*
X53720500Y-74004547D01*
X53720500Y-71408206D01*
X53721021Y-71397150D01*
X53722673Y-71389764D01*
X53720561Y-71322544D01*
X53720500Y-71318650D01*
X53720500Y-71294973D01*
X53720500Y-71291081D01*
X53719998Y-71287114D01*
X53719081Y-71275457D01*
X53717710Y-71231804D01*
X53712118Y-71212559D01*
X53708174Y-71193514D01*
X53705664Y-71173639D01*
X53689579Y-71133014D01*
X53685806Y-71121993D01*
X53673618Y-71080041D01*
X53663417Y-71062791D01*
X53654863Y-71045332D01*
X53647486Y-71026699D01*
X53621808Y-70991356D01*
X53615401Y-70981602D01*
X53597142Y-70950727D01*
X53597141Y-70950725D01*
X53593170Y-70944011D01*
X53579004Y-70929845D01*
X53566370Y-70915053D01*
X53554594Y-70898844D01*
X53548583Y-70893871D01*
X53548581Y-70893869D01*
X53520941Y-70871004D01*
X53512300Y-70863141D01*
X52991855Y-70342695D01*
X52984411Y-70334514D01*
X52980355Y-70328123D01*
X52931344Y-70282098D01*
X52928547Y-70279387D01*
X52911796Y-70262636D01*
X52911795Y-70262635D01*
X52909040Y-70259880D01*
X52905859Y-70257412D01*
X52896983Y-70249830D01*
X52870838Y-70225278D01*
X52870836Y-70225276D01*
X52865151Y-70219938D01*
X52858318Y-70216182D01*
X52858312Y-70216177D01*
X52847594Y-70210285D01*
X52831335Y-70199606D01*
X52821664Y-70192104D01*
X52821661Y-70192102D01*
X52815505Y-70187327D01*
X52808348Y-70184229D01*
X52808345Y-70184228D01*
X52775418Y-70169978D01*
X52764932Y-70164841D01*
X52733501Y-70147562D01*
X52733492Y-70147558D01*
X52726661Y-70143803D01*
X52719104Y-70141862D01*
X52719100Y-70141861D01*
X52707257Y-70138820D01*
X52688853Y-70132519D01*
X52677626Y-70127660D01*
X52677619Y-70127658D01*
X52670465Y-70124562D01*
X52662761Y-70123341D01*
X52662759Y-70123341D01*
X52627328Y-70117729D01*
X52615893Y-70115361D01*
X52581140Y-70106438D01*
X52581132Y-70106437D01*
X52573588Y-70104500D01*
X52565792Y-70104500D01*
X52553552Y-70104500D01*
X52534166Y-70102974D01*
X52514373Y-70099840D01*
X52506607Y-70100574D01*
X52506604Y-70100574D01*
X52470893Y-70103950D01*
X52459224Y-70104500D01*
X51723203Y-70104500D01*
X51712150Y-70103979D01*
X51704764Y-70102328D01*
X51696966Y-70102573D01*
X51637576Y-70104439D01*
X51633682Y-70104500D01*
X51606081Y-70104500D01*
X51602230Y-70104986D01*
X51602199Y-70104988D01*
X51602071Y-70105005D01*
X51590460Y-70105918D01*
X51554603Y-70107045D01*
X51554596Y-70107046D01*
X51546804Y-70107291D01*
X51539319Y-70109465D01*
X51539303Y-70109468D01*
X51527557Y-70112881D01*
X51508514Y-70116825D01*
X51496380Y-70118358D01*
X51496379Y-70118358D01*
X51488639Y-70119336D01*
X51481389Y-70122205D01*
X51481382Y-70122208D01*
X51448029Y-70135413D01*
X51436985Y-70139194D01*
X51402532Y-70149204D01*
X51402521Y-70149208D01*
X51395041Y-70151382D01*
X51388329Y-70155351D01*
X51388327Y-70155352D01*
X51377795Y-70161580D01*
X51360335Y-70170134D01*
X51348950Y-70174642D01*
X51348944Y-70174644D01*
X51341699Y-70177514D01*
X51335394Y-70182094D01*
X51335386Y-70182099D01*
X51306363Y-70203185D01*
X51296605Y-70209595D01*
X51265727Y-70227857D01*
X51265721Y-70227861D01*
X51259011Y-70231830D01*
X51253498Y-70237341D01*
X51253491Y-70237348D01*
X51244841Y-70245998D01*
X51230058Y-70258624D01*
X51220157Y-70265817D01*
X51220147Y-70265826D01*
X51213844Y-70270406D01*
X51208875Y-70276411D01*
X51208872Y-70276415D01*
X51186003Y-70304059D01*
X51178142Y-70312697D01*
X48462181Y-73028659D01*
X48412818Y-73058909D01*
X48355102Y-73063451D01*
X48301615Y-73041296D01*
X48264015Y-72997273D01*
X48250500Y-72940978D01*
X48250500Y-53015452D01*
X48259939Y-52967999D01*
X48286819Y-52927771D01*
X49244772Y-51969819D01*
X49285000Y-51942939D01*
X49332453Y-51933500D01*
X52515209Y-51933500D01*
X52564022Y-51943512D01*
X52604952Y-51971930D01*
X52631390Y-52014165D01*
X52654204Y-52075331D01*
X52659518Y-52082430D01*
X52659519Y-52082431D01*
X52680808Y-52110870D01*
X52740454Y-52190546D01*
X52855669Y-52276796D01*
X52990517Y-52327091D01*
X53050127Y-52333500D01*
X54645872Y-52333499D01*
X54705483Y-52327091D01*
X54840331Y-52276796D01*
X54955546Y-52190546D01*
X55041796Y-52075331D01*
X55092091Y-51940483D01*
X55098500Y-51880873D01*
X55098499Y-51817449D01*
X55112013Y-51761158D01*
X55149613Y-51717134D01*
X55203100Y-51694978D01*
X55260817Y-51699520D01*
X55310179Y-51729769D01*
X56289967Y-52709558D01*
X57250181Y-53669772D01*
X57277061Y-53710000D01*
X57286500Y-53757453D01*
X57286500Y-62914233D01*
X57270829Y-62974572D01*
X57227778Y-63019660D01*
X57190307Y-63042860D01*
X57190297Y-63042866D01*
X57185438Y-63045876D01*
X57181207Y-63049732D01*
X57181203Y-63049736D01*
X57025259Y-63191897D01*
X57025249Y-63191907D01*
X57021019Y-63195764D01*
X57017570Y-63200330D01*
X57017561Y-63200341D01*
X56890394Y-63368738D01*
X56890387Y-63368748D01*
X56886942Y-63373311D01*
X56884392Y-63378431D01*
X56884387Y-63378440D01*
X56790325Y-63567341D01*
X56790321Y-63567349D01*
X56787771Y-63572472D01*
X56786205Y-63577975D01*
X56786201Y-63577986D01*
X56742405Y-63731916D01*
X56726885Y-63786464D01*
X56726356Y-63792169D01*
X56726356Y-63792171D01*
X56712541Y-63941263D01*
X56706357Y-64008000D01*
X56726885Y-64229536D01*
X56728454Y-64235050D01*
X56786201Y-64438013D01*
X56786204Y-64438021D01*
X56787771Y-64443528D01*
X56790323Y-64448653D01*
X56790325Y-64448658D01*
X56884387Y-64637559D01*
X56884389Y-64637563D01*
X56886942Y-64642689D01*
X56890392Y-64647258D01*
X56890398Y-64647267D01*
X56899088Y-64658774D01*
X56923605Y-64722059D01*
X56911134Y-64788772D01*
X56865412Y-64838927D01*
X56800134Y-64857500D01*
X53728452Y-64857500D01*
X53680999Y-64848061D01*
X53640771Y-64821181D01*
X53288439Y-64468849D01*
X53257669Y-64417847D01*
X53254292Y-64359426D01*
X53255115Y-64356536D01*
X53275643Y-64135000D01*
X53255115Y-63913464D01*
X53194229Y-63699472D01*
X53095058Y-63500311D01*
X53090749Y-63494605D01*
X52964438Y-63327341D01*
X52964434Y-63327337D01*
X52960981Y-63322764D01*
X52956744Y-63318901D01*
X52956740Y-63318897D01*
X52800796Y-63176736D01*
X52800797Y-63176736D01*
X52796562Y-63172876D01*
X52791692Y-63169861D01*
X52791690Y-63169859D01*
X52612275Y-63058771D01*
X52612276Y-63058771D01*
X52607401Y-63055753D01*
X52591869Y-63049736D01*
X52405286Y-62977453D01*
X52405285Y-62977452D01*
X52399940Y-62975382D01*
X52394302Y-62974328D01*
X52186872Y-62935552D01*
X52186869Y-62935551D01*
X52181243Y-62934500D01*
X51958757Y-62934500D01*
X51953131Y-62935551D01*
X51953127Y-62935552D01*
X51745697Y-62974328D01*
X51745694Y-62974328D01*
X51740060Y-62975382D01*
X51734717Y-62977451D01*
X51734713Y-62977453D01*
X51537941Y-63053683D01*
X51537936Y-63053685D01*
X51532599Y-63055753D01*
X51527727Y-63058769D01*
X51527724Y-63058771D01*
X51348309Y-63169859D01*
X51348301Y-63169864D01*
X51343438Y-63172876D01*
X51339207Y-63176732D01*
X51339203Y-63176736D01*
X51183259Y-63318897D01*
X51183249Y-63318907D01*
X51179019Y-63322764D01*
X51175570Y-63327330D01*
X51175561Y-63327341D01*
X51048394Y-63495738D01*
X51048387Y-63495748D01*
X51044942Y-63500311D01*
X51042392Y-63505431D01*
X51042387Y-63505440D01*
X50948325Y-63694341D01*
X50948321Y-63694349D01*
X50945771Y-63699472D01*
X50944205Y-63704975D01*
X50944201Y-63704986D01*
X50898902Y-63864199D01*
X50884885Y-63913464D01*
X50884356Y-63919169D01*
X50884356Y-63919171D01*
X50882309Y-63941263D01*
X50864357Y-64135000D01*
X50864886Y-64140709D01*
X50876350Y-64264433D01*
X50884885Y-64356536D01*
X50886454Y-64362050D01*
X50944201Y-64565013D01*
X50944204Y-64565021D01*
X50945771Y-64570528D01*
X50948323Y-64575653D01*
X50948325Y-64575658D01*
X51042387Y-64764559D01*
X51042389Y-64764563D01*
X51044942Y-64769689D01*
X51048391Y-64774256D01*
X51048394Y-64774261D01*
X51175561Y-64942658D01*
X51175566Y-64942663D01*
X51179019Y-64947236D01*
X51183255Y-64951097D01*
X51183259Y-64951102D01*
X51295603Y-65053517D01*
X51343438Y-65097124D01*
X51532599Y-65214247D01*
X51740060Y-65294618D01*
X51958757Y-65335500D01*
X52175514Y-65335500D01*
X52181243Y-65335500D01*
X52186880Y-65334446D01*
X52186882Y-65334446D01*
X52289426Y-65315277D01*
X52348891Y-65318714D01*
X52399893Y-65349484D01*
X52920707Y-65870298D01*
X52928159Y-65878487D01*
X52932214Y-65884877D01*
X52979051Y-65928860D01*
X52981223Y-65930900D01*
X52984019Y-65933610D01*
X53003529Y-65953120D01*
X53006709Y-65955587D01*
X53015571Y-65963155D01*
X53028880Y-65975654D01*
X53041732Y-65987723D01*
X53041734Y-65987724D01*
X53047418Y-65993062D01*
X53054251Y-65996818D01*
X53054252Y-65996819D01*
X53064973Y-66002713D01*
X53081234Y-66013394D01*
X53097064Y-66025673D01*
X53137154Y-66043021D01*
X53147631Y-66048154D01*
X53185908Y-66069197D01*
X53202957Y-66073574D01*
X53205305Y-66074177D01*
X53223719Y-66080481D01*
X53242104Y-66088438D01*
X53285265Y-66095273D01*
X53296664Y-66097634D01*
X53338981Y-66108500D01*
X53359017Y-66108500D01*
X53378402Y-66110025D01*
X53398196Y-66113160D01*
X53436276Y-66109560D01*
X53441676Y-66109050D01*
X53453345Y-66108500D01*
X112239225Y-66108500D01*
X112250280Y-66109021D01*
X112257667Y-66110673D01*
X112324872Y-66108561D01*
X112328768Y-66108500D01*
X112352448Y-66108500D01*
X112356350Y-66108500D01*
X112360313Y-66107999D01*
X112371963Y-66107080D01*
X112415627Y-66105709D01*
X112434861Y-66100119D01*
X112453917Y-66096174D01*
X112473792Y-66093664D01*
X112514395Y-66077587D01*
X112525450Y-66073802D01*
X112567390Y-66061618D01*
X112584629Y-66051422D01*
X112602103Y-66042862D01*
X112613474Y-66038360D01*
X112613476Y-66038358D01*
X112620732Y-66035486D01*
X112656069Y-66009811D01*
X112665824Y-66003403D01*
X112703420Y-65981170D01*
X112717584Y-65967005D01*
X112732379Y-65954368D01*
X112748587Y-65942594D01*
X112776428Y-65908938D01*
X112784279Y-65900309D01*
X113885179Y-64799410D01*
X113940765Y-64767318D01*
X114004951Y-64767318D01*
X114038255Y-64776242D01*
X114068078Y-64784234D01*
X114068082Y-64784234D01*
X114073308Y-64785635D01*
X114300000Y-64805468D01*
X114526692Y-64785635D01*
X114746496Y-64726739D01*
X114952734Y-64630568D01*
X115139139Y-64500047D01*
X115300047Y-64339139D01*
X115430568Y-64152734D01*
X115526739Y-63946496D01*
X115585635Y-63726692D01*
X115605468Y-63500000D01*
X115585635Y-63273308D01*
X115559759Y-63176736D01*
X115528141Y-63058736D01*
X115528140Y-63058734D01*
X115526739Y-63053504D01*
X115430568Y-62847266D01*
X115300047Y-62660861D01*
X115139139Y-62499953D01*
X114952734Y-62369432D01*
X114746496Y-62273261D01*
X114741271Y-62271861D01*
X114741263Y-62271858D01*
X114531916Y-62215764D01*
X114531907Y-62215762D01*
X114526692Y-62214365D01*
X114521304Y-62213893D01*
X114521301Y-62213893D01*
X114305395Y-62195004D01*
X114300000Y-62194532D01*
X114294605Y-62195004D01*
X114294602Y-62195004D01*
X114255893Y-62198390D01*
X114196636Y-62189004D01*
X114148721Y-62152897D01*
X114123366Y-62098522D01*
X114126506Y-62038608D01*
X114157405Y-61987183D01*
X117227311Y-58917278D01*
X117235481Y-58909844D01*
X117241877Y-58905786D01*
X117287918Y-58856756D01*
X117290535Y-58854054D01*
X117310120Y-58834471D01*
X117312585Y-58831292D01*
X117320167Y-58822416D01*
X117350062Y-58790582D01*
X117359713Y-58773023D01*
X117370390Y-58756770D01*
X117382673Y-58740936D01*
X117400026Y-58700832D01*
X117405158Y-58690361D01*
X117422435Y-58658935D01*
X117422435Y-58658934D01*
X117426197Y-58652092D01*
X117431177Y-58632691D01*
X117437481Y-58614281D01*
X117445438Y-58595896D01*
X117452272Y-58552741D01*
X117454638Y-58541321D01*
X117457612Y-58529741D01*
X117465500Y-58499019D01*
X117465500Y-58478983D01*
X117467025Y-58459597D01*
X117470160Y-58439804D01*
X117466050Y-58396324D01*
X117465500Y-58384655D01*
X117465500Y-55703767D01*
X117481171Y-55643428D01*
X117524222Y-55598340D01*
X117535206Y-55591538D01*
X117566562Y-55572124D01*
X117730981Y-55422236D01*
X117865058Y-55244689D01*
X117964229Y-55045528D01*
X118025115Y-54831536D01*
X118045643Y-54610000D01*
X118025115Y-54388464D01*
X117964229Y-54174472D01*
X117875111Y-53995500D01*
X117867612Y-53980440D01*
X117867610Y-53980436D01*
X117865058Y-53975311D01*
X117861605Y-53970738D01*
X117734438Y-53802341D01*
X117734434Y-53802337D01*
X117730981Y-53797764D01*
X117726744Y-53793901D01*
X117726740Y-53793897D01*
X117570796Y-53651736D01*
X117570797Y-53651736D01*
X117566562Y-53647876D01*
X117561692Y-53644861D01*
X117561690Y-53644859D01*
X117433782Y-53565663D01*
X117377401Y-53530753D01*
X117272386Y-53490070D01*
X117175286Y-53452453D01*
X117175285Y-53452452D01*
X117169940Y-53450382D01*
X117164302Y-53449328D01*
X116956872Y-53410552D01*
X116956869Y-53410551D01*
X116951243Y-53409500D01*
X116728757Y-53409500D01*
X116723131Y-53410551D01*
X116723127Y-53410552D01*
X116515697Y-53449328D01*
X116515694Y-53449328D01*
X116510060Y-53450382D01*
X116504717Y-53452451D01*
X116504713Y-53452453D01*
X116307941Y-53528683D01*
X116307936Y-53528685D01*
X116302599Y-53530753D01*
X116297727Y-53533769D01*
X116297724Y-53533771D01*
X116118309Y-53644859D01*
X116118301Y-53644864D01*
X116113438Y-53647876D01*
X116109207Y-53651732D01*
X116109203Y-53651736D01*
X115953259Y-53793897D01*
X115953249Y-53793907D01*
X115949019Y-53797764D01*
X115945570Y-53802330D01*
X115945561Y-53802341D01*
X115818394Y-53970738D01*
X115818387Y-53970748D01*
X115814942Y-53975311D01*
X115808081Y-53989091D01*
X115808000Y-53989253D01*
X115762277Y-54039407D01*
X115697000Y-54057980D01*
X115631723Y-54039407D01*
X115586000Y-53989253D01*
X115579058Y-53975311D01*
X115575605Y-53970738D01*
X115448438Y-53802341D01*
X115448434Y-53802337D01*
X115444981Y-53797764D01*
X115440744Y-53793901D01*
X115440740Y-53793897D01*
X115284796Y-53651736D01*
X115284797Y-53651736D01*
X115280562Y-53647876D01*
X115275692Y-53644861D01*
X115275690Y-53644859D01*
X115147782Y-53565663D01*
X115091401Y-53530753D01*
X114986386Y-53490070D01*
X114889286Y-53452453D01*
X114889285Y-53452452D01*
X114883940Y-53450382D01*
X114878302Y-53449328D01*
X114670872Y-53410552D01*
X114670869Y-53410551D01*
X114665243Y-53409500D01*
X114442757Y-53409500D01*
X114437131Y-53410551D01*
X114437127Y-53410552D01*
X114229697Y-53449328D01*
X114229694Y-53449328D01*
X114224060Y-53450382D01*
X114218717Y-53452451D01*
X114218713Y-53452453D01*
X114021941Y-53528683D01*
X114021936Y-53528685D01*
X114016599Y-53530753D01*
X114011727Y-53533769D01*
X114011724Y-53533771D01*
X113832309Y-53644859D01*
X113832301Y-53644864D01*
X113827438Y-53647876D01*
X113823207Y-53651732D01*
X113823203Y-53651736D01*
X113667259Y-53793897D01*
X113667249Y-53793907D01*
X113663019Y-53797764D01*
X113659570Y-53802330D01*
X113659561Y-53802341D01*
X113532394Y-53970738D01*
X113532387Y-53970748D01*
X113528942Y-53975311D01*
X113522081Y-53989091D01*
X113522000Y-53989253D01*
X113476277Y-54039407D01*
X113411000Y-54057980D01*
X113345723Y-54039407D01*
X113300000Y-53989253D01*
X113293058Y-53975311D01*
X113289605Y-53970738D01*
X113162438Y-53802341D01*
X113162434Y-53802337D01*
X113158981Y-53797764D01*
X113154744Y-53793901D01*
X113154740Y-53793897D01*
X112998796Y-53651736D01*
X112998797Y-53651736D01*
X112994562Y-53647876D01*
X112989692Y-53644861D01*
X112989690Y-53644859D01*
X112861782Y-53565663D01*
X112805401Y-53530753D01*
X112700386Y-53490070D01*
X112603286Y-53452453D01*
X112603285Y-53452452D01*
X112597940Y-53450382D01*
X112592302Y-53449328D01*
X112384872Y-53410552D01*
X112384869Y-53410551D01*
X112379243Y-53409500D01*
X112156757Y-53409500D01*
X112151131Y-53410551D01*
X112151127Y-53410552D01*
X111943697Y-53449328D01*
X111943694Y-53449328D01*
X111938060Y-53450382D01*
X111932717Y-53452451D01*
X111932713Y-53452453D01*
X111735941Y-53528683D01*
X111735936Y-53528685D01*
X111730599Y-53530753D01*
X111725727Y-53533769D01*
X111725724Y-53533771D01*
X111546309Y-53644859D01*
X111546301Y-53644864D01*
X111541438Y-53647876D01*
X111537207Y-53651732D01*
X111537203Y-53651736D01*
X111381259Y-53793897D01*
X111381249Y-53793907D01*
X111377019Y-53797764D01*
X111373570Y-53802330D01*
X111373561Y-53802341D01*
X111246394Y-53970738D01*
X111246387Y-53970748D01*
X111242942Y-53975311D01*
X111236081Y-53989091D01*
X111236000Y-53989253D01*
X111190277Y-54039407D01*
X111125000Y-54057980D01*
X111059723Y-54039407D01*
X111014000Y-53989253D01*
X111007058Y-53975311D01*
X111003605Y-53970738D01*
X110876438Y-53802341D01*
X110876434Y-53802337D01*
X110872981Y-53797764D01*
X110868744Y-53793901D01*
X110868740Y-53793897D01*
X110712796Y-53651736D01*
X110712797Y-53651736D01*
X110708562Y-53647876D01*
X110703692Y-53644861D01*
X110703690Y-53644859D01*
X110575782Y-53565663D01*
X110519401Y-53530753D01*
X110414386Y-53490070D01*
X110317286Y-53452453D01*
X110317285Y-53452452D01*
X110311940Y-53450382D01*
X110306302Y-53449328D01*
X110098872Y-53410552D01*
X110098869Y-53410551D01*
X110093243Y-53409500D01*
X109870757Y-53409500D01*
X109865131Y-53410551D01*
X109865127Y-53410552D01*
X109657697Y-53449328D01*
X109657694Y-53449328D01*
X109652060Y-53450382D01*
X109646717Y-53452451D01*
X109646713Y-53452453D01*
X109449941Y-53528683D01*
X109449936Y-53528685D01*
X109444599Y-53530753D01*
X109439727Y-53533769D01*
X109439724Y-53533771D01*
X109260309Y-53644859D01*
X109260301Y-53644864D01*
X109255438Y-53647876D01*
X109251207Y-53651732D01*
X109251203Y-53651736D01*
X109095259Y-53793897D01*
X109095249Y-53793907D01*
X109091019Y-53797764D01*
X109087570Y-53802330D01*
X109087561Y-53802341D01*
X108960394Y-53970738D01*
X108960387Y-53970748D01*
X108956942Y-53975311D01*
X108950081Y-53989091D01*
X108950000Y-53989253D01*
X108904277Y-54039407D01*
X108839000Y-54057980D01*
X108773723Y-54039407D01*
X108728000Y-53989253D01*
X108721058Y-53975311D01*
X108717605Y-53970738D01*
X108590438Y-53802341D01*
X108590434Y-53802337D01*
X108586981Y-53797764D01*
X108582744Y-53793901D01*
X108582740Y-53793897D01*
X108426796Y-53651736D01*
X108426797Y-53651736D01*
X108422562Y-53647876D01*
X108417692Y-53644861D01*
X108417690Y-53644859D01*
X108289782Y-53565663D01*
X108233401Y-53530753D01*
X108128386Y-53490070D01*
X108031286Y-53452453D01*
X108031285Y-53452452D01*
X108025940Y-53450382D01*
X108020302Y-53449328D01*
X107812872Y-53410552D01*
X107812869Y-53410551D01*
X107807243Y-53409500D01*
X107584757Y-53409500D01*
X107579132Y-53410551D01*
X107579126Y-53410552D01*
X107476572Y-53429723D01*
X107417107Y-53426285D01*
X107366106Y-53395515D01*
X106718785Y-52748194D01*
X106711341Y-52740013D01*
X106707285Y-52733622D01*
X106658274Y-52687597D01*
X106655477Y-52684886D01*
X106638726Y-52668135D01*
X106638725Y-52668134D01*
X106635970Y-52665379D01*
X106632789Y-52662911D01*
X106623913Y-52655329D01*
X106597768Y-52630777D01*
X106597766Y-52630775D01*
X106592081Y-52625437D01*
X106585248Y-52621681D01*
X106585242Y-52621676D01*
X106574524Y-52615784D01*
X106558265Y-52605105D01*
X106548594Y-52597603D01*
X106548591Y-52597601D01*
X106542435Y-52592826D01*
X106535278Y-52589728D01*
X106535275Y-52589727D01*
X106502348Y-52575477D01*
X106491862Y-52570340D01*
X106460431Y-52553061D01*
X106460422Y-52553057D01*
X106453591Y-52549302D01*
X106446034Y-52547361D01*
X106446030Y-52547360D01*
X106434187Y-52544319D01*
X106415783Y-52538018D01*
X106404556Y-52533159D01*
X106404549Y-52533157D01*
X106397395Y-52530061D01*
X106389691Y-52528840D01*
X106389689Y-52528840D01*
X106354258Y-52523228D01*
X106342823Y-52520860D01*
X106308070Y-52511937D01*
X106308062Y-52511936D01*
X106300518Y-52509999D01*
X106292722Y-52509999D01*
X106280482Y-52509999D01*
X106261096Y-52508473D01*
X106241303Y-52505339D01*
X106233537Y-52506073D01*
X106233534Y-52506073D01*
X106197823Y-52509449D01*
X106186154Y-52509999D01*
X103226704Y-52509999D01*
X103215651Y-52509478D01*
X103208265Y-52507827D01*
X103200467Y-52508072D01*
X103141077Y-52509938D01*
X103137183Y-52509999D01*
X103109582Y-52509999D01*
X103105731Y-52510485D01*
X103105700Y-52510487D01*
X103105572Y-52510504D01*
X103093961Y-52511417D01*
X103058104Y-52512544D01*
X103058097Y-52512545D01*
X103050305Y-52512790D01*
X103042820Y-52514964D01*
X103042804Y-52514967D01*
X103031058Y-52518380D01*
X103012015Y-52522324D01*
X102999881Y-52523857D01*
X102999880Y-52523857D01*
X102992140Y-52524835D01*
X102984890Y-52527704D01*
X102984883Y-52527707D01*
X102951530Y-52540912D01*
X102940486Y-52544693D01*
X102906033Y-52554703D01*
X102906022Y-52554707D01*
X102898542Y-52556881D01*
X102891830Y-52560850D01*
X102891828Y-52560851D01*
X102881296Y-52567079D01*
X102863836Y-52575633D01*
X102852451Y-52580141D01*
X102852445Y-52580143D01*
X102845200Y-52583013D01*
X102838895Y-52587593D01*
X102838887Y-52587598D01*
X102809864Y-52608684D01*
X102800106Y-52615094D01*
X102769228Y-52633356D01*
X102769222Y-52633360D01*
X102762512Y-52637329D01*
X102756999Y-52642840D01*
X102756992Y-52642847D01*
X102748342Y-52651497D01*
X102733559Y-52664123D01*
X102723658Y-52671316D01*
X102723648Y-52671325D01*
X102717345Y-52675905D01*
X102712376Y-52681910D01*
X102712373Y-52681914D01*
X102689504Y-52709558D01*
X102681643Y-52718196D01*
X101746315Y-53653523D01*
X101692568Y-53685108D01*
X101630244Y-53686548D01*
X101575096Y-53657479D01*
X101568796Y-53651736D01*
X101568797Y-53651736D01*
X101564562Y-53647876D01*
X101559692Y-53644861D01*
X101559690Y-53644859D01*
X101431782Y-53565663D01*
X101375401Y-53530753D01*
X101270386Y-53490070D01*
X101173286Y-53452453D01*
X101173285Y-53452452D01*
X101167940Y-53450382D01*
X101162302Y-53449328D01*
X100954872Y-53410552D01*
X100954869Y-53410551D01*
X100949243Y-53409500D01*
X100726757Y-53409500D01*
X100721131Y-53410551D01*
X100721127Y-53410552D01*
X100513697Y-53449328D01*
X100513694Y-53449328D01*
X100508060Y-53450382D01*
X100502717Y-53452451D01*
X100502713Y-53452453D01*
X100305941Y-53528683D01*
X100305936Y-53528685D01*
X100300599Y-53530753D01*
X100295727Y-53533769D01*
X100295724Y-53533771D01*
X100116309Y-53644859D01*
X100116301Y-53644864D01*
X100111438Y-53647876D01*
X100107207Y-53651732D01*
X100107203Y-53651736D01*
X99951259Y-53793897D01*
X99951249Y-53793907D01*
X99947019Y-53797764D01*
X99943570Y-53802330D01*
X99943561Y-53802341D01*
X99843212Y-53935227D01*
X99799530Y-53971500D01*
X99744258Y-53984500D01*
X99645742Y-53984500D01*
X99590470Y-53971500D01*
X99546788Y-53935227D01*
X99446438Y-53802341D01*
X99446434Y-53802337D01*
X99442981Y-53797764D01*
X99438744Y-53793901D01*
X99438740Y-53793897D01*
X99282796Y-53651736D01*
X99282797Y-53651736D01*
X99278562Y-53647876D01*
X99273692Y-53644861D01*
X99273690Y-53644859D01*
X99145782Y-53565663D01*
X99089401Y-53530753D01*
X98984386Y-53490070D01*
X98887286Y-53452453D01*
X98887285Y-53452452D01*
X98881940Y-53450382D01*
X98876302Y-53449328D01*
X98668872Y-53410552D01*
X98668869Y-53410551D01*
X98663243Y-53409500D01*
X98440757Y-53409500D01*
X98435131Y-53410551D01*
X98435127Y-53410552D01*
X98227697Y-53449328D01*
X98227694Y-53449328D01*
X98222060Y-53450382D01*
X98216717Y-53452451D01*
X98216713Y-53452453D01*
X98019941Y-53528683D01*
X98019936Y-53528685D01*
X98014599Y-53530753D01*
X98009727Y-53533769D01*
X98009724Y-53533771D01*
X97830309Y-53644859D01*
X97830301Y-53644864D01*
X97825438Y-53647876D01*
X97821207Y-53651732D01*
X97821203Y-53651736D01*
X97665259Y-53793897D01*
X97665249Y-53793907D01*
X97661019Y-53797764D01*
X97657570Y-53802330D01*
X97657561Y-53802341D01*
X97530394Y-53970738D01*
X97530387Y-53970748D01*
X97526942Y-53975311D01*
X97524392Y-53980431D01*
X97524387Y-53980440D01*
X97430325Y-54169341D01*
X97430321Y-54169349D01*
X97427771Y-54174472D01*
X97426205Y-54179975D01*
X97426201Y-54179986D01*
X97368454Y-54382949D01*
X97366885Y-54388464D01*
X97346357Y-54610000D01*
X97366885Y-54831536D01*
X97368454Y-54837050D01*
X97426201Y-55040013D01*
X97426204Y-55040021D01*
X97427771Y-55045528D01*
X97430323Y-55050653D01*
X97430325Y-55050658D01*
X97524387Y-55239559D01*
X97524388Y-55239560D01*
X97526942Y-55244689D01*
X97530391Y-55249256D01*
X97530394Y-55249261D01*
X97657561Y-55417658D01*
X97657566Y-55417663D01*
X97661019Y-55422236D01*
X97665255Y-55426097D01*
X97665259Y-55426102D01*
X97777603Y-55528517D01*
X97825438Y-55572124D01*
X97830305Y-55575137D01*
X97830307Y-55575139D01*
X97867778Y-55598340D01*
X97910829Y-55643428D01*
X97926500Y-55703767D01*
X97926500Y-58617547D01*
X97917061Y-58665000D01*
X97890181Y-58705228D01*
X94394821Y-62200586D01*
X94339234Y-62232680D01*
X94275048Y-62232680D01*
X94211920Y-62215765D01*
X94211911Y-62215763D01*
X94206692Y-62214365D01*
X94201304Y-62213893D01*
X94201301Y-62213893D01*
X93985395Y-62195004D01*
X93980000Y-62194532D01*
X93974605Y-62195004D01*
X93758698Y-62213893D01*
X93758693Y-62213893D01*
X93753308Y-62214365D01*
X93748094Y-62215762D01*
X93748083Y-62215764D01*
X93538736Y-62271858D01*
X93538724Y-62271862D01*
X93533504Y-62273261D01*
X93528599Y-62275547D01*
X93528594Y-62275550D01*
X93332176Y-62367142D01*
X93332172Y-62367144D01*
X93327266Y-62369432D01*
X93322833Y-62372535D01*
X93322826Y-62372540D01*
X93145296Y-62496847D01*
X93145291Y-62496850D01*
X93140861Y-62499953D01*
X93137037Y-62503776D01*
X93137031Y-62503782D01*
X92983782Y-62657031D01*
X92983776Y-62657037D01*
X92979953Y-62660861D01*
X92976850Y-62665291D01*
X92976847Y-62665296D01*
X92852540Y-62842826D01*
X92852535Y-62842833D01*
X92849432Y-62847266D01*
X92847148Y-62852163D01*
X92847141Y-62852176D01*
X92822382Y-62905274D01*
X92776625Y-62957450D01*
X92710000Y-62976869D01*
X92643375Y-62957450D01*
X92597618Y-62905274D01*
X92572858Y-62852176D01*
X92572855Y-62852172D01*
X92570568Y-62847266D01*
X92440047Y-62660861D01*
X92279139Y-62499953D01*
X92092734Y-62369432D01*
X91886496Y-62273261D01*
X91881271Y-62271861D01*
X91881263Y-62271858D01*
X91671916Y-62215764D01*
X91671907Y-62215762D01*
X91666692Y-62214365D01*
X91661304Y-62213893D01*
X91661301Y-62213893D01*
X91445395Y-62195004D01*
X91440000Y-62194532D01*
X91434605Y-62195004D01*
X91218698Y-62213893D01*
X91218693Y-62213893D01*
X91213308Y-62214365D01*
X91208094Y-62215762D01*
X91208083Y-62215764D01*
X90998736Y-62271858D01*
X90998724Y-62271862D01*
X90993504Y-62273261D01*
X90988599Y-62275547D01*
X90988594Y-62275550D01*
X90792176Y-62367142D01*
X90792172Y-62367144D01*
X90787266Y-62369432D01*
X90782833Y-62372535D01*
X90782826Y-62372540D01*
X90605296Y-62496847D01*
X90605291Y-62496850D01*
X90600861Y-62499953D01*
X90597037Y-62503776D01*
X90597031Y-62503782D01*
X90443782Y-62657031D01*
X90443776Y-62657037D01*
X90439953Y-62660861D01*
X90436850Y-62665291D01*
X90436847Y-62665296D01*
X90312540Y-62842826D01*
X90312535Y-62842833D01*
X90309432Y-62847266D01*
X90307144Y-62852172D01*
X90307142Y-62852176D01*
X90215550Y-63048594D01*
X90215547Y-63048599D01*
X90213261Y-63053504D01*
X90211862Y-63058724D01*
X90211858Y-63058736D01*
X90155764Y-63268083D01*
X90155762Y-63268094D01*
X90154365Y-63273308D01*
X90153893Y-63278693D01*
X90153893Y-63278698D01*
X90146016Y-63368738D01*
X90134532Y-63500000D01*
X90135004Y-63505395D01*
X90151983Y-63699472D01*
X90154365Y-63726692D01*
X90155762Y-63731907D01*
X90155764Y-63731916D01*
X90211858Y-63941263D01*
X90211861Y-63941271D01*
X90213261Y-63946496D01*
X90309432Y-64152734D01*
X90439953Y-64339139D01*
X90600861Y-64500047D01*
X90693643Y-64565013D01*
X90787266Y-64630568D01*
X90786312Y-64631929D01*
X90825884Y-64671506D01*
X90842493Y-64733505D01*
X90825878Y-64795503D01*
X90780491Y-64840888D01*
X90718493Y-64857500D01*
X75386452Y-64857500D01*
X75330157Y-64843985D01*
X75286134Y-64806385D01*
X75263979Y-64752898D01*
X75268521Y-64695182D01*
X75298771Y-64645819D01*
X82364577Y-57580013D01*
X89575821Y-50368768D01*
X89625182Y-50338520D01*
X89682898Y-50333978D01*
X89736385Y-50356133D01*
X89773985Y-50400156D01*
X89787500Y-50456451D01*
X89787500Y-50861560D01*
X89787500Y-50861578D01*
X89787501Y-50864872D01*
X89787853Y-50868150D01*
X89787854Y-50868161D01*
X89793079Y-50916768D01*
X89793080Y-50916773D01*
X89793909Y-50924483D01*
X89796619Y-50931749D01*
X89796620Y-50931753D01*
X89808816Y-50964451D01*
X89844204Y-51059331D01*
X89930454Y-51174546D01*
X90045669Y-51260796D01*
X90180517Y-51311091D01*
X90240127Y-51317500D01*
X91835872Y-51317499D01*
X91895483Y-51311091D01*
X92030331Y-51260796D01*
X92145546Y-51174546D01*
X92231796Y-51059331D01*
X92282091Y-50924483D01*
X92288500Y-50864873D01*
X92288499Y-49719128D01*
X92282091Y-49659517D01*
X92257368Y-49593232D01*
X92234896Y-49532980D01*
X92234895Y-49532978D01*
X92231796Y-49524669D01*
X92226477Y-49517564D01*
X92224188Y-49513372D01*
X92209194Y-49460541D01*
X92216695Y-49416848D01*
X92215023Y-49416341D01*
X92221026Y-49396551D01*
X92273662Y-49223033D01*
X92293462Y-49022000D01*
X92273662Y-48820967D01*
X92215023Y-48627659D01*
X92119798Y-48449506D01*
X92119798Y-48449505D01*
X92120539Y-48449109D01*
X92104831Y-48411197D01*
X92104831Y-48362803D01*
X92120539Y-48324890D01*
X92119798Y-48324494D01*
X92154271Y-48260000D01*
X92215023Y-48146341D01*
X92273662Y-47953033D01*
X92293462Y-47752000D01*
X92273662Y-47550967D01*
X92215023Y-47357659D01*
X92119798Y-47179506D01*
X91991647Y-47023353D01*
X91835494Y-46895202D01*
X91830118Y-46892328D01*
X91830116Y-46892327D01*
X91662713Y-46802848D01*
X91662709Y-46802846D01*
X91657341Y-46799977D01*
X91572270Y-46774171D01*
X91469863Y-46743106D01*
X91469858Y-46743105D01*
X91464033Y-46741338D01*
X91457974Y-46740741D01*
X91457968Y-46740740D01*
X91316414Y-46726798D01*
X91316397Y-46726797D01*
X91313380Y-46726500D01*
X90762620Y-46726500D01*
X90759603Y-46726797D01*
X90759585Y-46726798D01*
X90618031Y-46740740D01*
X90618023Y-46740741D01*
X90611967Y-46741338D01*
X90606143Y-46743104D01*
X90606136Y-46743106D01*
X90424486Y-46798209D01*
X90424482Y-46798210D01*
X90418659Y-46799977D01*
X90413293Y-46802844D01*
X90413286Y-46802848D01*
X90245883Y-46892327D01*
X90245876Y-46892331D01*
X90240506Y-46895202D01*
X90235798Y-46899065D01*
X90235793Y-46899069D01*
X90089059Y-47019490D01*
X90089053Y-47019495D01*
X90084353Y-47023353D01*
X90080495Y-47028053D01*
X90080490Y-47028059D01*
X89960069Y-47174793D01*
X89960065Y-47174798D01*
X89956202Y-47179506D01*
X89953331Y-47184876D01*
X89953327Y-47184883D01*
X89863848Y-47352286D01*
X89863844Y-47352293D01*
X89860977Y-47357659D01*
X89859210Y-47363482D01*
X89859209Y-47363486D01*
X89804106Y-47545136D01*
X89804104Y-47545143D01*
X89802338Y-47550967D01*
X89801741Y-47557023D01*
X89801740Y-47557031D01*
X89787641Y-47700187D01*
X89782538Y-47752000D01*
X89783135Y-47758061D01*
X89801740Y-47946968D01*
X89801741Y-47946974D01*
X89802338Y-47953033D01*
X89804105Y-47958858D01*
X89804106Y-47958863D01*
X89851253Y-48114286D01*
X89860977Y-48146341D01*
X89863846Y-48151709D01*
X89863848Y-48151713D01*
X89915893Y-48249081D01*
X89930226Y-48316289D01*
X89906569Y-48380809D01*
X89852189Y-48422823D01*
X89840593Y-48427415D01*
X89829539Y-48431200D01*
X89822048Y-48433377D01*
X89795094Y-48441208D01*
X89795089Y-48441209D01*
X89787610Y-48443383D01*
X89780908Y-48447346D01*
X89780897Y-48447351D01*
X89770364Y-48453581D01*
X89752900Y-48462136D01*
X89741524Y-48466640D01*
X89741517Y-48466643D01*
X89734268Y-48469514D01*
X89727962Y-48474094D01*
X89727957Y-48474098D01*
X89698927Y-48495189D01*
X89689169Y-48501598D01*
X89658298Y-48519856D01*
X89651579Y-48523830D01*
X89646063Y-48529344D01*
X89646056Y-48529351D01*
X89637407Y-48538000D01*
X89622624Y-48550626D01*
X89612727Y-48557817D01*
X89612720Y-48557823D01*
X89606413Y-48562406D01*
X89601446Y-48568408D01*
X89601435Y-48568420D01*
X89578570Y-48596059D01*
X89570710Y-48604697D01*
X73804228Y-64371181D01*
X73764000Y-64398061D01*
X73716547Y-64407500D01*
X73434682Y-64407500D01*
X73379410Y-64394500D01*
X73335728Y-64358227D01*
X73312793Y-64306285D01*
X73315416Y-64249566D01*
X73315460Y-64249408D01*
X73321115Y-64229536D01*
X73341643Y-64008000D01*
X73321115Y-63786464D01*
X73260229Y-63572472D01*
X73161058Y-63373311D01*
X73157605Y-63368738D01*
X73030438Y-63200341D01*
X73030434Y-63200337D01*
X73026981Y-63195764D01*
X73022744Y-63191901D01*
X73022740Y-63191897D01*
X72876669Y-63058736D01*
X72862562Y-63045876D01*
X72857696Y-63042863D01*
X72857692Y-63042860D01*
X72820222Y-63019660D01*
X72777171Y-62974572D01*
X72761500Y-62914233D01*
X72761500Y-61138452D01*
X72770939Y-61090999D01*
X72797819Y-61050771D01*
X77882305Y-55966285D01*
X82971821Y-50876768D01*
X83021182Y-50846520D01*
X83078898Y-50841978D01*
X83132385Y-50864133D01*
X83169985Y-50908156D01*
X83183500Y-50964451D01*
X83183500Y-51369560D01*
X83183500Y-51369578D01*
X83183501Y-51372872D01*
X83183853Y-51376150D01*
X83183854Y-51376161D01*
X83189079Y-51424768D01*
X83189080Y-51424773D01*
X83189909Y-51432483D01*
X83192619Y-51439749D01*
X83192620Y-51439753D01*
X83221838Y-51518089D01*
X83240204Y-51567331D01*
X83245518Y-51574430D01*
X83245519Y-51574431D01*
X83287238Y-51630161D01*
X83326454Y-51682546D01*
X83441669Y-51768796D01*
X83576517Y-51819091D01*
X83636127Y-51825500D01*
X85231872Y-51825499D01*
X85291483Y-51819091D01*
X85426331Y-51768796D01*
X85541546Y-51682546D01*
X85627796Y-51567331D01*
X85678091Y-51432483D01*
X85684500Y-51372873D01*
X85684499Y-50227128D01*
X85678091Y-50167517D01*
X85648789Y-50088953D01*
X85630896Y-50040980D01*
X85630895Y-50040978D01*
X85627796Y-50032669D01*
X85622477Y-50025564D01*
X85620188Y-50021372D01*
X85605194Y-49968541D01*
X85612695Y-49924848D01*
X85611023Y-49924341D01*
X85621132Y-49891017D01*
X85669662Y-49731033D01*
X85689462Y-49530000D01*
X85669662Y-49328967D01*
X85611023Y-49135659D01*
X85515798Y-48957506D01*
X85516539Y-48957109D01*
X85500831Y-48919197D01*
X85500831Y-48870803D01*
X85516539Y-48832890D01*
X85515798Y-48832494D01*
X85550271Y-48768000D01*
X85611023Y-48654341D01*
X85669662Y-48461033D01*
X85689462Y-48260000D01*
X85669662Y-48058967D01*
X85611023Y-47865659D01*
X85522572Y-47700179D01*
X85510998Y-47668996D01*
X85510287Y-47661467D01*
X85456754Y-47512772D01*
X85367923Y-47382063D01*
X85340242Y-47357659D01*
X85281885Y-47306209D01*
X85249378Y-47277550D01*
X85242426Y-47274008D01*
X85242422Y-47274005D01*
X85115517Y-47209345D01*
X85115512Y-47209343D01*
X85108564Y-47205803D01*
X85100950Y-47204101D01*
X84961945Y-47173029D01*
X84961939Y-47173028D01*
X84954332Y-47171328D01*
X84946534Y-47171573D01*
X84804168Y-47176046D01*
X84804167Y-47176046D01*
X84796372Y-47176291D01*
X84788885Y-47178466D01*
X84788880Y-47178467D01*
X84652103Y-47218205D01*
X84652095Y-47218208D01*
X84644610Y-47220383D01*
X84637964Y-47224313D01*
X84588769Y-47234500D01*
X84344453Y-47234500D01*
X84297000Y-47225061D01*
X84256772Y-47198181D01*
X77877819Y-40819228D01*
X77850939Y-40779000D01*
X77841500Y-40731547D01*
X77841500Y-39994000D01*
X77858113Y-39932000D01*
X77903500Y-39886613D01*
X77965500Y-39870000D01*
X79339816Y-39869999D01*
X79537872Y-39869999D01*
X79597483Y-39863591D01*
X79732331Y-39813296D01*
X79847546Y-39727046D01*
X79933796Y-39611831D01*
X79984091Y-39476983D01*
X79990500Y-39417373D01*
X79990499Y-39351361D01*
X80006045Y-39291248D01*
X80048788Y-39246206D01*
X80108008Y-39227533D01*
X80168856Y-39239912D01*
X80216074Y-39280239D01*
X80315296Y-39421942D01*
X80315299Y-39421946D01*
X80318402Y-39426377D01*
X80473123Y-39581098D01*
X80477555Y-39584201D01*
X80477557Y-39584203D01*
X80522968Y-39616000D01*
X80652361Y-39706602D01*
X80657261Y-39708887D01*
X80657263Y-39708888D01*
X80845057Y-39796458D01*
X80850670Y-39799075D01*
X80986595Y-39835496D01*
X81056790Y-39854305D01*
X81056791Y-39854305D01*
X81062023Y-39855707D01*
X81280000Y-39874777D01*
X81497977Y-39855707D01*
X81709330Y-39799075D01*
X81907639Y-39706602D01*
X82086877Y-39581098D01*
X82241598Y-39426377D01*
X82367102Y-39247139D01*
X82437617Y-39095917D01*
X82483375Y-39043741D01*
X82550000Y-39024321D01*
X82616625Y-39043741D01*
X82662382Y-39095917D01*
X82730609Y-39242232D01*
X82730613Y-39242239D01*
X82732898Y-39247139D01*
X82735997Y-39251566D01*
X82735999Y-39251568D01*
X82855296Y-39421942D01*
X82855299Y-39421946D01*
X82858402Y-39426377D01*
X83013123Y-39581098D01*
X83017555Y-39584201D01*
X83017557Y-39584203D01*
X83062968Y-39616000D01*
X83192361Y-39706602D01*
X83197261Y-39708887D01*
X83197263Y-39708888D01*
X83385057Y-39796458D01*
X83390670Y-39799075D01*
X83526595Y-39835496D01*
X83596790Y-39854305D01*
X83596791Y-39854305D01*
X83602023Y-39855707D01*
X83820000Y-39874777D01*
X84037977Y-39855707D01*
X84249330Y-39799075D01*
X84447639Y-39706602D01*
X84626877Y-39581098D01*
X84781598Y-39426377D01*
X84907102Y-39247139D01*
X84977617Y-39095917D01*
X85023375Y-39043741D01*
X85090000Y-39024321D01*
X85156625Y-39043741D01*
X85202382Y-39095917D01*
X85270609Y-39242232D01*
X85270613Y-39242239D01*
X85272898Y-39247139D01*
X85275997Y-39251566D01*
X85275999Y-39251568D01*
X85395296Y-39421942D01*
X85395299Y-39421946D01*
X85398402Y-39426377D01*
X85553123Y-39581098D01*
X85557555Y-39584201D01*
X85557557Y-39584203D01*
X85602968Y-39616000D01*
X85732361Y-39706602D01*
X85737261Y-39708887D01*
X85737263Y-39708888D01*
X85925057Y-39796458D01*
X85930670Y-39799075D01*
X86066595Y-39835496D01*
X86136790Y-39854305D01*
X86136791Y-39854305D01*
X86142023Y-39855707D01*
X86360000Y-39874777D01*
X86577977Y-39855707D01*
X86789330Y-39799075D01*
X86987639Y-39706602D01*
X87166877Y-39581098D01*
X87321598Y-39426377D01*
X87447102Y-39247139D01*
X87517617Y-39095917D01*
X87563375Y-39043741D01*
X87630000Y-39024321D01*
X87696625Y-39043741D01*
X87742382Y-39095917D01*
X87810609Y-39242232D01*
X87810613Y-39242239D01*
X87812898Y-39247139D01*
X87815997Y-39251566D01*
X87815999Y-39251568D01*
X87935296Y-39421942D01*
X87935299Y-39421946D01*
X87938402Y-39426377D01*
X88093123Y-39581098D01*
X88097555Y-39584201D01*
X88097557Y-39584203D01*
X88142968Y-39616000D01*
X88272361Y-39706602D01*
X88277261Y-39708887D01*
X88277263Y-39708888D01*
X88465057Y-39796458D01*
X88470670Y-39799075D01*
X88606595Y-39835496D01*
X88676790Y-39854305D01*
X88676791Y-39854305D01*
X88682023Y-39855707D01*
X88900000Y-39874777D01*
X89117977Y-39855707D01*
X89329330Y-39799075D01*
X89527639Y-39706602D01*
X89706877Y-39581098D01*
X89861598Y-39426377D01*
X89987102Y-39247139D01*
X90079575Y-39048830D01*
X90129527Y-38862406D01*
X90154312Y-38814794D01*
X90196897Y-38782118D01*
X90249302Y-38770500D01*
X94995500Y-38770500D01*
X95057500Y-38787113D01*
X95102887Y-38832500D01*
X95119500Y-38894500D01*
X95119500Y-40319560D01*
X95119500Y-40319578D01*
X95119501Y-40322872D01*
X95119853Y-40326150D01*
X95119854Y-40326161D01*
X95125079Y-40374768D01*
X95125080Y-40374773D01*
X95125909Y-40382483D01*
X95128619Y-40389749D01*
X95128620Y-40389753D01*
X95162217Y-40479831D01*
X95176204Y-40517331D01*
X95181518Y-40524430D01*
X95181519Y-40524431D01*
X95219495Y-40575161D01*
X95262454Y-40632546D01*
X95377669Y-40718796D01*
X95512517Y-40769091D01*
X95572127Y-40775500D01*
X97467872Y-40775499D01*
X97527483Y-40769091D01*
X97662331Y-40718796D01*
X97777546Y-40632546D01*
X97863796Y-40517331D01*
X97914091Y-40382483D01*
X97920500Y-40322873D01*
X97920499Y-38894499D01*
X97937112Y-38832500D01*
X97982499Y-38787113D01*
X98044499Y-38770500D01*
X101495501Y-38770500D01*
X101557501Y-38787113D01*
X101602888Y-38832500D01*
X101619501Y-38894500D01*
X101619501Y-39163372D01*
X101619853Y-39166650D01*
X101619854Y-39166661D01*
X101625079Y-39215268D01*
X101625080Y-39215273D01*
X101625909Y-39222983D01*
X101628619Y-39230249D01*
X101628620Y-39230253D01*
X101647264Y-39280239D01*
X101676204Y-39357831D01*
X101681518Y-39364930D01*
X101681519Y-39364931D01*
X101747149Y-39452602D01*
X101762454Y-39473046D01*
X101877669Y-39559296D01*
X102012517Y-39609591D01*
X102072127Y-39616000D01*
X102120500Y-39616000D01*
X102182500Y-39632613D01*
X102227887Y-39678000D01*
X102244500Y-39740000D01*
X102244500Y-42086225D01*
X102243978Y-42097280D01*
X102242327Y-42104667D01*
X102242571Y-42112453D01*
X102242571Y-42112461D01*
X102244439Y-42171873D01*
X102244500Y-42175768D01*
X102244500Y-42203350D01*
X102244988Y-42207219D01*
X102244989Y-42207225D01*
X102245004Y-42207343D01*
X102245918Y-42218966D01*
X102247045Y-42254830D01*
X102247046Y-42254837D01*
X102247291Y-42262627D01*
X102249467Y-42270119D01*
X102249468Y-42270121D01*
X102252879Y-42281862D01*
X102256825Y-42300915D01*
X102259336Y-42320792D01*
X102262206Y-42328042D01*
X102262208Y-42328048D01*
X102275414Y-42361404D01*
X102279197Y-42372451D01*
X102291382Y-42414390D01*
X102295353Y-42421105D01*
X102295354Y-42421107D01*
X102301581Y-42431637D01*
X102310136Y-42449099D01*
X102314642Y-42460480D01*
X102314643Y-42460483D01*
X102317514Y-42467732D01*
X102339440Y-42497912D01*
X102343181Y-42503060D01*
X102349593Y-42512822D01*
X102367856Y-42543702D01*
X102367859Y-42543707D01*
X102371830Y-42550420D01*
X102377344Y-42555934D01*
X102377345Y-42555935D01*
X102385990Y-42564580D01*
X102398626Y-42579374D01*
X102405819Y-42589275D01*
X102405823Y-42589279D01*
X102410406Y-42595587D01*
X102416415Y-42600558D01*
X102416416Y-42600559D01*
X102444058Y-42623426D01*
X102452699Y-42631289D01*
X105399229Y-45577819D01*
X105429479Y-45627182D01*
X105434021Y-45684898D01*
X105411866Y-45738385D01*
X105367843Y-45775985D01*
X105311548Y-45789500D01*
X105298757Y-45789500D01*
X105293131Y-45790551D01*
X105293127Y-45790552D01*
X105085697Y-45829328D01*
X105085694Y-45829328D01*
X105080060Y-45830382D01*
X105074717Y-45832451D01*
X105074713Y-45832453D01*
X104877941Y-45908683D01*
X104877936Y-45908685D01*
X104872599Y-45910753D01*
X104867727Y-45913769D01*
X104867724Y-45913771D01*
X104688309Y-46024859D01*
X104688301Y-46024864D01*
X104683438Y-46027876D01*
X104679207Y-46031732D01*
X104679203Y-46031736D01*
X104523259Y-46173897D01*
X104523249Y-46173907D01*
X104519019Y-46177764D01*
X104515570Y-46182330D01*
X104515561Y-46182341D01*
X104388394Y-46350738D01*
X104388387Y-46350748D01*
X104384942Y-46355311D01*
X104379066Y-46367113D01*
X104378000Y-46369253D01*
X104332277Y-46419407D01*
X104267000Y-46437980D01*
X104201723Y-46419407D01*
X104156000Y-46369253D01*
X104155991Y-46369235D01*
X104149058Y-46355311D01*
X104145605Y-46350738D01*
X104018438Y-46182341D01*
X104018434Y-46182337D01*
X104014981Y-46177764D01*
X104010744Y-46173901D01*
X104010740Y-46173897D01*
X103854796Y-46031736D01*
X103854797Y-46031736D01*
X103850562Y-46027876D01*
X103845691Y-46024860D01*
X103845690Y-46024859D01*
X103675856Y-45919703D01*
X103661401Y-45910753D01*
X103453940Y-45830382D01*
X103448302Y-45829328D01*
X103240872Y-45790552D01*
X103240869Y-45790551D01*
X103235243Y-45789500D01*
X103012757Y-45789500D01*
X103007131Y-45790551D01*
X103007127Y-45790552D01*
X102799697Y-45829328D01*
X102799694Y-45829328D01*
X102794060Y-45830382D01*
X102788717Y-45832451D01*
X102788713Y-45832453D01*
X102591941Y-45908683D01*
X102591936Y-45908685D01*
X102586599Y-45910753D01*
X102581727Y-45913769D01*
X102581724Y-45913771D01*
X102402309Y-46024859D01*
X102402301Y-46024864D01*
X102397438Y-46027876D01*
X102393207Y-46031732D01*
X102393203Y-46031736D01*
X102237259Y-46173897D01*
X102237249Y-46173907D01*
X102233019Y-46177764D01*
X102229570Y-46182330D01*
X102229561Y-46182341D01*
X102102394Y-46350738D01*
X102102387Y-46350748D01*
X102098942Y-46355311D01*
X102093066Y-46367113D01*
X102092000Y-46369253D01*
X102046277Y-46419407D01*
X101981000Y-46437980D01*
X101915723Y-46419407D01*
X101870000Y-46369253D01*
X101869991Y-46369235D01*
X101863058Y-46355311D01*
X101859605Y-46350738D01*
X101732438Y-46182341D01*
X101732434Y-46182337D01*
X101728981Y-46177764D01*
X101724744Y-46173901D01*
X101724740Y-46173897D01*
X101568796Y-46031736D01*
X101568797Y-46031736D01*
X101564562Y-46027876D01*
X101559691Y-46024860D01*
X101559690Y-46024859D01*
X101389856Y-45919703D01*
X101375401Y-45910753D01*
X101167940Y-45830382D01*
X101162302Y-45829328D01*
X100954872Y-45790552D01*
X100954869Y-45790551D01*
X100949243Y-45789500D01*
X100726757Y-45789500D01*
X100721131Y-45790551D01*
X100721127Y-45790552D01*
X100513697Y-45829328D01*
X100513694Y-45829328D01*
X100508060Y-45830382D01*
X100502717Y-45832451D01*
X100502713Y-45832453D01*
X100305941Y-45908683D01*
X100305936Y-45908685D01*
X100300599Y-45910753D01*
X100295727Y-45913769D01*
X100295724Y-45913771D01*
X100116309Y-46024859D01*
X100116301Y-46024864D01*
X100111438Y-46027876D01*
X100107207Y-46031732D01*
X100107203Y-46031736D01*
X99951259Y-46173897D01*
X99951249Y-46173907D01*
X99947019Y-46177764D01*
X99943570Y-46182330D01*
X99943561Y-46182341D01*
X99816394Y-46350738D01*
X99816387Y-46350748D01*
X99812942Y-46355311D01*
X99807066Y-46367113D01*
X99806000Y-46369253D01*
X99760277Y-46419407D01*
X99695000Y-46437980D01*
X99629723Y-46419407D01*
X99584000Y-46369253D01*
X99583991Y-46369235D01*
X99577058Y-46355311D01*
X99573605Y-46350738D01*
X99446438Y-46182341D01*
X99446434Y-46182337D01*
X99442981Y-46177764D01*
X99438744Y-46173901D01*
X99438740Y-46173897D01*
X99282796Y-46031736D01*
X99282797Y-46031736D01*
X99278562Y-46027876D01*
X99273691Y-46024860D01*
X99273690Y-46024859D01*
X99103856Y-45919703D01*
X99089401Y-45910753D01*
X98881940Y-45830382D01*
X98876302Y-45829328D01*
X98668872Y-45790552D01*
X98668869Y-45790551D01*
X98663243Y-45789500D01*
X98440757Y-45789500D01*
X98435131Y-45790551D01*
X98435127Y-45790552D01*
X98227697Y-45829328D01*
X98227694Y-45829328D01*
X98222060Y-45830382D01*
X98216717Y-45832451D01*
X98216713Y-45832453D01*
X98019941Y-45908683D01*
X98019936Y-45908685D01*
X98014599Y-45910753D01*
X98009727Y-45913769D01*
X98009724Y-45913771D01*
X97830309Y-46024859D01*
X97830301Y-46024864D01*
X97825438Y-46027876D01*
X97821207Y-46031732D01*
X97821203Y-46031736D01*
X97665259Y-46173897D01*
X97665249Y-46173907D01*
X97661019Y-46177764D01*
X97657570Y-46182330D01*
X97657561Y-46182341D01*
X97530394Y-46350738D01*
X97530387Y-46350748D01*
X97526942Y-46355311D01*
X97524392Y-46360431D01*
X97524387Y-46360440D01*
X97430325Y-46549341D01*
X97430321Y-46549349D01*
X97427771Y-46554472D01*
X97426205Y-46559975D01*
X97426201Y-46559986D01*
X97378740Y-46726798D01*
X97366885Y-46768464D01*
X97346357Y-46990000D01*
X97366885Y-47211536D01*
X97369402Y-47220383D01*
X97426201Y-47420013D01*
X97426204Y-47420021D01*
X97427771Y-47425528D01*
X97430323Y-47430653D01*
X97430325Y-47430658D01*
X97524387Y-47619559D01*
X97524388Y-47619560D01*
X97526942Y-47624689D01*
X97530391Y-47629256D01*
X97530394Y-47629261D01*
X97657561Y-47797658D01*
X97657566Y-47797663D01*
X97661019Y-47802236D01*
X97665255Y-47806097D01*
X97665259Y-47806102D01*
X97736982Y-47871486D01*
X97825438Y-47952124D01*
X98014599Y-48069247D01*
X98222060Y-48149618D01*
X98440757Y-48190500D01*
X98657514Y-48190500D01*
X98663243Y-48190500D01*
X98881940Y-48149618D01*
X99089401Y-48069247D01*
X99278562Y-47952124D01*
X99442981Y-47802236D01*
X99577058Y-47624689D01*
X99583999Y-47610748D01*
X99629722Y-47560593D01*
X99695000Y-47542019D01*
X99760278Y-47560593D01*
X99806000Y-47610748D01*
X99812942Y-47624689D01*
X99816391Y-47629256D01*
X99816394Y-47629261D01*
X99943561Y-47797658D01*
X99943566Y-47797663D01*
X99947019Y-47802236D01*
X99951255Y-47806097D01*
X99951259Y-47806102D01*
X100022982Y-47871486D01*
X100111438Y-47952124D01*
X100300599Y-48069247D01*
X100508060Y-48149618D01*
X100726757Y-48190500D01*
X100943514Y-48190500D01*
X100949243Y-48190500D01*
X101167940Y-48149618D01*
X101375401Y-48069247D01*
X101564562Y-47952124D01*
X101728981Y-47802236D01*
X101863058Y-47624689D01*
X101869999Y-47610748D01*
X101915722Y-47560593D01*
X101981000Y-47542019D01*
X102046278Y-47560593D01*
X102092000Y-47610748D01*
X102098942Y-47624689D01*
X102102391Y-47629256D01*
X102102394Y-47629261D01*
X102229561Y-47797658D01*
X102229566Y-47797663D01*
X102233019Y-47802236D01*
X102237255Y-47806097D01*
X102237259Y-47806102D01*
X102308982Y-47871486D01*
X102397438Y-47952124D01*
X102586599Y-48069247D01*
X102794060Y-48149618D01*
X103012757Y-48190500D01*
X103229514Y-48190500D01*
X103235243Y-48190500D01*
X103453940Y-48149618D01*
X103661401Y-48069247D01*
X103850562Y-47952124D01*
X104014981Y-47802236D01*
X104149058Y-47624689D01*
X104155999Y-47610748D01*
X104201722Y-47560593D01*
X104267000Y-47542019D01*
X104332278Y-47560593D01*
X104378000Y-47610748D01*
X104384942Y-47624689D01*
X104388391Y-47629256D01*
X104388394Y-47629261D01*
X104515561Y-47797658D01*
X104515566Y-47797663D01*
X104519019Y-47802236D01*
X104523255Y-47806097D01*
X104523259Y-47806102D01*
X104594982Y-47871486D01*
X104683438Y-47952124D01*
X104872599Y-48069247D01*
X105080060Y-48149618D01*
X105298757Y-48190500D01*
X105515514Y-48190500D01*
X105521243Y-48190500D01*
X105739940Y-48149618D01*
X105947401Y-48069247D01*
X106136562Y-47952124D01*
X106300981Y-47802236D01*
X106435058Y-47624689D01*
X106441999Y-47610748D01*
X106487722Y-47560593D01*
X106553000Y-47542019D01*
X106618278Y-47560593D01*
X106664000Y-47610748D01*
X106670942Y-47624689D01*
X106674391Y-47629256D01*
X106674394Y-47629261D01*
X106801561Y-47797658D01*
X106801566Y-47797663D01*
X106805019Y-47802236D01*
X106809255Y-47806097D01*
X106809259Y-47806102D01*
X106880982Y-47871486D01*
X106969438Y-47952124D01*
X107158599Y-48069247D01*
X107366060Y-48149618D01*
X107584757Y-48190500D01*
X107801514Y-48190500D01*
X107807243Y-48190500D01*
X108025940Y-48149618D01*
X108233401Y-48069247D01*
X108422562Y-47952124D01*
X108586981Y-47802236D01*
X108721058Y-47624689D01*
X108727999Y-47610748D01*
X108773722Y-47560593D01*
X108839000Y-47542019D01*
X108904278Y-47560593D01*
X108950000Y-47610748D01*
X108956942Y-47624689D01*
X108960391Y-47629256D01*
X108960394Y-47629261D01*
X109087561Y-47797658D01*
X109087566Y-47797663D01*
X109091019Y-47802236D01*
X109095255Y-47806097D01*
X109095259Y-47806102D01*
X109166982Y-47871486D01*
X109255438Y-47952124D01*
X109444599Y-48069247D01*
X109652060Y-48149618D01*
X109870757Y-48190500D01*
X110087514Y-48190500D01*
X110093243Y-48190500D01*
X110311940Y-48149618D01*
X110519401Y-48069247D01*
X110708562Y-47952124D01*
X110872981Y-47802236D01*
X111007058Y-47624689D01*
X111013999Y-47610748D01*
X111059722Y-47560593D01*
X111125000Y-47542019D01*
X111190278Y-47560593D01*
X111236000Y-47610748D01*
X111242942Y-47624689D01*
X111246391Y-47629256D01*
X111246394Y-47629261D01*
X111373561Y-47797658D01*
X111373566Y-47797663D01*
X111377019Y-47802236D01*
X111381255Y-47806097D01*
X111381259Y-47806102D01*
X111452982Y-47871486D01*
X111541438Y-47952124D01*
X111730599Y-48069247D01*
X111938060Y-48149618D01*
X112156757Y-48190500D01*
X112373514Y-48190500D01*
X112379243Y-48190500D01*
X112597940Y-48149618D01*
X112805401Y-48069247D01*
X112994562Y-47952124D01*
X113158981Y-47802236D01*
X113293058Y-47624689D01*
X113299999Y-47610748D01*
X113345722Y-47560593D01*
X113411000Y-47542019D01*
X113476278Y-47560593D01*
X113522000Y-47610748D01*
X113528942Y-47624689D01*
X113532391Y-47629256D01*
X113532394Y-47629261D01*
X113659561Y-47797658D01*
X113659566Y-47797663D01*
X113663019Y-47802236D01*
X113667255Y-47806097D01*
X113667259Y-47806102D01*
X113738982Y-47871486D01*
X113827438Y-47952124D01*
X114016599Y-48069247D01*
X114224060Y-48149618D01*
X114442757Y-48190500D01*
X114659514Y-48190500D01*
X114665243Y-48190500D01*
X114883940Y-48149618D01*
X115091401Y-48069247D01*
X115280562Y-47952124D01*
X115444981Y-47802236D01*
X115579058Y-47624689D01*
X115585999Y-47610748D01*
X115631722Y-47560593D01*
X115697000Y-47542019D01*
X115762278Y-47560593D01*
X115808000Y-47610748D01*
X115814942Y-47624689D01*
X115818391Y-47629256D01*
X115818394Y-47629261D01*
X115945561Y-47797658D01*
X115945566Y-47797663D01*
X115949019Y-47802236D01*
X115953255Y-47806097D01*
X115953259Y-47806102D01*
X116024982Y-47871486D01*
X116113438Y-47952124D01*
X116302599Y-48069247D01*
X116510060Y-48149618D01*
X116728757Y-48190500D01*
X116945514Y-48190500D01*
X116951243Y-48190500D01*
X117169940Y-48149618D01*
X117377401Y-48069247D01*
X117566562Y-47952124D01*
X117730981Y-47802236D01*
X117865058Y-47624689D01*
X117964229Y-47425528D01*
X118025115Y-47211536D01*
X118045643Y-46990000D01*
X118025115Y-46768464D01*
X117964229Y-46554472D01*
X117872923Y-46371106D01*
X117867612Y-46360440D01*
X117867610Y-46360436D01*
X117865058Y-46355311D01*
X117861605Y-46350738D01*
X117734438Y-46182341D01*
X117734434Y-46182337D01*
X117730981Y-46177764D01*
X117726744Y-46173901D01*
X117726740Y-46173897D01*
X117570796Y-46031736D01*
X117570797Y-46031736D01*
X117566562Y-46027876D01*
X117561696Y-46024863D01*
X117561692Y-46024860D01*
X117524222Y-46001660D01*
X117481171Y-45956572D01*
X117465500Y-45896233D01*
X117465500Y-32334392D01*
X117466020Y-32323339D01*
X117467672Y-32315953D01*
X117465561Y-32248765D01*
X117465500Y-32244871D01*
X117465500Y-32221165D01*
X117465500Y-32217270D01*
X117464998Y-32213301D01*
X117464080Y-32201644D01*
X117462954Y-32165793D01*
X117462709Y-32157993D01*
X117457120Y-32138760D01*
X117453174Y-32119703D01*
X117451641Y-32107564D01*
X117450664Y-32099828D01*
X117434582Y-32059211D01*
X117430803Y-32048171D01*
X117420795Y-32013722D01*
X117420793Y-32013719D01*
X117418618Y-32006230D01*
X117414647Y-31999516D01*
X117414645Y-31999511D01*
X117408421Y-31988988D01*
X117399858Y-31971510D01*
X117392486Y-31952888D01*
X117387902Y-31946579D01*
X117387899Y-31946573D01*
X117366817Y-31917557D01*
X117360401Y-31907790D01*
X117342143Y-31876916D01*
X117342140Y-31876912D01*
X117338170Y-31870199D01*
X117324005Y-31856034D01*
X117311368Y-31841238D01*
X117304184Y-31831349D01*
X117304178Y-31831343D01*
X117299594Y-31825033D01*
X117265946Y-31797197D01*
X117257305Y-31789334D01*
X114407664Y-28939693D01*
X114400220Y-28931512D01*
X114396164Y-28925121D01*
X114347153Y-28879096D01*
X114344356Y-28876385D01*
X114327605Y-28859634D01*
X114327604Y-28859633D01*
X114324849Y-28856878D01*
X114321668Y-28854410D01*
X114312792Y-28846828D01*
X114286647Y-28822276D01*
X114286645Y-28822274D01*
X114280960Y-28816936D01*
X114274127Y-28813180D01*
X114274121Y-28813175D01*
X114263403Y-28807283D01*
X114247140Y-28796600D01*
X114242369Y-28792899D01*
X114207366Y-28750182D01*
X114194382Y-28696503D01*
X114205491Y-28644842D01*
X114205436Y-28644822D01*
X114205582Y-28644419D01*
X114205993Y-28642511D01*
X114209575Y-28634830D01*
X114266207Y-28423477D01*
X114285277Y-28205500D01*
X114266207Y-27987523D01*
X114209575Y-27776170D01*
X114117102Y-27577862D01*
X113991598Y-27398623D01*
X113836877Y-27243902D01*
X113832446Y-27240799D01*
X113832442Y-27240796D01*
X113662068Y-27121499D01*
X113662066Y-27121497D01*
X113657639Y-27118398D01*
X113652742Y-27116114D01*
X113652736Y-27116111D01*
X113464236Y-27028212D01*
X113464229Y-27028209D01*
X113459330Y-27025925D01*
X113454103Y-27024524D01*
X113454102Y-27024524D01*
X113253209Y-26970694D01*
X113253199Y-26970692D01*
X113247977Y-26969293D01*
X113242585Y-26968821D01*
X113242578Y-26968820D01*
X113035395Y-26950695D01*
X113030000Y-26950223D01*
X113024605Y-26950695D01*
X112817413Y-26968821D01*
X112817407Y-26968821D01*
X112812023Y-26969293D01*
X112806805Y-26970690D01*
X112806794Y-26970693D01*
X112775774Y-26979005D01*
X112711587Y-26979005D01*
X112656001Y-26946911D01*
X111552785Y-25843694D01*
X111545341Y-25835513D01*
X111541285Y-25829122D01*
X111492274Y-25783097D01*
X111489477Y-25780386D01*
X111472726Y-25763635D01*
X111472725Y-25763634D01*
X111469970Y-25760879D01*
X111466789Y-25758411D01*
X111457913Y-25750829D01*
X111431768Y-25726277D01*
X111431766Y-25726275D01*
X111426081Y-25720937D01*
X111419248Y-25717181D01*
X111419242Y-25717176D01*
X111408524Y-25711284D01*
X111392265Y-25700605D01*
X111382594Y-25693103D01*
X111382591Y-25693101D01*
X111376435Y-25688326D01*
X111369278Y-25685228D01*
X111369275Y-25685227D01*
X111336348Y-25670977D01*
X111325862Y-25665840D01*
X111304325Y-25654000D01*
X118532341Y-25654000D01*
X118532813Y-25659395D01*
X118547662Y-25829122D01*
X118552937Y-25889408D01*
X118554336Y-25894630D01*
X118554337Y-25894634D01*
X118612694Y-26112430D01*
X118612697Y-26112438D01*
X118614097Y-26117663D01*
X118713965Y-26331829D01*
X118849505Y-26525401D01*
X119016599Y-26692495D01*
X119210171Y-26828035D01*
X119424337Y-26927903D01*
X119652592Y-26989063D01*
X119829034Y-27004500D01*
X119944258Y-27004500D01*
X119946966Y-27004500D01*
X120123408Y-26989063D01*
X120351663Y-26927903D01*
X120565829Y-26828035D01*
X120759401Y-26692495D01*
X120926495Y-26525401D01*
X121062035Y-26331830D01*
X121161903Y-26117663D01*
X121223063Y-25889408D01*
X121243659Y-25654000D01*
X121223063Y-25418592D01*
X121161903Y-25190337D01*
X121062035Y-24976171D01*
X120926495Y-24782599D01*
X120759401Y-24615505D01*
X120565829Y-24479965D01*
X120351663Y-24380097D01*
X120346438Y-24378697D01*
X120346430Y-24378694D01*
X120128634Y-24320337D01*
X120128630Y-24320336D01*
X120123408Y-24318937D01*
X120118020Y-24318465D01*
X120118017Y-24318465D01*
X119949664Y-24303736D01*
X119949662Y-24303735D01*
X119946966Y-24303500D01*
X119829034Y-24303500D01*
X119826338Y-24303735D01*
X119826335Y-24303736D01*
X119657982Y-24318465D01*
X119657977Y-24318465D01*
X119652592Y-24318937D01*
X119647371Y-24320335D01*
X119647365Y-24320337D01*
X119429569Y-24378694D01*
X119429557Y-24378698D01*
X119424337Y-24380097D01*
X119419432Y-24382383D01*
X119419427Y-24382386D01*
X119215081Y-24477675D01*
X119215077Y-24477677D01*
X119210171Y-24479965D01*
X119205738Y-24483068D01*
X119205731Y-24483073D01*
X119021034Y-24612399D01*
X119021029Y-24612402D01*
X119016599Y-24615505D01*
X119012775Y-24619328D01*
X119012769Y-24619334D01*
X118853336Y-24778767D01*
X118853330Y-24778773D01*
X118849505Y-24782599D01*
X118846406Y-24787023D01*
X118846399Y-24787033D01*
X118717066Y-24971740D01*
X118717061Y-24971747D01*
X118713965Y-24976170D01*
X118711683Y-24981061D01*
X118711678Y-24981072D01*
X118616386Y-25185427D01*
X118616383Y-25185432D01*
X118614097Y-25190337D01*
X118612698Y-25195557D01*
X118612694Y-25195569D01*
X118554337Y-25413365D01*
X118554335Y-25413371D01*
X118552937Y-25418592D01*
X118552465Y-25423977D01*
X118552465Y-25423982D01*
X118536590Y-25605438D01*
X118532341Y-25654000D01*
X111304325Y-25654000D01*
X111294431Y-25648561D01*
X111294422Y-25648557D01*
X111287591Y-25644802D01*
X111280034Y-25642861D01*
X111280030Y-25642860D01*
X111268187Y-25639819D01*
X111249783Y-25633518D01*
X111238556Y-25628659D01*
X111238549Y-25628657D01*
X111231395Y-25625561D01*
X111223691Y-25624340D01*
X111223689Y-25624340D01*
X111188258Y-25618728D01*
X111176823Y-25616360D01*
X111142070Y-25607437D01*
X111142062Y-25607436D01*
X111134518Y-25605499D01*
X111126722Y-25605499D01*
X111114482Y-25605499D01*
X111095096Y-25603973D01*
X111075303Y-25600839D01*
X111067537Y-25601573D01*
X111067534Y-25601573D01*
X111031823Y-25604949D01*
X111020154Y-25605499D01*
X105941993Y-25605499D01*
X105930940Y-25604978D01*
X105923554Y-25603327D01*
X105915756Y-25603572D01*
X105856366Y-25605438D01*
X105852472Y-25605499D01*
X91206272Y-25605499D01*
X91195219Y-25604978D01*
X91187833Y-25603327D01*
X91180035Y-25603572D01*
X91120645Y-25605438D01*
X91116751Y-25605499D01*
X91089151Y-25605499D01*
X91085300Y-25605985D01*
X91085269Y-25605987D01*
X91085141Y-25606004D01*
X91073530Y-25606917D01*
X91037668Y-25608044D01*
X91037660Y-25608045D01*
X91029874Y-25608290D01*
X91022386Y-25610465D01*
X91022387Y-25610465D01*
X91010635Y-25613879D01*
X90991596Y-25617821D01*
X90979449Y-25619356D01*
X90979441Y-25619357D01*
X90971709Y-25620335D01*
X90964463Y-25623203D01*
X90964458Y-25623205D01*
X90931086Y-25636418D01*
X90920040Y-25640199D01*
X90912549Y-25642376D01*
X90885595Y-25650207D01*
X90885590Y-25650208D01*
X90878111Y-25652382D01*
X90871409Y-25656345D01*
X90871398Y-25656350D01*
X90860865Y-25662580D01*
X90843401Y-25671135D01*
X90832025Y-25675639D01*
X90832018Y-25675642D01*
X90824769Y-25678513D01*
X90818463Y-25683093D01*
X90818458Y-25683097D01*
X90789428Y-25704188D01*
X90779670Y-25710597D01*
X90748799Y-25728855D01*
X90742080Y-25732829D01*
X90736564Y-25738343D01*
X90736557Y-25738350D01*
X90727908Y-25746999D01*
X90713125Y-25759625D01*
X90703228Y-25766816D01*
X90703221Y-25766822D01*
X90696914Y-25771405D01*
X90691947Y-25777407D01*
X90691936Y-25777419D01*
X90669071Y-25805058D01*
X90661211Y-25813696D01*
X89273997Y-27200910D01*
X89218411Y-27233003D01*
X89154225Y-27233004D01*
X89123219Y-27224696D01*
X89123201Y-27224692D01*
X89117977Y-27223293D01*
X89112585Y-27222821D01*
X89112578Y-27222820D01*
X88905395Y-27204695D01*
X88900000Y-27204223D01*
X88894605Y-27204695D01*
X88687413Y-27222821D01*
X88687407Y-27222821D01*
X88682023Y-27223293D01*
X88676805Y-27224690D01*
X88676794Y-27224693D01*
X88645774Y-27233005D01*
X88581587Y-27233005D01*
X88526001Y-27200911D01*
X86973783Y-25648692D01*
X86966339Y-25640511D01*
X86962283Y-25634120D01*
X86913272Y-25588095D01*
X86910475Y-25585384D01*
X86893724Y-25568633D01*
X86890968Y-25565877D01*
X86887787Y-25563409D01*
X86878911Y-25555827D01*
X86852766Y-25531275D01*
X86852764Y-25531273D01*
X86847079Y-25525935D01*
X86840246Y-25522179D01*
X86840240Y-25522174D01*
X86829522Y-25516282D01*
X86813263Y-25505603D01*
X86803592Y-25498101D01*
X86803589Y-25498099D01*
X86797433Y-25493324D01*
X86790276Y-25490226D01*
X86790273Y-25490225D01*
X86757346Y-25475975D01*
X86746860Y-25470838D01*
X86715429Y-25453559D01*
X86715420Y-25453555D01*
X86708589Y-25449800D01*
X86701032Y-25447859D01*
X86701028Y-25447858D01*
X86689185Y-25444817D01*
X86670781Y-25438516D01*
X86659554Y-25433657D01*
X86659547Y-25433655D01*
X86652393Y-25430559D01*
X86644689Y-25429338D01*
X86644687Y-25429338D01*
X86609256Y-25423726D01*
X86597821Y-25421358D01*
X86563068Y-25412435D01*
X86563060Y-25412434D01*
X86555516Y-25410497D01*
X86547720Y-25410497D01*
X86535480Y-25410497D01*
X86516094Y-25408971D01*
X86496301Y-25405837D01*
X86488535Y-25406571D01*
X86488532Y-25406571D01*
X86452821Y-25409947D01*
X86441152Y-25410497D01*
X66001278Y-25410497D01*
X65990222Y-25409975D01*
X65982836Y-25408324D01*
X65975048Y-25408568D01*
X65975041Y-25408568D01*
X65915630Y-25410436D01*
X65911735Y-25410497D01*
X65884153Y-25410497D01*
X65880308Y-25410982D01*
X65880283Y-25410984D01*
X65880156Y-25411001D01*
X65868537Y-25411915D01*
X65832675Y-25413042D01*
X65832668Y-25413043D01*
X65824876Y-25413288D01*
X65817391Y-25415462D01*
X65817375Y-25415465D01*
X65805629Y-25418878D01*
X65786586Y-25422822D01*
X65774452Y-25424355D01*
X65774451Y-25424355D01*
X65766711Y-25425333D01*
X65759461Y-25428202D01*
X65759454Y-25428205D01*
X65726101Y-25441410D01*
X65715057Y-25445191D01*
X65680604Y-25455201D01*
X65680593Y-25455205D01*
X65673113Y-25457379D01*
X65666401Y-25461348D01*
X65666399Y-25461349D01*
X65655867Y-25467577D01*
X65638407Y-25476131D01*
X65627022Y-25480639D01*
X65627016Y-25480641D01*
X65619771Y-25483511D01*
X65613466Y-25488091D01*
X65613458Y-25488096D01*
X65584435Y-25509182D01*
X65574677Y-25515592D01*
X65543799Y-25533854D01*
X65543793Y-25533858D01*
X65537083Y-25537827D01*
X65531570Y-25543338D01*
X65531563Y-25543345D01*
X65522913Y-25551995D01*
X65508130Y-25564621D01*
X65498229Y-25571814D01*
X65498219Y-25571823D01*
X65491916Y-25576403D01*
X65486947Y-25582408D01*
X65486944Y-25582412D01*
X65464075Y-25610056D01*
X65456214Y-25618694D01*
X63873997Y-27200910D01*
X63818411Y-27233003D01*
X63754225Y-27233004D01*
X63723219Y-27224696D01*
X63723201Y-27224692D01*
X63717977Y-27223293D01*
X63712585Y-27222821D01*
X63712578Y-27222820D01*
X63505395Y-27204695D01*
X63500000Y-27204223D01*
X63494605Y-27204695D01*
X63287421Y-27222820D01*
X63287412Y-27222821D01*
X63282023Y-27223293D01*
X63276802Y-27224691D01*
X63276790Y-27224694D01*
X63075897Y-27278524D01*
X63075892Y-27278525D01*
X63070670Y-27279925D01*
X63065774Y-27282207D01*
X63065763Y-27282212D01*
X62877272Y-27370108D01*
X62877268Y-27370110D01*
X62872362Y-27372398D01*
X62867929Y-27375501D01*
X62867922Y-27375506D01*
X62697558Y-27494796D01*
X62697553Y-27494799D01*
X62693123Y-27497902D01*
X62689299Y-27501725D01*
X62689293Y-27501731D01*
X62542231Y-27648793D01*
X62542225Y-27648799D01*
X62538402Y-27652623D01*
X62535299Y-27657053D01*
X62535296Y-27657058D01*
X62416006Y-27827422D01*
X62416001Y-27827429D01*
X62412898Y-27831862D01*
X62410610Y-27836768D01*
X62410608Y-27836772D01*
X62342382Y-27983083D01*
X62296625Y-28035259D01*
X62230000Y-28054678D01*
X62163375Y-28035259D01*
X62117618Y-27983083D01*
X62088854Y-27921399D01*
X62047102Y-27831862D01*
X61921598Y-27652623D01*
X61766877Y-27497902D01*
X61762446Y-27494799D01*
X61762442Y-27494796D01*
X61592068Y-27375499D01*
X61592066Y-27375497D01*
X61587639Y-27372398D01*
X61582742Y-27370114D01*
X61582736Y-27370111D01*
X61394236Y-27282212D01*
X61394229Y-27282209D01*
X61389330Y-27279925D01*
X61384103Y-27278524D01*
X61384102Y-27278524D01*
X61183209Y-27224694D01*
X61183199Y-27224692D01*
X61177977Y-27223293D01*
X61172585Y-27222821D01*
X61172578Y-27222820D01*
X60965395Y-27204695D01*
X60960000Y-27204223D01*
X60954605Y-27204695D01*
X60747421Y-27222820D01*
X60747412Y-27222821D01*
X60742023Y-27223293D01*
X60736802Y-27224691D01*
X60736790Y-27224694D01*
X60535897Y-27278524D01*
X60535892Y-27278525D01*
X60530670Y-27279925D01*
X60525774Y-27282207D01*
X60525763Y-27282212D01*
X60337272Y-27370108D01*
X60337268Y-27370110D01*
X60332362Y-27372398D01*
X60327929Y-27375501D01*
X60327922Y-27375506D01*
X60157558Y-27494796D01*
X60157553Y-27494799D01*
X60153123Y-27497902D01*
X60149299Y-27501725D01*
X60149293Y-27501731D01*
X60002231Y-27648793D01*
X60002225Y-27648799D01*
X59998402Y-27652623D01*
X59995299Y-27657053D01*
X59995296Y-27657058D01*
X59876006Y-27827422D01*
X59876001Y-27827429D01*
X59872898Y-27831862D01*
X59870610Y-27836768D01*
X59870608Y-27836772D01*
X59802382Y-27983083D01*
X59756625Y-28035259D01*
X59690000Y-28054678D01*
X59623375Y-28035259D01*
X59577618Y-27983083D01*
X59548854Y-27921399D01*
X59507102Y-27831862D01*
X59381598Y-27652623D01*
X59226877Y-27497902D01*
X59222446Y-27494799D01*
X59222442Y-27494796D01*
X59052068Y-27375499D01*
X59052066Y-27375497D01*
X59047639Y-27372398D01*
X59042742Y-27370114D01*
X59042736Y-27370111D01*
X58854236Y-27282212D01*
X58854229Y-27282209D01*
X58849330Y-27279925D01*
X58844103Y-27278524D01*
X58844102Y-27278524D01*
X58643209Y-27224694D01*
X58643199Y-27224692D01*
X58637977Y-27223293D01*
X58632585Y-27222821D01*
X58632578Y-27222820D01*
X58425395Y-27204695D01*
X58420000Y-27204223D01*
X58414605Y-27204695D01*
X58207421Y-27222820D01*
X58207412Y-27222821D01*
X58202023Y-27223293D01*
X58196802Y-27224691D01*
X58196790Y-27224694D01*
X57995897Y-27278524D01*
X57995892Y-27278525D01*
X57990670Y-27279925D01*
X57985774Y-27282207D01*
X57985763Y-27282212D01*
X57797272Y-27370108D01*
X57797268Y-27370110D01*
X57792362Y-27372398D01*
X57787929Y-27375501D01*
X57787922Y-27375506D01*
X57617558Y-27494796D01*
X57617553Y-27494799D01*
X57613123Y-27497902D01*
X57609299Y-27501725D01*
X57609293Y-27501731D01*
X57462231Y-27648793D01*
X57462225Y-27648799D01*
X57458402Y-27652623D01*
X57455299Y-27657053D01*
X57455296Y-27657058D01*
X57336006Y-27827422D01*
X57336001Y-27827429D01*
X57332898Y-27831862D01*
X57330610Y-27836768D01*
X57330608Y-27836772D01*
X57262382Y-27983083D01*
X57216625Y-28035259D01*
X57150000Y-28054678D01*
X57083375Y-28035259D01*
X57037618Y-27983083D01*
X57008854Y-27921399D01*
X56967102Y-27831862D01*
X56841598Y-27652623D01*
X56686877Y-27497902D01*
X56682446Y-27494799D01*
X56682442Y-27494796D01*
X56512068Y-27375499D01*
X56512066Y-27375497D01*
X56507639Y-27372398D01*
X56502742Y-27370114D01*
X56502736Y-27370111D01*
X56314236Y-27282212D01*
X56314229Y-27282209D01*
X56309330Y-27279925D01*
X56304103Y-27278524D01*
X56304102Y-27278524D01*
X56103209Y-27224694D01*
X56103199Y-27224692D01*
X56097977Y-27223293D01*
X56092585Y-27222821D01*
X56092578Y-27222820D01*
X55885395Y-27204695D01*
X55880000Y-27204223D01*
X55874605Y-27204695D01*
X55667421Y-27222820D01*
X55667412Y-27222821D01*
X55662023Y-27223293D01*
X55656802Y-27224691D01*
X55656790Y-27224694D01*
X55455897Y-27278524D01*
X55455892Y-27278525D01*
X55450670Y-27279925D01*
X55445774Y-27282207D01*
X55445763Y-27282212D01*
X55257272Y-27370108D01*
X55257268Y-27370110D01*
X55252362Y-27372398D01*
X55247929Y-27375501D01*
X55247922Y-27375506D01*
X55077558Y-27494796D01*
X55077553Y-27494799D01*
X55073123Y-27497902D01*
X55069299Y-27501725D01*
X55069293Y-27501731D01*
X54922231Y-27648793D01*
X54922225Y-27648799D01*
X54918402Y-27652623D01*
X54915299Y-27657053D01*
X54915296Y-27657058D01*
X54796006Y-27827422D01*
X54796001Y-27827429D01*
X54792898Y-27831862D01*
X54790610Y-27836768D01*
X54790608Y-27836772D01*
X54722382Y-27983083D01*
X54676625Y-28035259D01*
X54610000Y-28054678D01*
X54543375Y-28035259D01*
X54497618Y-27983083D01*
X54468854Y-27921399D01*
X54427102Y-27831862D01*
X54301598Y-27652623D01*
X54146877Y-27497902D01*
X54142446Y-27494799D01*
X54142442Y-27494796D01*
X53972068Y-27375499D01*
X53972066Y-27375497D01*
X53967639Y-27372398D01*
X53962742Y-27370114D01*
X53962736Y-27370111D01*
X53774236Y-27282212D01*
X53774229Y-27282209D01*
X53769330Y-27279925D01*
X53764103Y-27278524D01*
X53764102Y-27278524D01*
X53563209Y-27224694D01*
X53563199Y-27224692D01*
X53557977Y-27223293D01*
X53552585Y-27222821D01*
X53552578Y-27222820D01*
X53345395Y-27204695D01*
X53340000Y-27204223D01*
X53334605Y-27204695D01*
X53127421Y-27222820D01*
X53127412Y-27222821D01*
X53122023Y-27223293D01*
X53116802Y-27224691D01*
X53116790Y-27224694D01*
X52915897Y-27278524D01*
X52915892Y-27278525D01*
X52910670Y-27279925D01*
X52905774Y-27282207D01*
X52905763Y-27282212D01*
X52717272Y-27370108D01*
X52717268Y-27370110D01*
X52712362Y-27372398D01*
X52707929Y-27375501D01*
X52707922Y-27375506D01*
X52537558Y-27494796D01*
X52537553Y-27494799D01*
X52533123Y-27497902D01*
X52529299Y-27501725D01*
X52529293Y-27501731D01*
X52382231Y-27648793D01*
X52382225Y-27648799D01*
X52378402Y-27652623D01*
X52375299Y-27657053D01*
X52375296Y-27657058D01*
X52256006Y-27827422D01*
X52256001Y-27827429D01*
X52252898Y-27831862D01*
X52250610Y-27836768D01*
X52250608Y-27836772D01*
X52162712Y-28025263D01*
X52162707Y-28025274D01*
X52160425Y-28030170D01*
X52159025Y-28035392D01*
X52159024Y-28035397D01*
X52105194Y-28236290D01*
X52105191Y-28236302D01*
X52103793Y-28241523D01*
X52103321Y-28246912D01*
X52103320Y-28246921D01*
X52087572Y-28426936D01*
X52084723Y-28459500D01*
X52085195Y-28464895D01*
X52103320Y-28672078D01*
X52103321Y-28672085D01*
X52103793Y-28677477D01*
X52105192Y-28682699D01*
X52105194Y-28682709D01*
X52150244Y-28850834D01*
X52160425Y-28888830D01*
X52162709Y-28893729D01*
X52162712Y-28893736D01*
X52250611Y-29082236D01*
X52250614Y-29082242D01*
X52252898Y-29087139D01*
X52255997Y-29091566D01*
X52255999Y-29091568D01*
X52375296Y-29261942D01*
X52375299Y-29261946D01*
X52378402Y-29266377D01*
X52533123Y-29421098D01*
X52537555Y-29424201D01*
X52537557Y-29424203D01*
X52564252Y-29442895D01*
X52712361Y-29546602D01*
X52910670Y-29639075D01*
X53016623Y-29667465D01*
X53116790Y-29694305D01*
X53116791Y-29694305D01*
X53122023Y-29695707D01*
X53340000Y-29714777D01*
X53557977Y-29695707D01*
X53594221Y-29685994D01*
X53658409Y-29685994D01*
X53713997Y-29718087D01*
X55004922Y-31009013D01*
X56293181Y-32297272D01*
X56320061Y-32337500D01*
X56329500Y-32384953D01*
X56329500Y-37283729D01*
X56316712Y-37338573D01*
X56280987Y-37382105D01*
X56229691Y-37405346D01*
X56173407Y-37403504D01*
X56103212Y-37384695D01*
X56103204Y-37384693D01*
X56097977Y-37383293D01*
X56092585Y-37382821D01*
X56092578Y-37382820D01*
X55885395Y-37364695D01*
X55880000Y-37364223D01*
X55874605Y-37364695D01*
X55667421Y-37382820D01*
X55667412Y-37382821D01*
X55662023Y-37383293D01*
X55656802Y-37384691D01*
X55656790Y-37384694D01*
X55455897Y-37438524D01*
X55455892Y-37438525D01*
X55450670Y-37439925D01*
X55445774Y-37442207D01*
X55445763Y-37442212D01*
X55257272Y-37530108D01*
X55257268Y-37530110D01*
X55252362Y-37532398D01*
X55247929Y-37535501D01*
X55247922Y-37535506D01*
X55077558Y-37654796D01*
X55077553Y-37654799D01*
X55073123Y-37657902D01*
X55069299Y-37661725D01*
X55069293Y-37661731D01*
X54922231Y-37808793D01*
X54922225Y-37808799D01*
X54918402Y-37812623D01*
X54915299Y-37817053D01*
X54915296Y-37817058D01*
X54816074Y-37958763D01*
X54768857Y-37999090D01*
X54708009Y-38011470D01*
X54648789Y-37992798D01*
X54606046Y-37947756D01*
X54590499Y-37887640D01*
X54590499Y-37824939D01*
X54590499Y-37821628D01*
X54584091Y-37762017D01*
X54533796Y-37627169D01*
X54447546Y-37511954D01*
X54332331Y-37425704D01*
X54222380Y-37384695D01*
X54204752Y-37378120D01*
X54204750Y-37378119D01*
X54197483Y-37375409D01*
X54189770Y-37374579D01*
X54189767Y-37374579D01*
X54141180Y-37369355D01*
X54141169Y-37369354D01*
X54137873Y-37369000D01*
X54134550Y-37369000D01*
X52545439Y-37369000D01*
X52545420Y-37369000D01*
X52542128Y-37369001D01*
X52538850Y-37369353D01*
X52538838Y-37369354D01*
X52490231Y-37374579D01*
X52490225Y-37374580D01*
X52482517Y-37375409D01*
X52475252Y-37378118D01*
X52475246Y-37378120D01*
X52355980Y-37422604D01*
X52355978Y-37422604D01*
X52347669Y-37425704D01*
X52340572Y-37431016D01*
X52340568Y-37431019D01*
X52239550Y-37506641D01*
X52239546Y-37506644D01*
X52232454Y-37511954D01*
X52227144Y-37519046D01*
X52227141Y-37519050D01*
X52151519Y-37620068D01*
X52151516Y-37620072D01*
X52146204Y-37627169D01*
X52143104Y-37635478D01*
X52143104Y-37635480D01*
X52098620Y-37754747D01*
X52098619Y-37754750D01*
X52095909Y-37762017D01*
X52095079Y-37769727D01*
X52095079Y-37769732D01*
X52089855Y-37818319D01*
X52089854Y-37818331D01*
X52089500Y-37821627D01*
X52089500Y-37824948D01*
X52089500Y-37824949D01*
X52089500Y-39414060D01*
X52089500Y-39414078D01*
X52089501Y-39417372D01*
X52089853Y-39420650D01*
X52089854Y-39420661D01*
X52095079Y-39469268D01*
X52095080Y-39469273D01*
X52095909Y-39476983D01*
X52098619Y-39484249D01*
X52098620Y-39484253D01*
X52121828Y-39546475D01*
X52146204Y-39611831D01*
X52151518Y-39618930D01*
X52151519Y-39618931D01*
X52217149Y-39706602D01*
X52232454Y-39727046D01*
X52347669Y-39813296D01*
X52482517Y-39863591D01*
X52542127Y-39870000D01*
X54137872Y-39869999D01*
X54197483Y-39863591D01*
X54332331Y-39813296D01*
X54447546Y-39727046D01*
X54533796Y-39611831D01*
X54584091Y-39476983D01*
X54590500Y-39417373D01*
X54590499Y-39351361D01*
X54606045Y-39291248D01*
X54648788Y-39246206D01*
X54708008Y-39227533D01*
X54768856Y-39239912D01*
X54816074Y-39280239D01*
X54915296Y-39421942D01*
X54915299Y-39421946D01*
X54918402Y-39426377D01*
X55073123Y-39581098D01*
X55077555Y-39584201D01*
X55077557Y-39584203D01*
X55122968Y-39616000D01*
X55252361Y-39706602D01*
X55257261Y-39708887D01*
X55257263Y-39708888D01*
X55445057Y-39796458D01*
X55450670Y-39799075D01*
X55586595Y-39835496D01*
X55656790Y-39854305D01*
X55656791Y-39854305D01*
X55662023Y-39855707D01*
X55880000Y-39874777D01*
X56097977Y-39855707D01*
X56130089Y-39847102D01*
X56173407Y-39835496D01*
X56229691Y-39833654D01*
X56280987Y-39856895D01*
X56316712Y-39900427D01*
X56329500Y-39955271D01*
X56329500Y-43923225D01*
X56328978Y-43934280D01*
X56327327Y-43941667D01*
X56327571Y-43949453D01*
X56327571Y-43949461D01*
X56329439Y-44008873D01*
X56329500Y-44012768D01*
X56329500Y-44040350D01*
X56329988Y-44044219D01*
X56329989Y-44044225D01*
X56330004Y-44044343D01*
X56330918Y-44055966D01*
X56332045Y-44091830D01*
X56332046Y-44091837D01*
X56332291Y-44099627D01*
X56334467Y-44107119D01*
X56334468Y-44107121D01*
X56337879Y-44118862D01*
X56341825Y-44137915D01*
X56344336Y-44157792D01*
X56347206Y-44165042D01*
X56347208Y-44165048D01*
X56360414Y-44198404D01*
X56364197Y-44209451D01*
X56376382Y-44251390D01*
X56380353Y-44258105D01*
X56380354Y-44258107D01*
X56386581Y-44268637D01*
X56395136Y-44286099D01*
X56399642Y-44297480D01*
X56399643Y-44297483D01*
X56402514Y-44304732D01*
X56424440Y-44334912D01*
X56428181Y-44340060D01*
X56434593Y-44349822D01*
X56452856Y-44380702D01*
X56452859Y-44380707D01*
X56456830Y-44387420D01*
X56462345Y-44392935D01*
X56470990Y-44401580D01*
X56483626Y-44416374D01*
X56490819Y-44426275D01*
X56490823Y-44426279D01*
X56495406Y-44432587D01*
X56501415Y-44437558D01*
X56501416Y-44437559D01*
X56529058Y-44460426D01*
X56537699Y-44468289D01*
X60214703Y-48145294D01*
X60247305Y-48202844D01*
X60245684Y-48268967D01*
X60234106Y-48307135D01*
X60234103Y-48307145D01*
X60232338Y-48312967D01*
X60231741Y-48319023D01*
X60231740Y-48319031D01*
X60216919Y-48469514D01*
X60212538Y-48514000D01*
X60213135Y-48520061D01*
X60231740Y-48708968D01*
X60231741Y-48708974D01*
X60232338Y-48715033D01*
X60234105Y-48720858D01*
X60234106Y-48720863D01*
X60268089Y-48832890D01*
X60290977Y-48908341D01*
X60293846Y-48913709D01*
X60293848Y-48913713D01*
X60386202Y-49086494D01*
X60385463Y-49086888D01*
X60401170Y-49124810D01*
X60401170Y-49173190D01*
X60385463Y-49211111D01*
X60386202Y-49211506D01*
X60293848Y-49384286D01*
X60293844Y-49384293D01*
X60290977Y-49389659D01*
X60289210Y-49395482D01*
X60289209Y-49395486D01*
X60234106Y-49577136D01*
X60234104Y-49577143D01*
X60232338Y-49582967D01*
X60231741Y-49589023D01*
X60231740Y-49589031D01*
X60217137Y-49737307D01*
X60212538Y-49784000D01*
X60213135Y-49790061D01*
X60231740Y-49978968D01*
X60231741Y-49978974D01*
X60232338Y-49985033D01*
X60234105Y-49990858D01*
X60234106Y-49990863D01*
X60290977Y-50178341D01*
X60289322Y-50178842D01*
X60296801Y-50222603D01*
X60281814Y-50275365D01*
X60279516Y-50279572D01*
X60274204Y-50286669D01*
X60271106Y-50294972D01*
X60271104Y-50294978D01*
X60226620Y-50414247D01*
X60226619Y-50414250D01*
X60223909Y-50421517D01*
X60223079Y-50429227D01*
X60223079Y-50429232D01*
X60217855Y-50477819D01*
X60217854Y-50477831D01*
X60217500Y-50481127D01*
X60217500Y-50484448D01*
X60217500Y-50484449D01*
X60217500Y-51623560D01*
X60217500Y-51623578D01*
X60217501Y-51626872D01*
X60217853Y-51630150D01*
X60217854Y-51630161D01*
X60223079Y-51678768D01*
X60223080Y-51678773D01*
X60223909Y-51686483D01*
X60226619Y-51693749D01*
X60226620Y-51693753D01*
X60228771Y-51699520D01*
X60274204Y-51821331D01*
X60360454Y-51936546D01*
X60475669Y-52022796D01*
X60610517Y-52073091D01*
X60670127Y-52079500D01*
X61988500Y-52079499D01*
X62050500Y-52096112D01*
X62095887Y-52141499D01*
X62112500Y-52203499D01*
X62112500Y-61411547D01*
X62103061Y-61459000D01*
X62076181Y-61499228D01*
X60781893Y-62793515D01*
X60730892Y-62824285D01*
X60671427Y-62827723D01*
X60568872Y-62808552D01*
X60568869Y-62808551D01*
X60563243Y-62807500D01*
X60340757Y-62807500D01*
X60335131Y-62808551D01*
X60335127Y-62808552D01*
X60127697Y-62847328D01*
X60127694Y-62847328D01*
X60122060Y-62848382D01*
X60116717Y-62850451D01*
X60116713Y-62850453D01*
X59919941Y-62926683D01*
X59919936Y-62926685D01*
X59914599Y-62928753D01*
X59909727Y-62931769D01*
X59909724Y-62931771D01*
X59730309Y-63042859D01*
X59730301Y-63042864D01*
X59725438Y-63045876D01*
X59721207Y-63049732D01*
X59721203Y-63049736D01*
X59565259Y-63191897D01*
X59565249Y-63191907D01*
X59561019Y-63195764D01*
X59557570Y-63200330D01*
X59557561Y-63200341D01*
X59430394Y-63368738D01*
X59430387Y-63368748D01*
X59426942Y-63373311D01*
X59424392Y-63378431D01*
X59424387Y-63378440D01*
X59330325Y-63567341D01*
X59330321Y-63567349D01*
X59327771Y-63572472D01*
X59326205Y-63577975D01*
X59326201Y-63577986D01*
X59301266Y-63665627D01*
X59268867Y-63720181D01*
X59213724Y-63751566D01*
X59150276Y-63751566D01*
X59095133Y-63720181D01*
X59062734Y-63665627D01*
X59037798Y-63577986D01*
X59037797Y-63577984D01*
X59036229Y-63572472D01*
X58937058Y-63373311D01*
X58933605Y-63368738D01*
X58806438Y-63200341D01*
X58806434Y-63200337D01*
X58802981Y-63195764D01*
X58798744Y-63191901D01*
X58798740Y-63191897D01*
X58652669Y-63058736D01*
X58638562Y-63045876D01*
X58633696Y-63042863D01*
X58633692Y-63042860D01*
X58596222Y-63019660D01*
X58553171Y-62974572D01*
X58537500Y-62914233D01*
X58537500Y-53524775D01*
X58538021Y-53513719D01*
X58539673Y-53506333D01*
X58537561Y-53439127D01*
X58537500Y-53435232D01*
X58537500Y-53411541D01*
X58537500Y-53407650D01*
X58536998Y-53403677D01*
X58536080Y-53392018D01*
X58534954Y-53356173D01*
X58534709Y-53348373D01*
X58529120Y-53329140D01*
X58525174Y-53310083D01*
X58523641Y-53297944D01*
X58522664Y-53290208D01*
X58506582Y-53249591D01*
X58502803Y-53238551D01*
X58492795Y-53204102D01*
X58492793Y-53204099D01*
X58490618Y-53196610D01*
X58480417Y-53179360D01*
X58471863Y-53161901D01*
X58464486Y-53143268D01*
X58438808Y-53107925D01*
X58432401Y-53098171D01*
X58414142Y-53067296D01*
X58414141Y-53067294D01*
X58410170Y-53060580D01*
X58396005Y-53046415D01*
X58383370Y-53031622D01*
X58371594Y-53015413D01*
X58365583Y-53010440D01*
X58365581Y-53010438D01*
X58337941Y-52987573D01*
X58329300Y-52979710D01*
X55060821Y-49711230D01*
X55029841Y-49659542D01*
X55026793Y-49649495D01*
X55025023Y-49643659D01*
X54987643Y-49573727D01*
X54929798Y-49465506D01*
X54930539Y-49465109D01*
X54914831Y-49427197D01*
X54914831Y-49378803D01*
X54930539Y-49340890D01*
X54929798Y-49340494D01*
X54972180Y-49261203D01*
X55025023Y-49162341D01*
X55083662Y-48969033D01*
X55103462Y-48768000D01*
X55083662Y-48566967D01*
X55025023Y-48373659D01*
X54929798Y-48195506D01*
X54801647Y-48039353D01*
X54771932Y-48014967D01*
X54650206Y-47915069D01*
X54650205Y-47915068D01*
X54645494Y-47911202D01*
X54640118Y-47908328D01*
X54640116Y-47908327D01*
X54472713Y-47818848D01*
X54472709Y-47818846D01*
X54467341Y-47815977D01*
X54461513Y-47814209D01*
X54279863Y-47759106D01*
X54279858Y-47759105D01*
X54274033Y-47757338D01*
X54267974Y-47756741D01*
X54267968Y-47756740D01*
X54126414Y-47742798D01*
X54126397Y-47742797D01*
X54123380Y-47742500D01*
X53572620Y-47742500D01*
X53569603Y-47742797D01*
X53569585Y-47742798D01*
X53428031Y-47756740D01*
X53428023Y-47756741D01*
X53421967Y-47757338D01*
X53416143Y-47759104D01*
X53416136Y-47759106D01*
X53234486Y-47814209D01*
X53234482Y-47814210D01*
X53228659Y-47815977D01*
X53223293Y-47818844D01*
X53223286Y-47818848D01*
X53055883Y-47908327D01*
X53055876Y-47908331D01*
X53050506Y-47911202D01*
X53045798Y-47915065D01*
X53045793Y-47915069D01*
X52899059Y-48035490D01*
X52899053Y-48035495D01*
X52894353Y-48039353D01*
X52890495Y-48044053D01*
X52890490Y-48044059D01*
X52770069Y-48190793D01*
X52770065Y-48190798D01*
X52766202Y-48195506D01*
X52763331Y-48200876D01*
X52763327Y-48200883D01*
X52673848Y-48368286D01*
X52673844Y-48368293D01*
X52670977Y-48373659D01*
X52669210Y-48379482D01*
X52669209Y-48379486D01*
X52614106Y-48561136D01*
X52614104Y-48561143D01*
X52612338Y-48566967D01*
X52611741Y-48573023D01*
X52611740Y-48573031D01*
X52597002Y-48722679D01*
X52592538Y-48768000D01*
X52593135Y-48774061D01*
X52611740Y-48962968D01*
X52611741Y-48962974D01*
X52612338Y-48969033D01*
X52614105Y-48974858D01*
X52614106Y-48974863D01*
X52662883Y-49135659D01*
X52670977Y-49162341D01*
X52673846Y-49167709D01*
X52673848Y-49167713D01*
X52766202Y-49340494D01*
X52765463Y-49340888D01*
X52781170Y-49378810D01*
X52781170Y-49427190D01*
X52765463Y-49465111D01*
X52766202Y-49465506D01*
X52673848Y-49638286D01*
X52673844Y-49638293D01*
X52670977Y-49643659D01*
X52669210Y-49649482D01*
X52669209Y-49649486D01*
X52614106Y-49831136D01*
X52614104Y-49831143D01*
X52612338Y-49836967D01*
X52611741Y-49843023D01*
X52611740Y-49843031D01*
X52597117Y-49991511D01*
X52592538Y-50038000D01*
X52593135Y-50044061D01*
X52611740Y-50232968D01*
X52611741Y-50232974D01*
X52612338Y-50239033D01*
X52614105Y-50244858D01*
X52614106Y-50244863D01*
X52670977Y-50432341D01*
X52669322Y-50432842D01*
X52676801Y-50476603D01*
X52661814Y-50529365D01*
X52659516Y-50533572D01*
X52654204Y-50540669D01*
X52651107Y-50548971D01*
X52651105Y-50548976D01*
X52631391Y-50601834D01*
X52604952Y-50644070D01*
X52564022Y-50672488D01*
X52515209Y-50682500D01*
X49101019Y-50682500D01*
X49099771Y-50682500D01*
X49088718Y-50681979D01*
X49081332Y-50680328D01*
X49073534Y-50680572D01*
X49065770Y-50679839D01*
X49065956Y-50677868D01*
X49030704Y-50671705D01*
X48988694Y-50644103D01*
X47691818Y-49347227D01*
X47664938Y-49306999D01*
X47655499Y-49259546D01*
X47655499Y-48050439D01*
X47655499Y-48047128D01*
X47649091Y-47987517D01*
X47598796Y-47852669D01*
X47512546Y-47737454D01*
X47439528Y-47682793D01*
X47404431Y-47656519D01*
X47404430Y-47656518D01*
X47397331Y-47651204D01*
X47312486Y-47619559D01*
X47269752Y-47603620D01*
X47269750Y-47603619D01*
X47262483Y-47600909D01*
X47254770Y-47600079D01*
X47254767Y-47600079D01*
X47206180Y-47594855D01*
X47206169Y-47594854D01*
X47202873Y-47594500D01*
X47199551Y-47594500D01*
X47104500Y-47594500D01*
X47042500Y-47577887D01*
X46997113Y-47532500D01*
X46980500Y-47470500D01*
X46980500Y-46452775D01*
X46981021Y-46441719D01*
X46982673Y-46434333D01*
X46980561Y-46367113D01*
X46980500Y-46363219D01*
X46980500Y-46339542D01*
X46980500Y-46335650D01*
X46979998Y-46331683D01*
X46979081Y-46320026D01*
X46978749Y-46309449D01*
X46977710Y-46276373D01*
X46972118Y-46257128D01*
X46968174Y-46238083D01*
X46965664Y-46218208D01*
X46949579Y-46177583D01*
X46945806Y-46166562D01*
X46933618Y-46124610D01*
X46923417Y-46107360D01*
X46914863Y-46089901D01*
X46907486Y-46071268D01*
X46881808Y-46035925D01*
X46875401Y-46026171D01*
X46857142Y-45995296D01*
X46857141Y-45995294D01*
X46853170Y-45988580D01*
X46839004Y-45974414D01*
X46826370Y-45959622D01*
X46814594Y-45943413D01*
X46808583Y-45938440D01*
X46808581Y-45938438D01*
X46780941Y-45915573D01*
X46772300Y-45907710D01*
X43844413Y-42979822D01*
X43812319Y-42924234D01*
X43812319Y-42860047D01*
X43829233Y-42796924D01*
X43829232Y-42796924D01*
X43830635Y-42791692D01*
X43850468Y-42565000D01*
X43830635Y-42338308D01*
X43793790Y-42200800D01*
X43773141Y-42123736D01*
X43773140Y-42123734D01*
X43771739Y-42118504D01*
X43675568Y-41912266D01*
X43545047Y-41725861D01*
X43384139Y-41564953D01*
X43231356Y-41457974D01*
X43202173Y-41437540D01*
X43202171Y-41437539D01*
X43197734Y-41434432D01*
X42991496Y-41338261D01*
X42986271Y-41336861D01*
X42986263Y-41336858D01*
X42776916Y-41280764D01*
X42776907Y-41280762D01*
X42771692Y-41279365D01*
X42766304Y-41278893D01*
X42766301Y-41278893D01*
X42550395Y-41260004D01*
X42545000Y-41259532D01*
X42539605Y-41260004D01*
X42323698Y-41278893D01*
X42323693Y-41278893D01*
X42318308Y-41279365D01*
X42313090Y-41280762D01*
X42313079Y-41280765D01*
X42249950Y-41297680D01*
X42185763Y-41297680D01*
X42130177Y-41265586D01*
X39499942Y-38635351D01*
X39467339Y-38577797D01*
X39468964Y-38511671D01*
X39504355Y-38455788D01*
X39563440Y-38426051D01*
X39576765Y-38423401D01*
X39758317Y-38368327D01*
X39769523Y-38363686D01*
X39942215Y-38271380D01*
X39942629Y-38272155D01*
X39980354Y-38256529D01*
X40028736Y-38256528D01*
X40067161Y-38272443D01*
X40067506Y-38271798D01*
X40245659Y-38367023D01*
X40438967Y-38425662D01*
X40640000Y-38445462D01*
X40841033Y-38425662D01*
X41034341Y-38367023D01*
X41121428Y-38320473D01*
X41171769Y-38306098D01*
X41223559Y-38313780D01*
X41267560Y-38342150D01*
X44431704Y-41506295D01*
X47595586Y-44670177D01*
X47627680Y-44725763D01*
X47627680Y-44789950D01*
X47610765Y-44853079D01*
X47610762Y-44853090D01*
X47609365Y-44858308D01*
X47608893Y-44863693D01*
X47608893Y-44863698D01*
X47600728Y-44957028D01*
X47589532Y-45085000D01*
X47609365Y-45311692D01*
X47610762Y-45316907D01*
X47610764Y-45316916D01*
X47666858Y-45526263D01*
X47666861Y-45526271D01*
X47668261Y-45531496D01*
X47764432Y-45737734D01*
X47767539Y-45742171D01*
X47767540Y-45742173D01*
X47801415Y-45790552D01*
X47894953Y-45924139D01*
X48055861Y-46085047D01*
X48242266Y-46215568D01*
X48448504Y-46311739D01*
X48453734Y-46313140D01*
X48453736Y-46313141D01*
X48640631Y-46363219D01*
X48668308Y-46370635D01*
X48895000Y-46390468D01*
X49121692Y-46370635D01*
X49341496Y-46311739D01*
X49547734Y-46215568D01*
X49734139Y-46085047D01*
X49895047Y-45924139D01*
X50025568Y-45737734D01*
X50121739Y-45531496D01*
X50180635Y-45311692D01*
X50200468Y-45085000D01*
X50180635Y-44858308D01*
X50121739Y-44638504D01*
X50025568Y-44432266D01*
X49895047Y-44245861D01*
X49734139Y-44084953D01*
X49625485Y-44008873D01*
X49552173Y-43957540D01*
X49552171Y-43957539D01*
X49547734Y-43954432D01*
X49542827Y-43952143D01*
X49542817Y-43952138D01*
X49532023Y-43947105D01*
X49479847Y-43901347D01*
X49460429Y-43834721D01*
X49479850Y-43768096D01*
X49532028Y-43722340D01*
X49542578Y-43717420D01*
X49551920Y-43712026D01*
X49609348Y-43671814D01*
X49616780Y-43663703D01*
X49610867Y-43654421D01*
X48895000Y-42938553D01*
X48541446Y-42584999D01*
X49253431Y-42584999D01*
X49260095Y-42596541D01*
X49964421Y-43300867D01*
X49973703Y-43306780D01*
X49981814Y-43299348D01*
X50022026Y-43241920D01*
X50027422Y-43232575D01*
X50118979Y-43036231D01*
X50122667Y-43026097D01*
X50178739Y-42816837D01*
X50180613Y-42806206D01*
X50199494Y-42590395D01*
X50199494Y-42579605D01*
X50180613Y-42363793D01*
X50178739Y-42353162D01*
X50122667Y-42143902D01*
X50118979Y-42133768D01*
X50027423Y-41937427D01*
X50022025Y-41928077D01*
X49981814Y-41870650D01*
X49973703Y-41863217D01*
X49964424Y-41869128D01*
X49260095Y-42573456D01*
X49253431Y-42584999D01*
X48541446Y-42584999D01*
X47825574Y-41869128D01*
X47816296Y-41863217D01*
X47808183Y-41870651D01*
X47767971Y-41928081D01*
X47762577Y-41937425D01*
X47671020Y-42133768D01*
X47667332Y-42143902D01*
X47611260Y-42353162D01*
X47609386Y-42363793D01*
X47590506Y-42579605D01*
X47590506Y-42595807D01*
X47588535Y-42595807D01*
X47580697Y-42645128D01*
X47544579Y-42693017D01*
X47490209Y-42718351D01*
X47430309Y-42715202D01*
X47378896Y-42684305D01*
X46200887Y-41506296D01*
X48173217Y-41506296D01*
X48179128Y-41515574D01*
X48883457Y-42219903D01*
X48895000Y-42226567D01*
X48906542Y-42219903D01*
X49610870Y-41515574D01*
X49616781Y-41506295D01*
X49609348Y-41498184D01*
X49551922Y-41457974D01*
X49542572Y-41452576D01*
X49346231Y-41361020D01*
X49336097Y-41357332D01*
X49126837Y-41301260D01*
X49116206Y-41299386D01*
X48900395Y-41280506D01*
X48889605Y-41280506D01*
X48673793Y-41299386D01*
X48663162Y-41301260D01*
X48453902Y-41357332D01*
X48443768Y-41361020D01*
X48247425Y-41452577D01*
X48238081Y-41457971D01*
X48180651Y-41498183D01*
X48173217Y-41506296D01*
X46200887Y-41506296D01*
X41701819Y-37007228D01*
X41674939Y-36967000D01*
X41665729Y-36920699D01*
X41665649Y-36920703D01*
X41665622Y-36920162D01*
X41665500Y-36919547D01*
X41665500Y-36917670D01*
X41665500Y-36914620D01*
X41650662Y-36763967D01*
X41592023Y-36570659D01*
X41496798Y-36392506D01*
X41368647Y-36236353D01*
X41310833Y-36188906D01*
X41277405Y-36146072D01*
X41265500Y-36093055D01*
X41265500Y-35637775D01*
X41266021Y-35626719D01*
X41267673Y-35619333D01*
X41265561Y-35552113D01*
X41265500Y-35548219D01*
X41265500Y-35524542D01*
X41265500Y-35520650D01*
X41264998Y-35516683D01*
X41264081Y-35505026D01*
X41262710Y-35461373D01*
X41257118Y-35442128D01*
X41253174Y-35423083D01*
X41250664Y-35403208D01*
X41234579Y-35362583D01*
X41230806Y-35351562D01*
X41218618Y-35309610D01*
X41208417Y-35292360D01*
X41199863Y-35274901D01*
X41192486Y-35256268D01*
X41166808Y-35220925D01*
X41160401Y-35211171D01*
X41142142Y-35180296D01*
X41142141Y-35180294D01*
X41138170Y-35173580D01*
X41124005Y-35159415D01*
X41111370Y-35144622D01*
X41099594Y-35128413D01*
X41093583Y-35123440D01*
X41093581Y-35123438D01*
X41065941Y-35100573D01*
X41057300Y-35092710D01*
X37791818Y-31827227D01*
X37764938Y-31786999D01*
X37755499Y-31739546D01*
X37755499Y-31280439D01*
X37755499Y-31277128D01*
X37749091Y-31217517D01*
X37711619Y-31117049D01*
X37703829Y-31076371D01*
X37709870Y-31035396D01*
X37716836Y-31013955D01*
X37717726Y-31002648D01*
X37706696Y-31000000D01*
X37694670Y-31000000D01*
X37647217Y-30990561D01*
X37612575Y-30967414D01*
X37612546Y-30967454D01*
X37611801Y-30966896D01*
X37611797Y-30966893D01*
X37604349Y-30961318D01*
X37504431Y-30886519D01*
X37504430Y-30886518D01*
X37497331Y-30881204D01*
X37418489Y-30851798D01*
X37369752Y-30833620D01*
X37369750Y-30833619D01*
X37362483Y-30830909D01*
X37354770Y-30830079D01*
X37354767Y-30830079D01*
X37306180Y-30824855D01*
X37306169Y-30824854D01*
X37302873Y-30824500D01*
X37299550Y-30824500D01*
X36360439Y-30824500D01*
X36360420Y-30824500D01*
X36357128Y-30824501D01*
X36353850Y-30824853D01*
X36353838Y-30824854D01*
X36305231Y-30830079D01*
X36305225Y-30830080D01*
X36297517Y-30830909D01*
X36290252Y-30833618D01*
X36290246Y-30833620D01*
X36170980Y-30878104D01*
X36170978Y-30878104D01*
X36162669Y-30881204D01*
X36155572Y-30886516D01*
X36155568Y-30886519D01*
X36054550Y-30962141D01*
X36054546Y-30962144D01*
X36048210Y-30966887D01*
X36048198Y-30966896D01*
X36047454Y-30967454D01*
X36047424Y-30967414D01*
X36012783Y-30990561D01*
X35965330Y-31000000D01*
X35953305Y-31000000D01*
X35942273Y-31002648D01*
X35943163Y-31013959D01*
X35950130Y-31035402D01*
X35956170Y-31076374D01*
X35948380Y-31117049D01*
X35913621Y-31210244D01*
X35913621Y-31210246D01*
X35910909Y-31217517D01*
X35910079Y-31225227D01*
X35910079Y-31225232D01*
X35904855Y-31273819D01*
X35904854Y-31273831D01*
X35904500Y-31277127D01*
X35904500Y-31280448D01*
X35904500Y-31280449D01*
X35904500Y-32219560D01*
X35904500Y-32219578D01*
X35904501Y-32222872D01*
X35904853Y-32226150D01*
X35904854Y-32226161D01*
X35910079Y-32274768D01*
X35910080Y-32274773D01*
X35910909Y-32282483D01*
X35913619Y-32289749D01*
X35913620Y-32289753D01*
X35929971Y-32333591D01*
X35961204Y-32417331D01*
X35966518Y-32424430D01*
X35966519Y-32424431D01*
X36037777Y-32519620D01*
X36047454Y-32532546D01*
X36162669Y-32618796D01*
X36297517Y-32669091D01*
X36357127Y-32675500D01*
X36819547Y-32675499D01*
X36867000Y-32684938D01*
X36907228Y-32711818D01*
X39978181Y-35782771D01*
X40005061Y-35822999D01*
X40014500Y-35870452D01*
X40014500Y-35940375D01*
X39998391Y-36001494D01*
X39954249Y-36046733D01*
X39893543Y-36064338D01*
X39832046Y-36049733D01*
X39769523Y-36016313D01*
X39758317Y-36011672D01*
X39633897Y-35973929D01*
X39622612Y-35973236D01*
X39620000Y-35984238D01*
X39620000Y-36852685D01*
X39619403Y-36864839D01*
X39614798Y-36911585D01*
X39614797Y-36911603D01*
X39614500Y-36914620D01*
X39614500Y-36917670D01*
X39614500Y-37316000D01*
X39597887Y-37378000D01*
X39552500Y-37423387D01*
X39490500Y-37440000D01*
X39249500Y-37440000D01*
X39187500Y-37423387D01*
X39142113Y-37378000D01*
X39125500Y-37316000D01*
X39125499Y-36395439D01*
X39125499Y-36392128D01*
X39120709Y-36347577D01*
X39120000Y-36334325D01*
X39120000Y-35984238D01*
X39117387Y-35973236D01*
X39106102Y-35973929D01*
X38975851Y-36013441D01*
X38975324Y-36011703D01*
X38931951Y-36019109D01*
X38879201Y-36004123D01*
X38874427Y-36001516D01*
X38867331Y-35996204D01*
X38859024Y-35993105D01*
X38859021Y-35993104D01*
X38739752Y-35948620D01*
X38739750Y-35948619D01*
X38732483Y-35945909D01*
X38724770Y-35945079D01*
X38724767Y-35945079D01*
X38676180Y-35939855D01*
X38676169Y-35939854D01*
X38672873Y-35939500D01*
X38669550Y-35939500D01*
X37530439Y-35939500D01*
X37530420Y-35939500D01*
X37527128Y-35939501D01*
X37523850Y-35939853D01*
X37523838Y-35939854D01*
X37475231Y-35945079D01*
X37475225Y-35945080D01*
X37467517Y-35945909D01*
X37460252Y-35948618D01*
X37460246Y-35948620D01*
X37340980Y-35993104D01*
X37340978Y-35993104D01*
X37332669Y-35996204D01*
X37325572Y-36001516D01*
X37325568Y-36001519D01*
X37224550Y-36077141D01*
X37224546Y-36077144D01*
X37217454Y-36082454D01*
X37212144Y-36089546D01*
X37212141Y-36089550D01*
X37136519Y-36190568D01*
X37136516Y-36190572D01*
X37131204Y-36197669D01*
X37128104Y-36205978D01*
X37128104Y-36205980D01*
X37083620Y-36325247D01*
X37083619Y-36325250D01*
X37080909Y-36332517D01*
X37080079Y-36340227D01*
X37080079Y-36340232D01*
X37074855Y-36388819D01*
X37074854Y-36388831D01*
X37074500Y-36392127D01*
X37074500Y-36395448D01*
X37074500Y-36395449D01*
X37074500Y-37984560D01*
X37074500Y-37984578D01*
X37074501Y-37987872D01*
X37074853Y-37991150D01*
X37074854Y-37991161D01*
X37080079Y-38039768D01*
X37080080Y-38039773D01*
X37080909Y-38047483D01*
X37083619Y-38054749D01*
X37083620Y-38054753D01*
X37101565Y-38102865D01*
X37131204Y-38182331D01*
X37136518Y-38189430D01*
X37136519Y-38189431D01*
X37208450Y-38285519D01*
X37217454Y-38297546D01*
X37332669Y-38383796D01*
X37467517Y-38434091D01*
X37503448Y-38437954D01*
X37557300Y-38456973D01*
X37592751Y-38493789D01*
X37593075Y-38493539D01*
X37595413Y-38496553D01*
X37596919Y-38498117D01*
X37597858Y-38499705D01*
X37597861Y-38499708D01*
X37601830Y-38506420D01*
X37607345Y-38511935D01*
X37615990Y-38520580D01*
X37628626Y-38535374D01*
X37635819Y-38545275D01*
X37635823Y-38545279D01*
X37640406Y-38551587D01*
X37646415Y-38556558D01*
X37646416Y-38556559D01*
X37674058Y-38579426D01*
X37682699Y-38587289D01*
X41245586Y-42150177D01*
X41277680Y-42205763D01*
X41277680Y-42269950D01*
X41260765Y-42333079D01*
X41260762Y-42333090D01*
X41259365Y-42338308D01*
X41258893Y-42343693D01*
X41258893Y-42343698D01*
X41252121Y-42421107D01*
X41239532Y-42565000D01*
X41240004Y-42570395D01*
X41258892Y-42786293D01*
X41259365Y-42791692D01*
X41260762Y-42796907D01*
X41260764Y-42796916D01*
X41316858Y-43006263D01*
X41316861Y-43006271D01*
X41318261Y-43011496D01*
X41320549Y-43016403D01*
X41320550Y-43016405D01*
X41329795Y-43036231D01*
X41414432Y-43217734D01*
X41544953Y-43404139D01*
X41705861Y-43565047D01*
X41892266Y-43695568D01*
X41907973Y-43702892D01*
X41960149Y-43748648D01*
X41979570Y-43815272D01*
X41960153Y-43881896D01*
X41907980Y-43927655D01*
X41897424Y-43932577D01*
X41888081Y-43937971D01*
X41830651Y-43978183D01*
X41823217Y-43986296D01*
X41829128Y-43995574D01*
X42545000Y-44711447D01*
X43614421Y-45780867D01*
X43623703Y-45786780D01*
X43631814Y-45779348D01*
X43672026Y-45721920D01*
X43677422Y-45712575D01*
X43768979Y-45516231D01*
X43772667Y-45506097D01*
X43828739Y-45296837D01*
X43830613Y-45286206D01*
X43849494Y-45070395D01*
X43849494Y-45054193D01*
X43851484Y-45054193D01*
X43859263Y-45004962D01*
X43895362Y-44957028D01*
X43949741Y-44931656D01*
X44009666Y-44934789D01*
X44061103Y-44965693D01*
X45693181Y-46597771D01*
X45720061Y-46637999D01*
X45729500Y-46685452D01*
X45729500Y-47470501D01*
X45712887Y-47532501D01*
X45667500Y-47577888D01*
X45605500Y-47594501D01*
X45507128Y-47594501D01*
X45503850Y-47594853D01*
X45503838Y-47594854D01*
X45455231Y-47600079D01*
X45455225Y-47600080D01*
X45447517Y-47600909D01*
X45440252Y-47603618D01*
X45440246Y-47603620D01*
X45320980Y-47648104D01*
X45320978Y-47648104D01*
X45312669Y-47651204D01*
X45305572Y-47656516D01*
X45305568Y-47656519D01*
X45204550Y-47732141D01*
X45204546Y-47732144D01*
X45197454Y-47737454D01*
X45192144Y-47744546D01*
X45192141Y-47744550D01*
X45116519Y-47845568D01*
X45116516Y-47845572D01*
X45111204Y-47852669D01*
X45108104Y-47860978D01*
X45108104Y-47860980D01*
X45063620Y-47980247D01*
X45063619Y-47980250D01*
X45060909Y-47987517D01*
X45060079Y-47995227D01*
X45060079Y-47995232D01*
X45054855Y-48043819D01*
X45054854Y-48043831D01*
X45054500Y-48047127D01*
X45054500Y-48050448D01*
X45054500Y-48050449D01*
X45054500Y-49739560D01*
X45054500Y-49739578D01*
X45054501Y-49742872D01*
X45054853Y-49746150D01*
X45054854Y-49746161D01*
X45060079Y-49794768D01*
X45060080Y-49794773D01*
X45060909Y-49802483D01*
X45063619Y-49809749D01*
X45063620Y-49809753D01*
X45076032Y-49843031D01*
X45111204Y-49937331D01*
X45116518Y-49944430D01*
X45116519Y-49944431D01*
X45182027Y-50031939D01*
X45197454Y-50052546D01*
X45312669Y-50138796D01*
X45447517Y-50189091D01*
X45507127Y-50195500D01*
X45510451Y-50195499D01*
X45513768Y-50195678D01*
X45513699Y-50196954D01*
X45565046Y-50209459D01*
X45609430Y-50248331D01*
X45630825Y-50303314D01*
X45632356Y-50314943D01*
X45639128Y-50325574D01*
X46355000Y-51041447D01*
X46620872Y-51307319D01*
X46652966Y-51362906D01*
X46652966Y-51427094D01*
X46620872Y-51482681D01*
X45639128Y-52464424D01*
X45633217Y-52473703D01*
X45640650Y-52481814D01*
X45698077Y-52522025D01*
X45707427Y-52527423D01*
X45903768Y-52618979D01*
X45913902Y-52622667D01*
X46123162Y-52678739D01*
X46133793Y-52680613D01*
X46349605Y-52699494D01*
X46360395Y-52699494D01*
X46576206Y-52680613D01*
X46586837Y-52678739D01*
X46796097Y-52622667D01*
X46806225Y-52618981D01*
X46821564Y-52611828D01*
X46879161Y-52600317D01*
X46935594Y-52616603D01*
X46978202Y-52657032D01*
X46997423Y-52712534D01*
X46998949Y-52728671D01*
X46999500Y-52740345D01*
X46999500Y-65291334D01*
X46984214Y-65350977D01*
X46942124Y-65395915D01*
X46883608Y-65415069D01*
X46828817Y-65404789D01*
X46828483Y-65405708D01*
X46813263Y-65400168D01*
X46595553Y-65341833D01*
X46584922Y-65339958D01*
X46360395Y-65320315D01*
X46349605Y-65320315D01*
X46125077Y-65339958D01*
X46114446Y-65341833D01*
X45896736Y-65400168D01*
X45886602Y-65403856D01*
X45682330Y-65499111D01*
X45672986Y-65504505D01*
X45604750Y-65552283D01*
X45597316Y-65560396D01*
X45603227Y-65569674D01*
X46620871Y-66587318D01*
X46652965Y-66642905D01*
X46652965Y-66707093D01*
X46620871Y-66762680D01*
X45603230Y-67780321D01*
X45597316Y-67789604D01*
X45604747Y-67797713D01*
X45672991Y-67845498D01*
X45682323Y-67850886D01*
X45886602Y-67946143D01*
X45896736Y-67949831D01*
X46114446Y-68008166D01*
X46125077Y-68010041D01*
X46349605Y-68029685D01*
X46360395Y-68029685D01*
X46584922Y-68010041D01*
X46595553Y-68008166D01*
X46813263Y-67949831D01*
X46828483Y-67944292D01*
X46828817Y-67945210D01*
X46883608Y-67934931D01*
X46942124Y-67954085D01*
X46984214Y-67999023D01*
X46999500Y-68058666D01*
X46999500Y-74691448D01*
X46997974Y-74710833D01*
X46994840Y-74730627D01*
X46995574Y-74738392D01*
X46995574Y-74738395D01*
X46998950Y-74774107D01*
X46999500Y-74785776D01*
X46999500Y-76373055D01*
X46987595Y-76426072D01*
X46954166Y-76468906D01*
X46896353Y-76516353D01*
X46892495Y-76521053D01*
X46892490Y-76521059D01*
X46772069Y-76667793D01*
X46772065Y-76667798D01*
X46768202Y-76672506D01*
X46765331Y-76677876D01*
X46765327Y-76677883D01*
X46675848Y-76845286D01*
X46675844Y-76845293D01*
X46672977Y-76850659D01*
X46671211Y-76856477D01*
X46671206Y-76856492D01*
X46632082Y-76985466D01*
X46598925Y-77039277D01*
X46543551Y-77069754D01*
X46480349Y-77068978D01*
X46425741Y-77037151D01*
X39416819Y-70028228D01*
X39389939Y-69988000D01*
X39380500Y-69940547D01*
X39380500Y-68139990D01*
X39395071Y-68081669D01*
X39435361Y-68037054D01*
X39491899Y-68016632D01*
X39507877Y-68015000D01*
X39674391Y-67959823D01*
X39823693Y-67867732D01*
X39947732Y-67743693D01*
X40039823Y-67594391D01*
X40095000Y-67427877D01*
X40105500Y-67325099D01*
X40105500Y-66680395D01*
X45000315Y-66680395D01*
X45019958Y-66904922D01*
X45021833Y-66915553D01*
X45080168Y-67133263D01*
X45083856Y-67143397D01*
X45179110Y-67347668D01*
X45184508Y-67357018D01*
X45232284Y-67425249D01*
X45240395Y-67432682D01*
X45249674Y-67426771D01*
X45989904Y-66686542D01*
X45996568Y-66675000D01*
X45989904Y-66663457D01*
X45249674Y-65923227D01*
X45240396Y-65917316D01*
X45232283Y-65924750D01*
X45184505Y-65992986D01*
X45179111Y-66002330D01*
X45083856Y-66206602D01*
X45080168Y-66216736D01*
X45021833Y-66434446D01*
X45019958Y-66445077D01*
X45000315Y-66669605D01*
X45000315Y-66680395D01*
X40105500Y-66680395D01*
X40105499Y-66024902D01*
X40095000Y-65922123D01*
X40039823Y-65755609D01*
X39947732Y-65606307D01*
X39823693Y-65482268D01*
X39817543Y-65478474D01*
X39817541Y-65478473D01*
X39680539Y-65393969D01*
X39680538Y-65393968D01*
X39674391Y-65390177D01*
X39507877Y-65335000D01*
X39501142Y-65334312D01*
X39501138Y-65334311D01*
X39493820Y-65333563D01*
X39491900Y-65333367D01*
X39435362Y-65312946D01*
X39395072Y-65268332D01*
X39380500Y-65210010D01*
X39380500Y-59345452D01*
X39389939Y-59297999D01*
X39416819Y-59257771D01*
X40295816Y-58378774D01*
X40295900Y-58378690D01*
X40310104Y-58364485D01*
X40361104Y-58333715D01*
X40420570Y-58330276D01*
X40528757Y-58350500D01*
X40745514Y-58350500D01*
X40751243Y-58350500D01*
X40969940Y-58309618D01*
X41177401Y-58229247D01*
X41366562Y-58112124D01*
X41530981Y-57962236D01*
X41665058Y-57784689D01*
X41764229Y-57585528D01*
X41825115Y-57371536D01*
X41845643Y-57150000D01*
X41825115Y-56928464D01*
X41764229Y-56714472D01*
X41665058Y-56515311D01*
X41661605Y-56510738D01*
X41534438Y-56342341D01*
X41534434Y-56342337D01*
X41530981Y-56337764D01*
X41526744Y-56333901D01*
X41526740Y-56333897D01*
X41370796Y-56191736D01*
X41370797Y-56191736D01*
X41366562Y-56187876D01*
X41361692Y-56184861D01*
X41361690Y-56184859D01*
X41182275Y-56073771D01*
X41182276Y-56073771D01*
X41177401Y-56070753D01*
X40969940Y-55990382D01*
X40964302Y-55989328D01*
X40756872Y-55950552D01*
X40756869Y-55950551D01*
X40751243Y-55949500D01*
X40528757Y-55949500D01*
X40523132Y-55950551D01*
X40523126Y-55950552D01*
X40420572Y-55969723D01*
X40361107Y-55966285D01*
X40310106Y-55935515D01*
X37156818Y-52782227D01*
X37129938Y-52741999D01*
X37120499Y-52694546D01*
X37120499Y-52600439D01*
X37120499Y-52597128D01*
X37114091Y-52537517D01*
X37076619Y-52437049D01*
X37068829Y-52396371D01*
X37074870Y-52355396D01*
X37081836Y-52333955D01*
X37082726Y-52322648D01*
X37071696Y-52320000D01*
X37059670Y-52320000D01*
X37012217Y-52310561D01*
X36977575Y-52287414D01*
X36977546Y-52287454D01*
X36976801Y-52286896D01*
X36976797Y-52286893D01*
X36967448Y-52279895D01*
X36869431Y-52206519D01*
X36869430Y-52206518D01*
X36862331Y-52201204D01*
X36727483Y-52150909D01*
X36719770Y-52150079D01*
X36719767Y-52150079D01*
X36671180Y-52144855D01*
X36671169Y-52144854D01*
X36667873Y-52144500D01*
X36664550Y-52144500D01*
X35725439Y-52144500D01*
X35725420Y-52144500D01*
X35722128Y-52144501D01*
X35718850Y-52144853D01*
X35718838Y-52144854D01*
X35670231Y-52150079D01*
X35670225Y-52150080D01*
X35662517Y-52150909D01*
X35655252Y-52153618D01*
X35655246Y-52153620D01*
X35535980Y-52198104D01*
X35535978Y-52198104D01*
X35527669Y-52201204D01*
X35520572Y-52206516D01*
X35520568Y-52206519D01*
X35419550Y-52282141D01*
X35419546Y-52282144D01*
X35413210Y-52286887D01*
X35413198Y-52286896D01*
X35412454Y-52287454D01*
X35412424Y-52287414D01*
X35377783Y-52310561D01*
X35330330Y-52320000D01*
X35318305Y-52320000D01*
X35307273Y-52322648D01*
X35308163Y-52333959D01*
X35315130Y-52355402D01*
X35321170Y-52396374D01*
X35313380Y-52437049D01*
X35278621Y-52530244D01*
X35278621Y-52530246D01*
X35275909Y-52537517D01*
X35275079Y-52545227D01*
X35275079Y-52545232D01*
X35269855Y-52593819D01*
X35269854Y-52593831D01*
X35269500Y-52597127D01*
X35269500Y-52600448D01*
X35269500Y-52600449D01*
X35269500Y-53539560D01*
X35269500Y-53539578D01*
X30826500Y-53539578D01*
X30826500Y-51817351D01*
X35307273Y-51817351D01*
X35318304Y-51820000D01*
X35928674Y-51820000D01*
X35941549Y-51816549D01*
X35945000Y-51803674D01*
X36445000Y-51803674D01*
X36448450Y-51816549D01*
X36461326Y-51820000D01*
X37071696Y-51820000D01*
X37082726Y-51817351D01*
X37081836Y-51806040D01*
X37046691Y-51697874D01*
X37041435Y-51686069D01*
X36950711Y-51528930D01*
X36943116Y-51518476D01*
X36836795Y-51400395D01*
X45050506Y-51400395D01*
X45069386Y-51616206D01*
X45071260Y-51626837D01*
X45127332Y-51836097D01*
X45131020Y-51846231D01*
X45222576Y-52042572D01*
X45227974Y-52051922D01*
X45268184Y-52109348D01*
X45276295Y-52116781D01*
X45285574Y-52110870D01*
X45989903Y-51406542D01*
X45996567Y-51395000D01*
X45989903Y-51383457D01*
X45285574Y-50679128D01*
X45276296Y-50673217D01*
X45268183Y-50680651D01*
X45227971Y-50738081D01*
X45222577Y-50747425D01*
X45131020Y-50943768D01*
X45127332Y-50953902D01*
X45071260Y-51163162D01*
X45069386Y-51173793D01*
X45050506Y-51389605D01*
X45050506Y-51400395D01*
X36836795Y-51400395D01*
X36821701Y-51383632D01*
X36812101Y-51374987D01*
X36665302Y-51268331D01*
X36654113Y-51261871D01*
X36488347Y-51188068D01*
X36476062Y-51184076D01*
X36458550Y-51180354D01*
X36447450Y-51180499D01*
X36445000Y-51191328D01*
X36445000Y-51803674D01*
X35945000Y-51803674D01*
X35945000Y-51191328D01*
X35942549Y-51180499D01*
X35931449Y-51180354D01*
X35913937Y-51184076D01*
X35901652Y-51188068D01*
X35735889Y-51261870D01*
X35724694Y-51268334D01*
X35577904Y-51374983D01*
X35568295Y-51383635D01*
X35446883Y-51518476D01*
X35439288Y-51528930D01*
X35348564Y-51686069D01*
X35343308Y-51697874D01*
X35308163Y-51806040D01*
X35307273Y-51817351D01*
X30826500Y-51817351D01*
X30826500Y-49782580D01*
X39466920Y-49782580D01*
X39467440Y-49793835D01*
X39514672Y-49959840D01*
X39518792Y-49970474D01*
X39612813Y-50159295D01*
X39618820Y-50168997D01*
X39745932Y-50337320D01*
X39753630Y-50345764D01*
X39909505Y-50487862D01*
X39918609Y-50494738D01*
X40097950Y-50605781D01*
X40108163Y-50610867D01*
X40304855Y-50687066D01*
X40315831Y-50690188D01*
X40376570Y-50701542D01*
X40387598Y-50701160D01*
X40390000Y-50690393D01*
X40890000Y-50690393D01*
X40892401Y-50701160D01*
X40903429Y-50701542D01*
X40964168Y-50690188D01*
X40975144Y-50687066D01*
X41171836Y-50610867D01*
X41182049Y-50605781D01*
X41361390Y-50494738D01*
X41370494Y-50487862D01*
X41526369Y-50345764D01*
X41534067Y-50337320D01*
X41661179Y-50168997D01*
X41667186Y-50159295D01*
X41761207Y-49970474D01*
X41765327Y-49959840D01*
X41812559Y-49793835D01*
X41813079Y-49782580D01*
X41802110Y-49780000D01*
X40906326Y-49780000D01*
X40893450Y-49783450D01*
X40890000Y-49796326D01*
X40890000Y-50690393D01*
X40390000Y-50690393D01*
X40390000Y-49796326D01*
X40386549Y-49783450D01*
X40373674Y-49780000D01*
X39477890Y-49780000D01*
X39466920Y-49782580D01*
X30826500Y-49782580D01*
X30826500Y-49277419D01*
X39466920Y-49277419D01*
X39477890Y-49280000D01*
X40373674Y-49280000D01*
X40386549Y-49276549D01*
X40390000Y-49263674D01*
X40890000Y-49263674D01*
X40893450Y-49276549D01*
X40906326Y-49280000D01*
X41802110Y-49280000D01*
X41813079Y-49277419D01*
X41812559Y-49266164D01*
X41765327Y-49100159D01*
X41761207Y-49089525D01*
X41667186Y-48900704D01*
X41661179Y-48891002D01*
X41534067Y-48722679D01*
X41526369Y-48714235D01*
X41370494Y-48572137D01*
X41361390Y-48565261D01*
X41182049Y-48454218D01*
X41171836Y-48449132D01*
X40975144Y-48372933D01*
X40964168Y-48369811D01*
X40903429Y-48358457D01*
X40892401Y-48358839D01*
X40890000Y-48369607D01*
X40890000Y-49263674D01*
X40390000Y-49263674D01*
X40390000Y-48369607D01*
X40387598Y-48358839D01*
X40376570Y-48358457D01*
X40315831Y-48369811D01*
X40304855Y-48372933D01*
X40108163Y-48449132D01*
X40097950Y-48454218D01*
X39918609Y-48565261D01*
X39909505Y-48572137D01*
X39753630Y-48714235D01*
X39745932Y-48722679D01*
X39618820Y-48891002D01*
X39612813Y-48900704D01*
X39518792Y-49089525D01*
X39514672Y-49100159D01*
X39467440Y-49266164D01*
X39466920Y-49277419D01*
X30826500Y-49277419D01*
X30826500Y-46143703D01*
X41823217Y-46143703D01*
X41830650Y-46151814D01*
X41888077Y-46192025D01*
X41897427Y-46197423D01*
X42093768Y-46288979D01*
X42103902Y-46292667D01*
X42313162Y-46348739D01*
X42323793Y-46350613D01*
X42539605Y-46369494D01*
X42550395Y-46369494D01*
X42766206Y-46350613D01*
X42776837Y-46348739D01*
X42986097Y-46292667D01*
X42996231Y-46288979D01*
X43192575Y-46197422D01*
X43201920Y-46192026D01*
X43259348Y-46151814D01*
X43266780Y-46143703D01*
X43260867Y-46134421D01*
X42556542Y-45430095D01*
X42545000Y-45423431D01*
X42533457Y-45430095D01*
X41829128Y-46134424D01*
X41823217Y-46143703D01*
X30826500Y-46143703D01*
X30826500Y-45070395D01*
X41240506Y-45070395D01*
X41259386Y-45286206D01*
X41261260Y-45296837D01*
X41317332Y-45506097D01*
X41321020Y-45516231D01*
X41412576Y-45712572D01*
X41417974Y-45721922D01*
X41458184Y-45779348D01*
X41466295Y-45786781D01*
X41475574Y-45780870D01*
X42179903Y-45076542D01*
X42186567Y-45064999D01*
X42179903Y-45053457D01*
X41475574Y-44349128D01*
X41466296Y-44343217D01*
X41458183Y-44350651D01*
X41417971Y-44408081D01*
X41412577Y-44417425D01*
X41321020Y-44613768D01*
X41317332Y-44623902D01*
X41261260Y-44833162D01*
X41259386Y-44843793D01*
X41240506Y-45059605D01*
X41240506Y-45070395D01*
X30826500Y-45070395D01*
X30826500Y-30497351D01*
X35942273Y-30497351D01*
X35953304Y-30500000D01*
X36563674Y-30500000D01*
X36576549Y-30496549D01*
X36580000Y-30483674D01*
X37080000Y-30483674D01*
X37083450Y-30496549D01*
X37096326Y-30500000D01*
X37706696Y-30500000D01*
X37717726Y-30497351D01*
X37716836Y-30486040D01*
X37681691Y-30377874D01*
X37676435Y-30366069D01*
X37585711Y-30208930D01*
X37578116Y-30198476D01*
X37456701Y-30063632D01*
X37447101Y-30054987D01*
X37300302Y-29948331D01*
X37289113Y-29941871D01*
X37123347Y-29868068D01*
X37111062Y-29864076D01*
X37093550Y-29860354D01*
X37082450Y-29860499D01*
X37080000Y-29871328D01*
X37080000Y-30483674D01*
X36580000Y-30483674D01*
X36580000Y-29871328D01*
X36577549Y-29860499D01*
X36566449Y-29860354D01*
X36548937Y-29864076D01*
X36536652Y-29868068D01*
X36370889Y-29941870D01*
X36359694Y-29948334D01*
X36212904Y-30054983D01*
X36203295Y-30063635D01*
X36081883Y-30198476D01*
X36074288Y-30208930D01*
X35983564Y-30366069D01*
X35978308Y-30377874D01*
X35943163Y-30486040D01*
X35942273Y-30497351D01*
X30826500Y-30497351D01*
X30826500Y-25654000D01*
X31664341Y-25654000D01*
X31664813Y-25659395D01*
X31679662Y-25829122D01*
X31684937Y-25889408D01*
X31686336Y-25894630D01*
X31686337Y-25894634D01*
X31744694Y-26112430D01*
X31744697Y-26112438D01*
X31746097Y-26117663D01*
X31845965Y-26331829D01*
X31981505Y-26525401D01*
X32148599Y-26692495D01*
X32342171Y-26828035D01*
X32556337Y-26927903D01*
X32784592Y-26989063D01*
X32961034Y-27004500D01*
X33076258Y-27004500D01*
X33078966Y-27004500D01*
X33255408Y-26989063D01*
X33483663Y-26927903D01*
X33697829Y-26828035D01*
X33891401Y-26692495D01*
X34058495Y-26525401D01*
X34194035Y-26331830D01*
X34293903Y-26117663D01*
X34355063Y-25889408D01*
X34375659Y-25654000D01*
X34355063Y-25418592D01*
X34293903Y-25190337D01*
X34194035Y-24976171D01*
X34058495Y-24782599D01*
X33891401Y-24615505D01*
X33697829Y-24479965D01*
X33483663Y-24380097D01*
X33478438Y-24378697D01*
X33478430Y-24378694D01*
X33260634Y-24320337D01*
X33260630Y-24320336D01*
X33255408Y-24318937D01*
X33250020Y-24318465D01*
X33250017Y-24318465D01*
X33081664Y-24303736D01*
X33081662Y-24303735D01*
X33078966Y-24303500D01*
X32961034Y-24303500D01*
X32958338Y-24303735D01*
X32958335Y-24303736D01*
X32789982Y-24318465D01*
X32789977Y-24318465D01*
X32784592Y-24318937D01*
X32779371Y-24320335D01*
X32779365Y-24320337D01*
X32561569Y-24378694D01*
X32561557Y-24378698D01*
X32556337Y-24380097D01*
X32551432Y-24382383D01*
X32551427Y-24382386D01*
X32347081Y-24477675D01*
X32347077Y-24477677D01*
X32342171Y-24479965D01*
X32337738Y-24483068D01*
X32337731Y-24483073D01*
X32153034Y-24612399D01*
X32153029Y-24612402D01*
X32148599Y-24615505D01*
X32144775Y-24619328D01*
X32144769Y-24619334D01*
X31985336Y-24778767D01*
X31985330Y-24778773D01*
X31981505Y-24782599D01*
X31978406Y-24787023D01*
X31978399Y-24787033D01*
X31849066Y-24971740D01*
X31849061Y-24971747D01*
X31845965Y-24976170D01*
X31843683Y-24981061D01*
X31843678Y-24981072D01*
X31748386Y-25185427D01*
X31748383Y-25185432D01*
X31746097Y-25190337D01*
X31744698Y-25195557D01*
X31744694Y-25195569D01*
X31686337Y-25413365D01*
X31686335Y-25413371D01*
X31684937Y-25418592D01*
X31684465Y-25423977D01*
X31684465Y-25423982D01*
X31668590Y-25605438D01*
X31664341Y-25654000D01*
X30826500Y-25654000D01*
X30826500Y-23584500D01*
X30843113Y-23522500D01*
X30888500Y-23477113D01*
X30950500Y-23460500D01*
X121957500Y-23460500D01*
X122019500Y-23477113D01*
G37*
%TD.AperFunction*%
%TD*%
M02*
