%TF.GenerationSoftware,KiCad,Pcbnew,(7.0.0-0)*%
%TF.CreationDate,2023-02-25T23:33:50+02:00*%
%TF.ProjectId,ceas_8051,63656173-5f38-4303-9531-2e6b69636164,rev?*%
%TF.SameCoordinates,Original*%
%TF.FileFunction,Soldermask,Top*%
%TF.FilePolarity,Negative*%
%FSLAX46Y46*%
G04 Gerber Fmt 4.6, Leading zero omitted, Abs format (unit mm)*
G04 Created by KiCad (PCBNEW (7.0.0-0)) date 2023-02-25 23:33:50*
%MOMM*%
%LPD*%
G01*
G04 APERTURE LIST*
G04 Aperture macros list*
%AMRoundRect*
0 Rectangle with rounded corners*
0 $1 Rounding radius*
0 $2 $3 $4 $5 $6 $7 $8 $9 X,Y pos of 4 corners*
0 Add a 4 corners polygon primitive as box body*
4,1,4,$2,$3,$4,$5,$6,$7,$8,$9,$2,$3,0*
0 Add four circle primitives for the rounded corners*
1,1,$1+$1,$2,$3*
1,1,$1+$1,$4,$5*
1,1,$1+$1,$6,$7*
1,1,$1+$1,$8,$9*
0 Add four rect primitives between the rounded corners*
20,1,$1+$1,$2,$3,$4,$5,0*
20,1,$1+$1,$4,$5,$6,$7,0*
20,1,$1+$1,$6,$7,$8,$9,0*
20,1,$1+$1,$8,$9,$2,$3,0*%
G04 Aperture macros list end*
%ADD10C,2.200000*%
%ADD11C,1.500000*%
%ADD12R,1.500000X1.500000*%
%ADD13O,1.400000X1.400000*%
%ADD14C,1.400000*%
%ADD15C,1.800000*%
%ADD16R,1.800000X1.800000*%
%ADD17O,1.500000X1.050000*%
%ADD18R,1.500000X1.050000*%
%ADD19C,1.200000*%
%ADD20R,1.200000X1.200000*%
%ADD21C,1.600000*%
%ADD22RoundRect,0.249900X-0.600100X-0.600100X0.600100X-0.600100X0.600100X0.600100X-0.600100X0.600100X0*%
%ADD23C,1.700000*%
%ADD24R,0.850000X0.850000*%
%ADD25O,0.850000X0.850000*%
%ADD26O,1.050000X1.500000*%
%ADD27R,1.050000X1.500000*%
%ADD28R,1.600000X1.600000*%
%ADD29O,1.600000X1.600000*%
%ADD30C,2.000000*%
G04 APERTURE END LIST*
D10*
%TO.C,REF\u002A\u002A*%
X119888000Y-83312000D03*
%TD*%
%TO.C,REF\u002A\u002A*%
X33020000Y-83312000D03*
%TD*%
%TO.C,REF\u002A\u002A*%
X119888000Y-25654000D03*
%TD*%
%TO.C,REF\u002A\u002A*%
X33020000Y-25654000D03*
%TD*%
D11*
%TO.C,DS2*%
X78740000Y-28459500D03*
X81280000Y-28459500D03*
X83820000Y-28459500D03*
X86360000Y-28459500D03*
X88900000Y-28459500D03*
X88900000Y-38619500D03*
X86360000Y-38619500D03*
X83820000Y-38619500D03*
X81280000Y-38619500D03*
D12*
X78739999Y-38619499D03*
%TD*%
D11*
%TO.C,DS3*%
X102870000Y-28205500D03*
X105410000Y-28205500D03*
X107950000Y-28205500D03*
X110490000Y-28205500D03*
X113030000Y-28205500D03*
X113030000Y-38365500D03*
X110490000Y-38365500D03*
X107950000Y-38365500D03*
X105410000Y-38365500D03*
D12*
X102869999Y-38365499D03*
%TD*%
D13*
%TO.C,R14*%
X105409999Y-54609999D03*
D14*
X105410000Y-46990000D03*
%TD*%
D15*
%TO.C,D3*%
X96520000Y-36835000D03*
D16*
X96519999Y-39374999D03*
%TD*%
%TO.C,D2*%
X71373999Y-32003999D03*
D15*
X71374000Y-29464000D03*
%TD*%
%TO.C,D1*%
X71374000Y-37084000D03*
D16*
X71373999Y-39623999D03*
%TD*%
D12*
%TO.C,DS1*%
X53339999Y-38619499D03*
D11*
X55880000Y-38619500D03*
X58420000Y-38619500D03*
X60960000Y-38619500D03*
X63500000Y-38619500D03*
X63500000Y-28459500D03*
X60960000Y-28459500D03*
X58420000Y-28459500D03*
X55880000Y-28459500D03*
X53340000Y-28459500D03*
%TD*%
D17*
%TO.C,Q6*%
X84433999Y-48259999D03*
X84433999Y-49529999D03*
D18*
X84433999Y-50799999D03*
%TD*%
D19*
%TO.C,C1*%
X94372401Y-78105000D03*
D20*
X92372400Y-78104999D03*
%TD*%
D17*
%TO.C,Q3*%
X69089999Y-48259999D03*
X69089999Y-49529999D03*
D18*
X69089999Y-50799999D03*
%TD*%
D14*
%TO.C,R10*%
X114554000Y-46990000D03*
D13*
X114553999Y-54609999D03*
%TD*%
%TO.C,R15*%
X107695999Y-54609999D03*
D14*
X107696000Y-46990000D03*
%TD*%
%TO.C,R6*%
X69342000Y-71628000D03*
D13*
X69341999Y-64007999D03*
%TD*%
D21*
%TO.C,C5*%
X42545000Y-45065000D03*
X42545000Y-42565000D03*
%TD*%
D18*
%TO.C,Q2*%
X61467999Y-51053999D03*
D17*
X61467999Y-49783999D03*
X61467999Y-48513999D03*
%TD*%
D21*
%TO.C,C3*%
X115570000Y-78760000D03*
X115570000Y-81260000D03*
%TD*%
D14*
%TO.C,R5*%
X67056000Y-71628000D03*
D13*
X67055999Y-64007999D03*
%TD*%
D15*
%TO.C,D4*%
X96520000Y-29210000D03*
D16*
X96519999Y-31749999D03*
%TD*%
D22*
%TO.C,BZ1*%
X38755000Y-66675000D03*
D23*
X46355000Y-66675000D03*
%TD*%
D21*
%TO.C,C4*%
X48895000Y-42585000D03*
X48895000Y-45085000D03*
%TD*%
D17*
%TO.C,Q5*%
X91037999Y-47751999D03*
X91037999Y-49021999D03*
D18*
X91037999Y-50291999D03*
%TD*%
D24*
%TO.C,J2*%
X36829999Y-31749999D03*
D25*
X36829999Y-30749999D03*
%TD*%
D26*
%TO.C,Q7*%
X47624999Y-77469999D03*
X48894999Y-77469999D03*
D27*
X50164999Y-77469999D03*
%TD*%
D17*
%TO.C,Q1*%
X53847999Y-48767999D03*
X53847999Y-50037999D03*
D18*
X53847999Y-51307999D03*
%TD*%
D13*
%TO.C,R11*%
X112267999Y-54609999D03*
D14*
X112268000Y-46990000D03*
%TD*%
D25*
%TO.C,J1*%
X36194999Y-52069999D03*
D24*
X36194999Y-53069999D03*
%TD*%
D13*
%TO.C,R1*%
X97789999Y-74929999D03*
D14*
X105410000Y-74930000D03*
%TD*%
D28*
%TO.C,U1*%
X91439999Y-71119999D03*
D29*
X93979999Y-71119999D03*
X96519999Y-71119999D03*
X99059999Y-71119999D03*
X101599999Y-71119999D03*
X104139999Y-71119999D03*
X106679999Y-71119999D03*
X109219999Y-71119999D03*
X111759999Y-71119999D03*
X114299999Y-71119999D03*
X114299999Y-63499999D03*
X111759999Y-63499999D03*
X109219999Y-63499999D03*
X106679999Y-63499999D03*
X104139999Y-63499999D03*
X101599999Y-63499999D03*
X99059999Y-63499999D03*
X96519999Y-63499999D03*
X93979999Y-63499999D03*
X91439999Y-63499999D03*
%TD*%
D17*
%TO.C,Q4*%
X76709999Y-48259999D03*
X76709999Y-49529999D03*
D18*
X76709999Y-50799999D03*
%TD*%
D14*
%TO.C,R7*%
X72136000Y-71628000D03*
D13*
X72135999Y-64007999D03*
%TD*%
%TO.C,R4*%
X62991999Y-64007999D03*
D14*
X62992000Y-71628000D03*
%TD*%
D13*
%TO.C,R3*%
X60451999Y-64007999D03*
D14*
X60452000Y-71628000D03*
%TD*%
D13*
%TO.C,R13*%
X103123999Y-54609999D03*
D14*
X103124000Y-46990000D03*
%TD*%
D21*
%TO.C,C2*%
X99695000Y-78740000D03*
X99695000Y-81240000D03*
%TD*%
%TO.C,C6*%
X46355000Y-51395000D03*
D28*
X46354999Y-48894999D03*
%TD*%
D13*
%TO.C,R16*%
X100837999Y-54609999D03*
D14*
X100838000Y-46990000D03*
%TD*%
%TO.C,R17*%
X98552000Y-46990000D03*
D13*
X98551999Y-54609999D03*
%TD*%
D14*
%TO.C,R18*%
X40640000Y-57150000D03*
D13*
X40639999Y-49529999D03*
%TD*%
%TO.C,R9*%
X116839999Y-54609999D03*
D14*
X116840000Y-46990000D03*
%TD*%
D26*
%TO.C,U2*%
X40639999Y-37189999D03*
X39369999Y-37189999D03*
D27*
X38099999Y-37189999D03*
%TD*%
D11*
%TO.C,Y1*%
X109855000Y-81280000D03*
X104955000Y-81280000D03*
%TD*%
D14*
%TO.C,R8*%
X52070000Y-64135000D03*
D13*
X52069999Y-71754999D03*
%TD*%
%TO.C,R12*%
X109981999Y-54609999D03*
D14*
X109982000Y-46990000D03*
%TD*%
D13*
%TO.C,R2*%
X57911999Y-64007999D03*
D14*
X57912000Y-71628000D03*
%TD*%
D30*
%TO.C,S1*%
X81840000Y-76200000D03*
X88340000Y-76200000D03*
X81840000Y-80700000D03*
X88340000Y-80700000D03*
%TD*%
%TO.C,S2*%
X70410000Y-76200000D03*
X76910000Y-76200000D03*
X70410000Y-80700000D03*
X76910000Y-80700000D03*
%TD*%
%TO.C,S3*%
X58905000Y-76200000D03*
X65405000Y-76200000D03*
X58905000Y-80700000D03*
X65405000Y-80700000D03*
%TD*%
M02*
